<svg width="32" height="32" viewBox="0 0 32 32" fill="none" xmlns="http://www.w3.org/2000/svg">
<path d="M4 29.0003C3.87067 29.0003 3.74119 28.975 3.61719 28.9243C3.24385 28.7697 3 28.4043 3 28.0003V8.00033C3 4.77633 4.776 3.00033 8 3.00033H18.6667C19.2187 3.00033 19.6667 3.44833 19.6667 4.00033C19.6667 4.55233 19.2187 5.00033 18.6667 5.00033H8C5.89733 5.00033 5 5.89766 5 8.00033V25.5856L7.29329 23.2923C7.48129 23.1043 7.73467 22.999 8 22.999H24C26.1027 22.999 27 22.1017 27 19.999V13.3324C27 12.7804 27.448 12.3324 28 12.3324C28.552 12.3324 29 12.7804 29 13.3324V19.999C29 23.223 27.224 24.999 24 24.999H8.41471L4.70801 28.7057C4.51601 28.8991 4.26 29.0003 4 29.0003ZM30.3333 5.33366C30.3333 3.31099 28.6893 1.66699 26.6667 1.66699C24.644 1.66699 23 3.31099 23 5.33366C23 7.35633 24.644 9.00033 26.6667 9.00033C28.6893 9.00033 30.3333 7.35633 30.3333 5.33366ZM28.3333 5.33366C28.3333 6.25233 27.5853 7.00033 26.6667 7.00033C25.748 7.00033 25 6.25233 25 5.33366C25 4.41499 25.748 3.66699 26.6667 3.66699C27.5853 3.66699 28.3333 4.41499 28.3333 5.33366ZM21 12.0003C21 11.4483 20.552 11.0003 20 11.0003H10.6667C10.1147 11.0003 9.66667 11.4483 9.66667 12.0003C9.66667 12.5523 10.1147 13.0003 10.6667 13.0003H20C20.552 13.0003 21 12.5523 21 12.0003ZM18.3333 17.3337C18.3333 16.7817 17.8853 16.3337 17.3333 16.3337H10.6667C10.1147 16.3337 9.66667 16.7817 9.66667 17.3337C9.66667 17.8857 10.1147 18.3337 10.6667 18.3337H17.3333C17.8853 18.3337 18.3333 17.8857 18.3333 17.3337Z" fill="white"/>
</svg>
