<svg width="24" height="24" viewBox="0 0 24 24" fill="none" xmlns="http://www.w3.org/2000/svg">
<path d="M17.5664 14.2954C17.3754 14.2954 17.1834 14.2224 17.0374 14.0774C16.7444 13.7854 16.7424 13.3104 17.0354 13.0164L19.0024 11.0384C19.8104 10.2404 20.2515 9.17039 20.2515 8.02239C20.2515 6.87639 19.8084 5.80237 19.0044 4.99737C17.3404 3.33237 14.6304 3.33237 12.9644 4.99737L10.9976 6.97439C10.7056 7.26839 10.2305 7.26938 9.93652 6.97738C9.64352 6.68538 9.64135 6.21038 9.93335 5.91638L11.9023 3.93838C14.1553 1.68638 17.8155 1.68837 20.0645 3.93737C21.1525 5.02437 21.7515 6.47539 21.7515 8.02239C21.7515 9.57439 21.1515 11.0224 20.0625 12.1004L18.0994 14.0744C17.9514 14.2224 17.7594 14.2954 17.5664 14.2954ZM12.1006 20.0624L14.0793 18.0944C14.3723 17.8024 14.3745 17.3274 14.0815 17.0334C13.7895 16.7394 13.3145 16.7394 13.0205 17.0304L11.0415 19.0004C9.3775 20.6654 6.66746 20.6654 5.00146 19.0004C3.33646 17.3354 3.33649 14.6264 5.00049 12.9624L6.97949 10.9944C7.27249 10.7024 7.27445 10.2274 6.98145 9.93337C6.68945 9.63937 6.21441 9.63938 5.92041 9.93038L3.94141 11.9004C1.69141 14.1504 1.69141 17.8104 3.94141 20.0604C5.06741 21.1854 6.54546 21.7474 8.02246 21.7474C9.49946 21.7474 10.9766 21.1864 12.1006 20.0624ZM9.53149 15.5294L15.5574 9.50439C15.8504 9.21139 15.8504 8.73638 15.5574 8.44338C15.2654 8.15138 14.7906 8.14938 14.4966 8.44338L8.47046 14.4684C8.17746 14.7614 8.17746 15.2364 8.47046 15.5294C8.61646 15.6754 8.80849 15.7494 9.00049 15.7494C9.19249 15.7494 9.38549 15.6764 9.53149 15.5294Z" fill="#24262D"/>
</svg>
