<svg width="24" height="25" viewBox="0 0 24 25" fill="none" xmlns="http://www.w3.org/2000/svg">
<path d="M20.7506 11.6873C21.3406 11.1173 21.0106 10.1074 20.1906 9.98737L15.7106 9.33734C15.3806 9.28734 15.1006 9.08735 14.9506 8.78735L13.0106 4.87732C12.8206 4.47732 12.4307 4.27734 12.0507 4.27734C11.6707 4.27734 11.2806 4.47732 11.0906 4.87732L9.15065 8.78735C9.00065 9.08735 8.72064 9.28734 8.39064 9.33734L3.91066 9.98737C3.09066 10.1074 2.7606 11.1173 3.3506 11.6873L6.6006 14.8373C6.8306 15.0673 6.94063 15.3973 6.88063 15.7173L6.14064 20.0273C6.02064 20.7173 6.57058 21.2773 7.20058 21.2773C7.36058 21.2773 7.53058 21.2373 7.70058 21.1573L11.5806 19.1174C11.7306 19.0374 11.8907 19.0073 12.0507 19.0073C12.2107 19.0073 12.3706 19.0374 12.5206 19.1174L16.4007 21.1573C16.5707 21.2373 16.7407 21.2773 16.9007 21.2773C17.5307 21.2773 18.0806 20.7173 17.9606 20.0273L17.2206 15.7173C17.1606 15.3973 17.2706 15.0673 17.5006 14.8373L20.7506 11.6873ZM16.4606 13.7573C15.8706 14.3373 15.6006 15.1674 15.7406 15.9774L16.3306 19.4174L13.2106 17.7874C12.8506 17.5974 12.4507 17.5073 12.0507 17.5073V6.30737L13.6106 9.45734C13.9806 10.1973 14.6806 10.7073 15.4906 10.8173L18.9706 11.3273L16.4606 13.7573Z" fill="#FDA712"/>
</svg>
