<svg width="41" height="40" viewBox="0 0 41 40" fill="none" xmlns="http://www.w3.org/2000/svg">
<path d="M7.28267 25.5002L14.8327 33.0502C17.9327 36.1502 22.966 36.1502 26.0827 33.0502L33.3993 25.7336C36.4993 22.6336 36.4993 17.6002 33.3993 14.4837L25.8327 6.95033C24.2493 5.36699 22.066 4.51699 19.8327 4.63366L11.4993 5.03366C8.166 5.18366 5.516 7.83366 5.34933 11.1503L4.94933 19.4836C4.84933 21.7336 5.69933 23.9169 7.28267 25.5002Z" stroke="#363A44" stroke-width="1.5" stroke-linecap="round" stroke-linejoin="round"/>
<path d="M16.1667 20.0003C18.4679 20.0003 20.3334 18.1348 20.3334 15.8337C20.3334 13.5325 18.4679 11.667 16.1667 11.667C13.8655 11.667 12 13.5325 12 15.8337C12 18.1348 13.8655 20.0003 16.1667 20.0003Z" stroke="#363A44" stroke-width="1.5" stroke-linecap="round"/>
</svg>
