<svg width="40" height="40" viewBox="0 0 40 40" fill="none" xmlns="http://www.w3.org/2000/svg">
<path d="M15.2682 18.6745C15.1016 18.6585 14.9016 18.6585 14.7182 18.6745C10.7516 18.5465 7.60156 15.4264 7.60156 11.5864C7.60156 7.66642 10.9016 4.48242 15.0016 4.48242C19.0849 4.48242 22.4016 7.66642 22.4016 11.5864C22.3849 15.4264 19.2349 18.5465 15.2682 18.6745Z" stroke="#363A44" stroke-width="1.5" stroke-linecap="round" stroke-linejoin="round"/>
<path d="M27.3495 7.68262C30.5828 7.68262 33.1828 10.1946 33.1828 13.2826C33.1828 16.3067 30.6828 18.7707 27.5661 18.8827C27.4328 18.8667 27.2828 18.8667 27.1328 18.8827" stroke="#363A44" stroke-width="1.5" stroke-linecap="round" stroke-linejoin="round"/>
<path d="M6.93516 24.5788C2.90182 27.1708 2.90182 31.3948 6.93516 33.9708C11.5185 36.9148 19.0352 36.9148 23.6185 33.9708C27.6518 31.3788 27.6518 27.1548 23.6185 24.5788C19.0518 21.6508 11.5352 21.6508 6.93516 24.5788Z" stroke="#363A44" stroke-width="1.5" stroke-linecap="round" stroke-linejoin="round"/>
<path d="M30.5664 33.2826C31.7664 33.0426 32.8997 32.5786 33.8331 31.8906C36.4331 30.0186 36.4331 26.9306 33.8331 25.0586C32.9164 24.3866 31.7997 23.9386 30.6164 23.6826" stroke="#363A44" stroke-width="1.5" stroke-linecap="round" stroke-linejoin="round"/>
</svg>
