<svg width="80" height="81" viewBox="0 0 80 81" fill="none" xmlns="http://www.w3.org/2000/svg">
<mask id="path-1-inside-1_1476_5661" fill="white">
<path d="M0 40.5C0 18.4086 17.9086 0.5 40 0.5C62.0914 0.5 80 18.4086 80 40.5C80 62.5914 62.0914 80.5 40 80.5C17.9086 80.5 0 62.5914 0 40.5Z"/>
</mask>
<path d="M-1 40.5C-1 17.8563 17.3563 -0.5 40 -0.5C62.6437 -0.5 81 17.8563 81 40.5H79C79 18.9609 61.5391 1.5 40 1.5C18.4609 1.5 1 18.9609 1 40.5H-1ZM81 45.5C81 68.1437 62.6437 86.5 40 86.5C17.3563 86.5 -1 68.1437 -1 45.5L1 40.5C1 59.2777 18.4609 74.5 40 74.5C61.5391 74.5 79 59.2777 79 40.5L81 45.5ZM40 86.5C17.3563 86.5 -1 68.1437 -1 45.5V40.5C-1 17.8563 17.3563 -0.5 40 -0.5V1.5C18.4609 1.5 1 18.9609 1 40.5C1 59.2777 18.4609 74.5 40 74.5V86.5ZM40 -0.5C62.6437 -0.5 81 17.8563 81 40.5V45.5C81 68.1437 62.6437 86.5 40 86.5V74.5C61.5391 74.5 79 59.2777 79 40.5C79 18.9609 61.5391 1.5 40 1.5V-0.5Z" fill="#93BBFD" mask="url(#path-1-inside-1_1476_5661)"/>
<path fill-rule="evenodd" clip-rule="evenodd" d="M37.6296 42.1708L35.3989 48.4186L32.965 45.4866L29.1719 45.8434L31.976 39.9008C32.8023 40.2593 33.719 40.3352 34.708 40.1681C35.3222 40.0642 35.8775 40.2936 36.2343 40.8007C36.6407 41.3697 37.1013 41.8308 37.6296 42.1708ZM42.4884 42.1519L44.7236 48.4186L47.1575 45.4866L50.9552 45.8434L48.1419 39.8877C47.3065 40.2575 46.3808 40.337 45.3828 40.1676C44.7687 40.0638 44.2133 40.2936 43.8521 40.8007C43.4547 41.3593 43.0032 41.8141 42.4884 42.1518V42.1519Z" fill="#8B5CF6"/>
<path fill-rule="evenodd" clip-rule="evenodd" d="M40.0442 36.2156C36.3143 36.2156 33.2708 33.1743 33.2708 29.4453C33.2708 25.7163 36.3143 22.6751 40.0442 22.6751C43.774 22.6751 46.813 25.7163 46.813 29.4453C46.813 33.1743 43.774 36.2156 40.0442 36.2156ZM50.5294 26.8597C49.5495 26.1642 49.0889 25.0426 49.2876 23.8582C49.4727 22.7573 49.2741 21.8366 48.4612 21.0265C47.6529 20.2159 46.7317 20.0155 45.63 20.2015C44.4469 20.4025 43.3225 19.9377 42.6271 18.9583C41.9813 18.048 41.1911 17.5391 40.0442 17.5391C38.8972 17.5391 38.1024 18.0479 37.4568 18.9583C36.7613 19.9377 35.6415 20.4025 34.4585 20.2019C33.3566 20.015 32.4355 20.2164 31.6227 21.0265C30.8144 21.837 30.6157 22.7568 30.8009 23.8582C30.9996 25.0426 30.5345 26.1643 29.5546 26.8597C28.647 27.5064 28.1367 28.2993 28.1367 29.4453C28.1367 30.5913 28.647 31.3843 29.5546 32.0309C30.5345 32.7263 30.9996 33.8485 30.8009 35.0324C30.6157 36.1333 30.8144 37.0541 31.6227 37.8642C32.4355 38.6747 33.3567 38.8756 34.4585 38.6892C35.6416 38.4886 36.7614 38.9529 37.4568 39.9323C38.1025 40.8431 38.8972 41.3515 40.0442 41.3515C41.1911 41.3515 41.9813 40.8431 42.6271 39.9323C43.3225 38.9529 44.4469 38.4882 45.63 38.6892C46.7317 38.8756 47.6529 38.6742 48.4612 37.8646C49.2741 37.0541 49.4727 36.1338 49.2876 35.0324C49.0889 33.8485 49.5495 32.7263 50.5294 32.0309C51.4416 31.3842 51.9517 30.5914 51.9517 29.4453C51.9517 28.2992 51.4415 27.5064 50.5294 26.8597Z" fill="#2E3760"/>
<path fill-rule="evenodd" clip-rule="evenodd" d="M43.6931 26.2521C44.1176 26.6729 44.1176 27.362 43.6931 27.7824L38.8614 32.6168C38.324 33.1524 37.4344 33.035 37.0552 32.3789L35.4341 29.5675C35.136 29.0518 35.3122 28.3867 35.8269 28.0891C36.3417 27.792 37.01 27.9708 37.3079 28.4851L38.2652 30.1495L42.1667 26.2522C42.5867 25.8313 43.2731 25.8313 43.693 26.2522L43.6931 26.2521Z" fill="#2E3760"/>
<path fill-rule="evenodd" clip-rule="evenodd" d="M24.5983 24.4126C22.5211 27.2719 21.5593 30.8066 21.9251 34.3419C22.3135 38.1431 24.201 41.6328 27.1677 44.0409C22.5031 42.7233 18.8816 39.0489 17.6263 34.3685C16.4297 29.9112 17.5541 25.169 20.5841 21.7276L18.5385 20.3612C18.2721 20.181 18.3399 19.7678 18.6559 19.6865L26.8516 17.5583C27.1 17.4929 27.3393 17.6947 27.3167 17.9543L26.6846 25.1382C26.6575 25.4231 26.3368 25.5762 26.102 25.4168L24.5983 24.4126Z" fill="#8B5CF6"/>
<path fill-rule="evenodd" clip-rule="evenodd" d="M55.4894 24.4126C57.5711 27.2719 58.5284 30.8066 58.1672 34.3419C57.7743 38.1431 55.8913 41.6328 52.9246 44.0409C57.5847 42.7233 61.2107 39.0489 62.466 34.3685C63.6581 29.9112 62.5337 25.169 59.5083 21.7276L61.5493 20.3612C61.8203 20.181 61.748 19.7678 61.4364 19.6865L53.2406 17.5583C52.9878 17.4929 52.7484 17.6947 52.7755 17.9543L53.4077 25.1382C53.4348 25.4231 53.7509 25.5762 53.9903 25.4168L55.4894 24.4126Z" fill="#8B5CF6"/>
<path fill-rule="evenodd" clip-rule="evenodd" d="M38.0713 50.0934C34.793 50.0631 31.8443 49.8026 28.5389 49.4558C23.933 49.1351 20.2979 52.6857 17.3402 55.9166C17.006 56.2851 16.979 56.827 17.277 57.2266L21.6165 63.0472C21.9461 63.4938 22.5783 63.594 23.0344 63.2729C26.6062 60.7551 29.7445 61.105 32.77 61.0585C34.2737 61.035 35.9897 61.3276 38.5861 60.1594L52.467 53.8457C53.5552 53.3129 54.7971 52.6084 55.3163 52.193C56.1066 50.2838 54.4809 48.4708 49.7712 50.3217C47.6263 51.1644 45.1111 52.0088 43.1694 52.5696C42.7946 54.9375 39.1957 55.7652 36.4729 55.9666C34.9601 56.0782 33.4023 56.0109 32.2914 55.9626C31.9392 55.9477 31.6367 55.9346 31.438 55.9301C30.9639 55.9211 30.5891 55.5309 30.5981 55.059C30.6071 54.5876 30.9955 54.2128 31.4696 54.2218C31.7495 54.2277 32.0341 54.2404 32.3637 54.2544C33.4249 54.2999 34.9105 54.3645 36.351 54.258C37.647 54.1628 41.291 53.9677 41.1511 52.0644C41.0653 50.9038 40.1305 50.1127 38.0715 50.0933L38.0713 50.0934Z" fill="#2E3760"/>
</svg>
