<svg width="80" height="81" viewBox="0 0 80 81" fill="none" xmlns="http://www.w3.org/2000/svg">
<mask id="path-1-inside-1_1476_5708" fill="white">
<path d="M0 40.5C0 18.4086 17.9086 0.5 40 0.5C62.0914 0.5 80 18.4086 80 40.5C80 62.5914 62.0914 80.5 40 80.5C17.9086 80.5 0 62.5914 0 40.5Z"/>
</mask>
<path d="M-1 40.5C-1 17.8563 17.3563 -0.5 40 -0.5C62.6437 -0.5 81 17.8563 81 40.5H79C79 18.9609 61.5391 1.5 40 1.5C18.4609 1.5 1 18.9609 1 40.5H-1ZM81 45.5C81 68.1437 62.6437 86.5 40 86.5C17.3563 86.5 -1 68.1437 -1 45.5L1 40.5C1 59.2777 18.4609 74.5 40 74.5C61.5391 74.5 79 59.2777 79 40.5L81 45.5ZM40 86.5C17.3563 86.5 -1 68.1437 -1 45.5V40.5C-1 17.8563 17.3563 -0.5 40 -0.5V1.5C18.4609 1.5 1 18.9609 1 40.5C1 59.2777 18.4609 74.5 40 74.5V86.5ZM40 -0.5C62.6437 -0.5 81 17.8563 81 40.5V45.5C81 68.1437 62.6437 86.5 40 86.5V74.5C61.5391 74.5 79 59.2777 79 40.5C79 18.9609 61.5391 1.5 40 1.5V-0.5Z" fill="#93BBFD" mask="url(#path-1-inside-1_1476_5708)"/>
<path fill-rule="evenodd" clip-rule="evenodd" d="M45.19 54.5245C45.19 54.1609 45.4853 53.8656 45.8489 53.8656C46.2125 53.8656 46.5077 54.1609 46.5077 54.5245V59.1237H52.4678C52.8313 59.1237 53.1266 59.419 53.1266 59.7825C53.1266 60.1461 52.8313 60.4414 52.4678 60.4414H45.8489C45.485 60.4414 45.19 60.1464 45.19 59.7825V54.5245ZM46.5077 26.4765C46.5077 26.84 46.2125 27.1353 45.8489 27.1353C45.4853 27.1353 45.19 26.84 45.19 26.4765V21.2184C45.19 20.8545 45.485 20.5596 45.8489 20.5596H52.4678C52.8313 20.5596 53.1266 20.8548 53.1266 21.2184C53.1266 21.582 52.8313 21.8772 52.4678 21.8772H46.5077V26.4765ZM33.4871 54.5245C33.4871 54.1609 33.7822 53.8656 34.1459 53.8656C34.5095 53.8656 34.8047 54.1609 34.8047 54.5245V59.7825C34.8047 60.1464 34.5097 60.4414 34.1459 60.4414H27.527C27.1634 60.4414 26.8681 60.1461 26.8681 59.7825C26.8681 59.419 27.1634 59.1237 27.527 59.1237H33.4871V54.5245ZM34.8047 26.4765C34.8047 26.84 34.5095 27.1353 34.1459 27.1353C33.7822 27.1353 33.4871 26.84 33.4871 26.4765V21.8772H27.527C27.1634 21.8772 26.8681 21.582 26.8681 21.2184C26.8681 20.8548 27.1634 20.5596 27.527 20.5596H34.1459C34.5097 20.5596 34.8047 20.8545 34.8047 21.2184V26.4765ZM60.9322 51.8381C60.9322 52.2017 60.637 52.4969 60.2734 52.4969C59.9098 52.4969 59.6146 52.2017 59.6146 51.8381V47.2389H53.6546C53.2909 47.2389 52.9958 46.9437 52.9958 46.5801C52.9958 46.2164 53.2909 45.9213 53.6546 45.9213H60.2734C60.6373 45.9213 60.9322 46.2162 60.9322 46.5801V51.8381ZM20.3801 51.8381C20.3801 52.2017 20.085 52.4969 19.7213 52.4969C19.3577 52.4969 19.0625 52.2017 19.0625 51.8381V46.5801C19.0625 46.2162 19.3575 45.9213 19.7213 45.9213H26.3401C26.7038 45.9213 26.999 46.2164 26.999 46.5801C26.999 46.9437 26.7038 47.2389 26.3401 47.2389H20.3801V51.8381ZM59.6146 29.269C59.6146 28.9054 59.9098 28.6102 60.2734 28.6102C60.637 28.6102 60.9322 28.9054 60.9322 29.269V34.5271C60.9322 34.891 60.6373 35.1859 60.2734 35.1859H53.6546C53.2909 35.1859 52.9958 34.8907 52.9958 34.5271C52.9958 34.1634 53.2909 33.8683 53.6546 33.8683H59.6146V29.269ZM19.0625 29.269C19.0625 28.9054 19.3577 28.6102 19.7213 28.6102C20.085 28.6102 20.3801 28.9054 20.3801 29.269V33.8683H26.3401C26.7038 33.8683 26.999 34.1634 26.999 34.5271C26.999 34.8907 26.7038 35.1859 26.3401 35.1859H19.7213C19.3575 35.1859 19.0625 34.891 19.0625 34.5271V29.269Z" fill="#505254"/>
<path d="M52.4684 62.0951C53.7454 62.0951 54.7806 61.0599 54.7806 59.7829C54.7806 58.5059 53.7454 57.4707 52.4684 57.4707C51.1915 57.4707 50.1562 58.5059 50.1562 59.7829C50.1562 61.0599 51.1915 62.0951 52.4684 62.0951Z" fill="#9288E3"/>
<path d="M52.4684 23.5306C53.7454 23.5306 54.7806 22.4954 54.7806 21.2184C54.7806 19.9415 53.7454 18.9062 52.4684 18.9062C51.1915 18.9062 50.1562 19.9415 50.1562 21.2184C50.1562 22.4954 51.1915 23.5306 52.4684 23.5306Z" fill="#9288E3"/>
<path d="M27.527 62.0951C28.804 62.0951 29.8392 61.0599 29.8392 59.7829C29.8392 58.5059 28.804 57.4707 27.527 57.4707C26.25 57.4707 25.2148 58.5059 25.2148 59.7829C25.2148 61.0599 26.25 62.0951 27.527 62.0951Z" fill="#9288E3"/>
<path d="M27.527 23.5306C28.804 23.5306 29.8392 22.4954 29.8392 21.2184C29.8392 19.9415 28.804 18.9062 27.527 18.9062C26.25 18.9062 25.2148 19.9415 25.2148 21.2184C25.2148 22.4954 26.25 23.5306 27.527 23.5306Z" fill="#9288E3"/>
<path d="M60.2731 54.1498C61.5501 54.1498 62.5853 53.1146 62.5853 51.8376C62.5853 50.5606 61.5501 49.5254 60.2731 49.5254C58.9961 49.5254 57.9609 50.5606 57.9609 51.8376C57.9609 53.1146 58.9961 54.1498 60.2731 54.1498Z" fill="#9288E3"/>
<path d="M19.7223 54.1498C20.9993 54.1498 22.0345 53.1146 22.0345 51.8376C22.0345 50.5606 20.9993 49.5254 19.7223 49.5254C18.4454 49.5254 17.4102 50.5606 17.4102 51.8376C17.4102 53.1146 18.4454 54.1498 19.7223 54.1498Z" fill="#9288E3"/>
<path d="M60.2731 31.5814C61.5501 31.5814 62.5853 30.5462 62.5853 29.2692C62.5853 27.9922 61.5501 26.957 60.2731 26.957C58.9961 26.957 57.9609 27.9922 57.9609 29.2692C57.9609 30.5462 58.9961 31.5814 60.2731 31.5814Z" fill="#9288E3"/>
<path d="M19.7223 31.5814C20.9993 31.5814 22.0345 30.5462 22.0345 29.2692C22.0345 27.9922 20.9993 26.957 19.7223 26.957C18.4454 26.957 17.4102 27.9922 17.4102 29.2692C17.4102 30.5462 18.4454 31.5814 19.7223 31.5814Z" fill="#9288E3"/>
<path fill-rule="evenodd" clip-rule="evenodd" d="M55.0325 43.1663C51.8642 43.1663 50.2734 47.0055 52.5142 49.2463C52.9266 49.6588 52.9266 50.3296 52.5142 50.7421L50.2391 53.0171C49.8267 53.4295 49.1558 53.4295 48.7433 53.0171C46.5026 50.7763 42.6633 52.3671 42.6633 55.5354C42.6633 56.1208 42.1901 56.5921 41.6066 56.5921H38.3889C37.8054 56.5921 37.3321 56.1208 37.3321 55.5354C37.3321 52.3633 33.4948 50.7744 31.2521 53.0171C30.8396 53.4295 30.1706 53.4295 29.7582 53.0171L27.4813 50.7421C27.0689 50.3296 27.0689 49.6588 27.4813 49.2463C29.7221 47.0055 28.1332 43.1663 24.963 43.1663C24.3795 43.1663 23.9062 42.693 23.9062 42.1095V38.8918C23.9062 38.3083 24.3795 37.8351 24.963 37.8351C28.1332 37.8351 29.7221 33.9958 27.4813 31.7551C27.0689 31.3425 27.0689 30.6736 27.4813 30.2611L29.7582 27.9842C30.1706 27.5718 30.8396 27.5718 31.2521 27.9842C33.4929 30.225 37.3321 28.6361 37.3321 25.4659C37.3321 24.8824 37.8054 24.4092 38.3889 24.4092H41.6066C42.1901 24.4092 42.6633 24.8824 42.6633 25.4659C42.6633 28.6361 46.5026 30.225 48.7433 27.9842C49.1558 27.5718 49.8267 27.5718 50.2391 27.9842L52.5142 30.2611C52.9266 30.6736 52.9266 31.3425 52.5142 31.7551C50.2734 33.9958 51.8642 37.8351 55.0325 37.8351C55.6179 37.8351 56.0892 38.3083 56.0892 38.8918V42.1095C56.0892 42.693 55.6179 43.1663 55.0325 43.1663Z" fill="#6756FD"/>
<path fill-rule="evenodd" clip-rule="evenodd" d="M39.9973 48.2329C44.2547 48.2329 47.729 44.7586 47.729 40.5012C47.729 36.2419 44.2547 32.7695 39.9973 32.7695C35.738 32.7695 32.2656 36.2419 32.2656 40.5012C32.2656 44.7586 35.738 48.2329 39.9973 48.2329Z" fill="#F4F6F8"/>
<path fill-rule="evenodd" clip-rule="evenodd" d="M36.1372 40.4841C35.8643 40.2437 35.8381 39.827 36.0786 39.5542C36.3189 39.2814 36.7356 39.2551 37.0083 39.4956L39.2574 41.4777L42.9843 38.1534C43.2557 37.9113 43.6724 37.9351 43.9145 38.2065C44.1566 38.4778 44.1328 38.8947 43.8614 39.1366L39.6986 42.85C39.4498 43.0718 39.0745 43.0729 38.8244 42.8525L36.1372 40.4841Z" fill="#3ACE62"/>
</svg>
