<svg width="80" height="81" viewBox="0 0 80 81" fill="none" xmlns="http://www.w3.org/2000/svg">
<mask id="path-1-inside-1_1476_5697" fill="white">
<path d="M0 40.5C0 18.4086 17.9086 0.5 40 0.5C62.0914 0.5 80 18.4086 80 40.5C80 62.5914 62.0914 80.5 40 80.5C17.9086 80.5 0 62.5914 0 40.5Z"/>
</mask>
<path d="M-1 40.5C-1 17.8563 17.3563 -0.5 40 -0.5C62.6437 -0.5 81 17.8563 81 40.5H79C79 18.9609 61.5391 1.5 40 1.5C18.4609 1.5 1 18.9609 1 40.5H-1ZM81 45.5C81 68.1437 62.6437 86.5 40 86.5C17.3563 86.5 -1 68.1437 -1 45.5L1 40.5C1 59.2777 18.4609 74.5 40 74.5C61.5391 74.5 79 59.2777 79 40.5L81 45.5ZM40 86.5C17.3563 86.5 -1 68.1437 -1 45.5V40.5C-1 17.8563 17.3563 -0.5 40 -0.5V1.5C18.4609 1.5 1 18.9609 1 40.5C1 59.2777 18.4609 74.5 40 74.5V86.5ZM40 -0.5C62.6437 -0.5 81 17.8563 81 40.5V45.5C81 68.1437 62.6437 86.5 40 86.5V74.5C61.5391 74.5 79 59.2777 79 40.5C79 18.9609 61.5391 1.5 40 1.5V-0.5Z" fill="#93BBFD" mask="url(#path-1-inside-1_1476_5697)"/>
<path d="M58.7062 19.9014H21.2955C20.6028 19.9014 19.9384 20.1765 19.4486 20.6664C18.9588 21.1562 18.6836 21.8205 18.6836 22.5132V48.8709H61.3181V22.5132C61.3181 21.8205 61.0429 21.1562 60.5531 20.6664C60.0633 20.1765 59.3989 19.9014 58.7062 19.9014Z" fill="#BFD7FE"/>
<path d="M36.5008 51.4824L34.6172 57.3482H45.3842L43.5006 51.4824H36.5008Z" fill="#5C64A0"/>
<path d="M46.1832 57.3486H33.8164C33.3191 57.3486 32.8422 57.5462 32.4906 57.8978C32.139 58.2494 31.9414 58.7264 31.9414 59.2236C31.9414 59.7209 32.139 60.1978 32.4906 60.5495C32.8422 60.9011 33.3191 61.0986 33.8164 61.0986H46.1832C46.6804 61.0986 47.1574 60.9011 47.509 60.5495C47.8606 60.1978 48.0582 59.7209 48.0582 59.2236C48.0582 58.7264 47.8606 58.2494 47.509 57.8978C47.1574 57.5462 46.6804 57.3486 46.1832 57.3486Z" fill="#172E54"/>
<path d="M47.8616 26.0483L40.7831 22.5927C40.5399 22.4739 40.2729 22.4121 40.0023 22.4121C39.7317 22.4121 39.4647 22.4739 39.2216 22.5927L32.1431 26.0483C31.826 26.2031 31.5588 26.4438 31.3719 26.743C31.185 27.0422 31.0859 27.3879 31.0859 27.7407V35.6254C31.0857 36.2115 31.2378 36.7876 31.5273 37.2972C32.5949 39.1782 35.5661 43.6287 40.0023 44.1165C44.4397 43.629 47.4108 39.1782 48.4773 37.2972C48.7669 36.7876 48.919 36.2115 48.9187 35.6254V27.7407C48.9187 27.3879 48.8196 27.0422 48.6327 26.743C48.4458 26.4438 48.1786 26.2031 47.8616 26.0483Z" fill="#F1B74D"/>
<path d="M45.6402 28.0877L40.5604 25.606C40.3859 25.5208 40.1943 25.4766 40.0002 25.4766C39.806 25.4766 39.6144 25.5208 39.4399 25.606L34.3602 28.0877C34.1325 28.1986 33.9407 28.3714 33.8065 28.5861C33.6724 28.8009 33.6014 29.0491 33.6016 29.3023V34.9581C33.6011 35.3787 33.7099 35.7922 33.9173 36.1581C34.6838 37.5081 36.8157 40.7016 40.0002 41.0518C43.1847 40.7016 45.3166 37.5081 46.0831 36.1581C46.2905 35.7922 46.3993 35.3787 46.3988 34.9581V29.3005C46.3987 29.0475 46.3275 28.7998 46.1933 28.5853C46.0592 28.3709 45.8675 28.1985 45.6402 28.0877Z" fill="#F9DD97"/>
<path d="M43.2001 29.943L38.741 35.1214L36.8221 32.6561C36.7692 32.5881 36.7034 32.5312 36.6285 32.4887C36.5536 32.4461 36.4711 32.4187 36.3856 32.4081C36.3001 32.3974 36.2134 32.4037 36.1303 32.4266C36.0472 32.4494 35.9695 32.4884 35.9015 32.5414C35.8335 32.5943 35.7766 32.6601 35.7341 32.735C35.6915 32.8099 35.6641 32.8924 35.6535 32.9779C35.6428 33.0634 35.6491 33.1501 35.672 33.2332C35.6948 33.3163 35.7339 33.394 35.7868 33.462L38.1973 36.5599C38.257 36.6365 38.333 36.6989 38.4198 36.7426C38.5065 36.7863 38.6019 36.8102 38.699 36.8126H38.7151C38.8097 36.8128 38.9032 36.7925 38.9892 36.7532C39.0752 36.7139 39.1517 36.6566 39.2135 36.585L44.195 30.7995C44.3086 30.6676 44.3651 30.4959 44.3521 30.3223C44.3392 30.1487 44.2578 29.9874 44.1258 29.8738C43.9939 29.7602 43.8223 29.7037 43.6487 29.7167C43.4751 29.7296 43.3137 29.8111 43.2001 29.943Z" fill="#24262D"/>
<path d="M18.6836 48.8714C18.6836 49.2144 18.7512 49.554 18.8824 49.8708C19.0137 50.1877 19.2061 50.4756 19.4486 50.7181C19.6912 50.9606 19.9791 51.153 20.296 51.2842C20.6129 51.4154 20.9525 51.4829 21.2955 51.4829H58.7062C59.0492 51.4829 59.3888 51.4154 59.7057 51.2842C60.0226 51.153 60.3105 50.9606 60.5531 50.7181C60.7956 50.4756 60.988 50.1877 61.1193 49.8708C61.2505 49.554 61.3181 49.2144 61.3181 48.8714V46.4736H18.6836V48.8714Z" fill="#172E54"/>
</svg>
