<svg width="80" height="81" viewBox="0 0 80 81" fill="none" xmlns="http://www.w3.org/2000/svg">
<mask id="path-1-inside-1_1476_5684" fill="white">
<path d="M0 40.5C0 18.4086 17.9086 0.5 40 0.5C62.0914 0.5 80 18.4086 80 40.5C80 62.5914 62.0914 80.5 40 80.5C17.9086 80.5 0 62.5914 0 40.5Z"/>
</mask>
<path d="M-1 40.5C-1 17.8563 17.3563 -0.5 40 -0.5C62.6437 -0.5 81 17.8563 81 40.5H79C79 18.9609 61.5391 1.5 40 1.5C18.4609 1.5 1 18.9609 1 40.5H-1ZM81 45.5C81 68.1437 62.6437 86.5 40 86.5C17.3563 86.5 -1 68.1437 -1 45.5L1 40.5C1 59.2777 18.4609 74.5 40 74.5C61.5391 74.5 79 59.2777 79 40.5L81 45.5ZM40 86.5C17.3563 86.5 -1 68.1437 -1 45.5V40.5C-1 17.8563 17.3563 -0.5 40 -0.5V1.5C18.4609 1.5 1 18.9609 1 40.5C1 59.2777 18.4609 74.5 40 74.5V86.5ZM40 -0.5C62.6437 -0.5 81 17.8563 81 40.5V45.5C81 68.1437 62.6437 86.5 40 86.5V74.5C61.5391 74.5 79 59.2777 79 40.5C79 18.9609 61.5391 1.5 40 1.5V-0.5Z" fill="#93BBFD" mask="url(#path-1-inside-1_1476_5684)"/>
<path d="M42.9485 26.8099C41.665 21.8936 37.2004 18.3565 31.9918 18.3565C26.7831 18.3565 22.3212 21.8936 21.0376 26.8099H19.8789C21.1864 21.2638 26.1612 17.2324 31.9917 17.2324C37.8222 17.2324 42.7997 21.2638 44.1072 26.81L42.9485 26.8099Z" fill="#24262D"/>
<path fill-rule="evenodd" clip-rule="evenodd" d="M47.0467 46.3451C46.866 41.3783 42.5396 38.3009 37.222 37.1104C34.0756 39.3241 29.882 39.3054 26.7648 37.1104C21.4473 38.2983 17.1209 41.3756 16.9375 46.3451V53.3848H20.4852V52.0189C20.4852 50.993 21.3197 50.1586 22.3455 50.1586H22.5315C22.6697 49.7546 22.8345 49.3587 23.0231 48.976L22.8902 48.8458C22.1647 48.1203 22.1647 46.9404 22.8902 46.2149L24.8223 44.2829C25.5478 43.5574 26.7276 43.5574 27.4532 44.2829L27.586 44.4131C27.9687 44.2271 28.362 44.0623 28.7659 43.9241V43.7381C28.7659 42.7123 29.6004 41.8778 30.6262 41.8778H33.3581C34.3839 41.8778 35.2184 42.7123 35.2184 43.7381V43.9241C35.6223 44.0623 36.0182 44.2244 36.4009 44.4131L36.5338 44.2829C37.2593 43.5574 38.4392 43.5574 39.1647 44.2829L41.0967 46.2149C41.8222 46.9404 41.8222 48.1203 41.0967 48.8458L40.9638 48.976C41.1526 49.3587 41.3147 49.7547 41.4528 50.1586H41.6388C42.6647 50.1586 43.4991 50.993 43.4991 52.0189V53.3848H47.0468L47.0467 46.3451Z" fill="#8B5CF6"/>
<path fill-rule="evenodd" clip-rule="evenodd" d="M31.9904 21.7188C27.595 21.7188 24.0312 25.2824 24.0312 29.6806C24.0312 34.0788 27.595 37.6397 31.9904 37.6397C34.701 37.6397 37.0955 36.2843 38.5332 34.2168H36.5507C35.6179 34.2168 34.8632 33.4594 34.8632 32.5293C34.8632 31.5993 35.6179 30.8418 36.5507 30.8418H39.8672C40.5688 26.0372 36.8536 21.7188 31.9904 21.7188Z" fill="#8B5CF6"/>
<path fill-rule="evenodd" clip-rule="evenodd" d="M19.3026 33.0892H21.1868C21.628 33.0892 21.9894 32.7278 21.9894 32.2866V28.7388C21.9894 28.295 21.628 27.9336 21.1868 27.9336H19.3026C18.8614 27.9336 18.5 28.295 18.5 28.7388V32.2866C18.5 32.7277 18.8614 33.0892 19.3026 33.0892ZM42.7948 33.0892H44.6789C45.1201 33.0892 45.4815 32.7278 45.4815 32.2866V28.7388C45.4815 28.295 45.1201 27.9336 44.6789 27.9336H42.7948C42.3536 27.9336 41.9922 28.295 41.9922 28.7388V32.2866C41.9922 32.7277 42.3536 33.0892 42.7948 33.0892Z" fill="#24262D"/>
<path d="M41.0454 33.0899H36.5516C36.2407 33.0899 35.9883 32.84 35.9883 32.5292C35.9883 32.2183 36.2408 31.9658 36.5516 31.9658H40.87C40.87 32.3963 40.8541 32.678 41.0454 33.0899Z" fill="#24262D"/>
<path fill-rule="evenodd" clip-rule="evenodd" d="M40.6076 51.2826H41.6361C42.0427 51.2826 42.3722 51.6121 42.3722 52.0187V54.7506C42.3722 55.1546 42.0427 55.4867 41.6361 55.4867H40.6076C40.3898 56.3823 40.0363 57.2248 39.5686 57.9928L40.2968 58.7209C40.5837 59.0053 40.5837 59.473 40.2968 59.76L38.3648 61.692C38.0778 61.9789 37.6127 61.9789 37.3257 61.692L36.5976 60.9638C35.8322 61.4315 34.9871 61.785 34.0915 62.0028V63.0313C34.0915 63.4352 33.762 63.7674 33.3554 63.7674H30.6235C30.2196 63.7674 29.8874 63.4352 29.8874 63.0313V62.0028C28.9918 61.785 28.1494 61.4315 27.3841 60.9638L26.6559 61.692C26.369 61.9789 25.9013 61.9789 25.6142 61.692L23.6822 59.76C23.3978 59.4729 23.3978 59.0053 23.6822 58.7209L24.4103 57.9928C23.9453 57.2248 23.5892 56.3823 23.3713 55.4867H22.3429C21.9389 55.4867 21.6094 55.1546 21.6094 54.7506V52.0187C21.6094 51.6121 21.9389 51.2826 22.3429 51.2826H23.3713C23.5892 50.387 23.9453 49.5446 24.4103 48.7766L23.6822 48.0484C23.3978 47.7641 23.3978 47.2964 23.6822 47.0094L25.6142 45.0774C25.9012 44.7904 26.3689 44.7904 26.6559 45.0774L27.3841 45.8055C28.1495 45.3378 28.9919 44.9844 29.8874 44.7665V43.7381C29.8874 43.3341 30.2196 43.002 30.6235 43.002H33.3554C33.762 43.002 34.0915 43.3341 34.0915 43.7381V44.7665C34.9871 44.9844 35.8322 45.3378 36.5976 45.8055L37.3257 45.0774C37.6127 44.7904 38.0778 44.7904 38.3648 45.0774L40.2968 47.0094C40.5837 47.2965 40.5837 47.7641 40.2968 48.0484L39.5686 48.7766C40.0363 49.5446 40.3898 50.387 40.6076 51.2826ZM39.1248 53.3847C39.1248 57.3257 35.9305 60.52 31.9895 60.52C28.0484 60.52 24.8542 57.3257 24.8542 53.3847C24.8542 49.4436 28.0511 46.2494 31.9895 46.2494C35.9278 46.2494 39.1248 49.4437 39.1248 53.3847Z" fill="#8B5CF6"/>
<path fill-rule="evenodd" clip-rule="evenodd" d="M37.9999 53.3842C37.9999 57.5007 33.9711 60.36 30.1177 59.0978L31.5103 57.7026C31.6379 57.5777 31.7681 57.5272 31.9461 57.5325C33.1314 57.5751 34.2714 57.126 35.1112 56.2889C36.5596 54.8379 36.8758 52.1777 35.3743 50.6762L32.9507 53.0971L32.4192 52.9563L32.2757 52.4221C33.0835 51.6143 33.8887 50.8064 34.6967 50.0012C33.8064 49.1084 32.382 48.8505 31.1809 49.1136C29.1877 49.5548 27.7686 51.3672 27.8404 53.4267C27.8483 53.6073 27.7978 53.7349 27.6703 53.8625L26.2777 55.2551C25.0154 51.4044 27.8749 47.373 31.9887 47.373C35.3079 47.373 38 50.0651 38 53.3843L37.9999 53.3842Z" fill="#8B5CF6"/>
<path fill-rule="evenodd" clip-rule="evenodd" d="M29.0165 58.6096L30.7173 56.9088C31.0654 56.5607 31.4959 56.3905 31.9876 56.4092C32.8274 56.4384 33.6751 56.1328 34.3182 55.4923C35.1261 54.6817 35.4024 53.539 35.1394 52.5026L33.2898 54.3549L31.5013 53.8739L31.023 52.0854L32.8726 50.2358C31.8362 49.9754 30.6935 50.2491 29.8829 51.0596C29.2425 51.7001 28.9369 52.5478 28.966 53.3876C28.9846 53.8792 28.8145 54.3097 28.4664 54.6579L26.7656 56.3587C27.3024 57.2968 28.081 58.0755 29.0165 58.6097V58.6096Z" fill="#24262D"/>
<path fill-rule="evenodd" clip-rule="evenodd" d="M60.7682 20.044C63.827 23.1027 63.827 28.0616 60.7682 31.1204C58.1267 33.7619 54.0688 34.1233 51.0392 32.202L47.7227 33.0896L48.6104 29.7731C46.6917 26.7436 47.0505 22.6856 49.692 20.0441C52.7507 16.9853 57.7096 16.9853 60.7683 20.0441L60.7682 20.044ZM59.2561 27.7374C59.5671 27.7374 59.8196 27.9872 59.8196 28.2981C59.8196 28.609 59.5671 28.8616 59.2561 28.8616H51.204C50.893 28.8616 50.6406 28.6091 50.6406 28.2981C50.6406 27.9871 50.8931 27.7374 51.204 27.7374H59.2561ZM59.2561 25.0215C59.5671 25.0215 59.8196 25.2713 59.8196 25.5822C59.8196 25.8931 59.5671 26.1456 59.2561 26.1456H51.204C50.893 26.1456 50.6406 25.8931 50.6406 25.5822C50.6406 25.2712 50.8931 25.0215 51.204 25.0215H59.2561ZM59.2561 22.3028C59.5671 22.3028 59.8196 22.5553 59.8196 22.8662C59.8196 23.1772 59.5671 23.4297 59.2561 23.4297H51.204C50.893 23.4297 50.6406 23.1772 50.6406 22.8662C50.6406 22.5553 50.8931 22.3028 51.204 22.3028H59.2561Z" fill="#24262D"/>
</svg>
