<svg width="48" height="49" viewBox="0 0 48 49" fill="none" xmlns="http://www.w3.org/2000/svg">
<path d="M27.7742 35.9444V40.6576H31.2954C31.6668 40.6576 31.9689 40.9587 31.9689 41.3311C31.9689 41.7025 31.6668 42.0046 31.2954 42.0046H12.5136C12.1412 42.0046 11.8391 41.7025 11.8391 41.3311C11.8391 40.9588 12.1412 40.6576 12.5136 40.6576H16.0338V35.9444H0.720375C0.349031 35.9444 0.046875 35.6433 0.046875 35.2709V7.66959C0.046875 7.29722 0.348938 6.99609 0.720375 6.99609H43.0906C43.4619 6.99609 43.7641 7.29722 43.7641 7.66959V21.8662C43.3263 21.6698 42.8751 21.5083 42.4162 21.3822V8.34309H1.39472V31.1743H30.5363C30.5708 31.6265 30.6383 32.0767 30.7392 32.5222C30.899 33.2322 31.1433 33.9297 31.4733 34.5974C31.7022 35.0621 31.9726 35.5133 32.2862 35.9443H27.7742V35.9444ZM45.0965 36.5918C41.7042 39.454 36.6138 39.0231 33.7487 35.6298C33.5582 35.4037 33.3821 35.1709 33.2205 34.9303C33.209 34.9102 33.1955 34.8899 33.1811 34.8716C30.9635 31.5158 31.562 26.9392 34.7098 24.28C38.1051 21.4178 43.1963 21.8498 46.0605 25.2441C48.9218 28.6383 48.4897 33.7286 45.0965 36.5918ZM44.0642 27.0769C43.7775 26.8383 43.3533 26.8767 43.1156 27.1634L38.8978 32.2288L36.6917 29.6119C36.4522 29.3271 36.0269 29.2906 35.7421 29.5311C35.4583 29.7707 35.4217 30.1958 35.6613 30.4797L38.3858 33.7114C38.5138 33.8634 38.7023 33.9509 38.9016 33.9509H38.9035C39.1027 33.9509 39.2912 33.8615 39.4192 33.7085L44.1506 28.0254C44.3885 27.7388 44.3499 27.3144 44.0642 27.0769ZM8.24681 16.31C7.98375 16.0469 7.55719 16.0469 7.29413 16.31L4.3215 19.2826C4.05844 19.5457 4.05844 19.9722 4.3215 20.2353L7.29413 23.2079C7.42566 23.3394 7.59806 23.4052 7.77047 23.4052C7.94288 23.4052 8.11528 23.3394 8.24681 23.2079C8.50988 22.9448 8.50988 22.5183 8.24681 22.2552L5.75044 19.7589L8.24681 17.2627C8.50988 16.9996 8.50988 16.573 8.24681 16.31ZM14.7393 23.2078C14.8708 23.3393 15.0432 23.4052 15.2156 23.4052C15.388 23.4052 15.5604 23.3393 15.692 23.2078L18.6646 20.2352C18.9277 19.9721 18.9277 19.5456 18.6646 19.2825L15.692 16.3099C15.4289 16.0468 15.0023 16.0468 14.7393 16.3099C14.4762 16.5729 14.4762 16.9995 14.7393 17.2626L17.2357 19.7588L14.7393 22.2551C14.4762 22.5182 14.4762 22.9447 14.7393 23.2078ZM12.3204 16.245L9.435 22.7247C9.28369 23.0647 9.4365 23.4628 9.77644 23.6142C9.86541 23.6539 9.95841 23.6725 10.05 23.6725C10.3079 23.6725 10.5541 23.5237 10.6657 23.2728L13.5512 16.7931C13.7024 16.4531 13.5497 16.055 13.2098 15.9036C12.87 15.7524 12.4718 15.9051 12.3204 16.245ZM36.4167 14.3017C36.0446 14.3017 35.743 14.6033 35.743 14.9754C35.743 15.3475 36.0446 15.6491 36.4167 15.6491H39.0103C39.3824 15.6491 39.684 15.3475 39.684 14.9754C39.684 14.6033 39.3824 14.3017 39.0103 14.3017H36.4167ZM22.7781 15.649H33.4794C33.8515 15.649 34.1531 15.3474 34.1531 14.9753C34.1531 14.6032 33.8515 14.3017 33.4794 14.3017H22.7781C22.406 14.3017 22.1044 14.6032 22.1044 14.9753C22.1045 15.3474 22.4061 15.649 22.7781 15.649ZM22.7781 20.4325H25.3717C25.7438 20.4325 26.0453 20.1309 26.0453 19.7588C26.0453 19.3867 25.7438 19.0852 25.3717 19.0852H22.7781C22.406 19.0852 22.1044 19.3867 22.1044 19.7588C22.1044 20.1309 22.4061 20.4325 22.7781 20.4325ZM28.2488 20.4325H34.2758C34.6479 20.4325 34.9495 20.1309 34.9495 19.7588C34.9495 19.3867 34.6479 19.0852 34.2758 19.0852H28.2488C27.8768 19.0852 27.5752 19.3867 27.5752 19.7588C27.5752 20.1309 27.8768 20.4325 28.2488 20.4325ZM22.7781 25.216H27.0407C27.4128 25.216 27.7144 24.9144 27.7144 24.5423C27.7144 24.1702 27.4128 23.8687 27.0407 23.8687H22.7781C22.406 23.8687 22.1044 24.1702 22.1044 24.5423C22.1044 24.9144 22.4061 25.216 22.7781 25.216Z" fill="#2570EB"/>
</svg>
