<svg width="46" height="45" viewBox="0 0 46 45" fill="none" xmlns="http://www.w3.org/2000/svg">
<path d="M14.3112 5.52755C14.0807 5.44027 13.8478 5.41604 13.6277 5.39876C12.978 5.34963 12.2205 5.30857 11.4213 5.35905C11.1925 4.6864 10.965 4.01353 10.7372 3.34065L10.6486 3.07859C10.5779 2.86971 10.3899 2.31462 9.8622 2.19032C9.56716 2.1192 9.24048 2.21254 8.9847 2.44498C8.80925 2.60967 8.7011 2.8098 8.61158 2.9884C8.24429 3.73868 7.99973 4.53406 7.88239 5.3586C7.61001 5.36107 7.33269 5.35501 7.05448 5.35097C6.62504 5.34469 6.1956 5.33863 5.79129 5.34896C5.59587 5.35299 5.35266 5.35815 5.10855 5.44027C4.77536 5.54887 4.52183 5.77817 4.4157 6.06311C4.31025 6.3337 4.33583 6.65522 4.48503 6.94308C4.59542 7.15892 4.75001 7.32001 4.89899 7.46653C5.44801 8.0059 6.05874 8.47797 6.71905 8.87353C6.39125 9.53429 6.14602 10.2388 5.98784 10.9756C5.94611 11.1787 5.90729 11.3968 5.93287 11.6341C5.9672 11.9521 6.11573 12.2321 6.3383 12.401C6.59049 12.5944 6.93332 12.6566 7.27256 12.5706C7.52363 12.511 7.72623 12.3909 7.92816 12.263C8.48751 11.9099 9.07624 11.5276 9.65242 11.0562C10.14 11.4394 10.6289 11.8213 11.1175 12.2031C11.3248 12.3653 11.7148 12.6705 12.1792 12.6705C12.2854 12.6705 12.3951 12.6546 12.5075 12.6175C12.9293 12.4777 13.2369 12.0483 13.2726 11.5525C13.3024 11.1749 13.1862 10.8237 13.0935 10.543C12.982 10.202 12.8633 9.88003 12.7444 9.55785C12.6731 9.36399 12.6013 9.17014 12.5315 8.97158L14.0774 7.97875C14.3255 7.81923 14.6069 7.63861 14.8202 7.35143C14.8205 7.35098 14.8209 7.35053 14.8214 7.35008C15.1041 6.96619 15.1676 6.49255 14.9867 6.1136C14.8597 5.84817 14.6179 5.63928 14.3112 5.52755ZM14.0823 6.80375C13.969 6.95609 13.7716 7.08286 13.5808 7.20536L11.7323 8.39249C11.5557 8.50557 11.4781 8.72387 11.5438 8.92311C11.6524 9.25271 11.7673 9.56435 11.8822 9.876C11.9973 10.1874 12.1121 10.4988 12.2205 10.83C12.2948 11.0548 12.3717 11.2873 12.356 11.4831C12.3466 11.6157 12.2773 11.7257 12.2192 11.745C12.0778 11.7919 11.7819 11.5563 11.6836 11.4791C11.0969 11.0207 10.5102 10.5621 9.92547 10.1017C9.84201 10.036 9.74149 10.0032 9.6412 10.0032C9.53238 10.0032 9.42379 10.0418 9.33718 10.1183C8.7204 10.6626 8.06054 11.0925 7.4368 11.4865C7.29769 11.5747 7.17339 11.6496 7.0547 11.6779C6.97774 11.6974 6.91672 11.6862 6.89563 11.6703C6.88396 11.6613 6.85502 11.6151 6.84649 11.5359C6.83527 11.4304 6.85973 11.2985 6.8871 11.165C7.05807 10.3696 7.34279 9.61416 7.73408 8.91952C7.79466 8.81183 7.80925 8.68439 7.77492 8.56592C7.74037 8.44746 7.65982 8.34761 7.551 8.28928C6.81396 7.89327 6.13839 7.39585 5.54315 6.81115C5.4442 6.71355 5.35109 6.61842 5.30195 6.52239C5.26852 6.45755 5.2683 6.40796 5.27435 6.39069C5.27839 6.37969 5.31564 6.33953 5.39753 6.31283C5.51263 6.27402 5.67081 6.27065 5.81351 6.26774C6.20682 6.25629 6.62369 6.26347 7.04034 6.26975C7.47023 6.27649 7.89967 6.28322 8.3051 6.27155C8.53799 6.26504 8.72915 6.08533 8.75001 5.85333C8.8272 4.99378 9.05829 4.16587 9.43501 3.39652C9.49177 3.28321 9.54809 3.17664 9.60867 3.11987C9.62572 3.10417 9.64254 3.09452 9.64367 3.08712C9.66543 3.11045 9.7121 3.17866 9.77806 3.37318L9.86669 3.63524C10.1328 4.42142 10.3987 5.2076 10.6663 5.99378C10.7352 6.19549 10.9327 6.3245 11.1462 6.30296C12.0112 6.2186 12.8505 6.26145 13.5568 6.31508C13.722 6.32809 13.8683 6.34245 13.991 6.38889C14.0722 6.41851 14.1359 6.46495 14.1575 6.51005C14.1891 6.57601 14.1568 6.70211 14.0823 6.80375Z" fill="#2570EB"/>
<path d="M27.5457 5.52742C27.3155 5.44014 27.0826 5.41591 26.8623 5.39863C26.2132 5.34972 25.456 5.30934 24.6559 5.35892C24.3974 4.59899 24.1403 3.83884 23.8832 3.07846C23.8125 2.86958 23.6245 2.31427 23.0968 2.19019C22.8013 2.11952 22.4755 2.21196 22.219 2.44485C22.0429 2.61021 21.935 2.81034 21.8462 2.98827C21.4789 3.73787 21.2343 4.53348 21.117 5.35847C20.8462 5.36161 20.5675 5.35511 20.289 5.35085C19.8592 5.34456 19.4293 5.3385 19.0256 5.34883C18.8304 5.35286 18.5875 5.35803 18.3429 5.44037C18.0097 5.54874 17.7564 5.77826 17.6505 6.06254C17.5446 6.33312 17.57 6.65486 17.7194 6.94295C17.8295 7.15834 17.9844 7.31966 18.1336 7.4664C18.6824 8.00577 19.2931 8.47762 19.9534 8.87317C19.6258 9.53393 19.3808 10.2382 19.2226 10.975C19.1807 11.1772 19.1416 11.3948 19.1672 11.634C19.2015 11.9522 19.3503 12.2324 19.5726 12.4007C19.8246 12.5941 20.1672 12.656 20.5071 12.5705C20.7584 12.5108 20.9608 12.3908 21.1627 12.2629C21.7225 11.9093 22.3115 11.5268 22.8868 11.056C23.3745 11.4393 23.8632 11.8211 24.3521 12.203C24.5596 12.3654 24.9496 12.6704 25.414 12.6704C25.5199 12.6704 25.6299 12.6544 25.7423 12.6174C26.1641 12.4774 26.4715 12.0482 26.5071 11.5521C26.537 11.1732 26.4205 10.8227 26.3279 10.5429C26.2164 10.2012 26.0974 9.87878 25.9783 9.55592C25.907 9.36252 25.8356 9.16934 25.7661 8.97122L27.3115 7.97885C27.5473 7.8274 27.8408 7.63893 28.0546 7.3513C28.0548 7.35107 28.0553 7.35062 28.0555 7.35017C28.3384 6.96673 28.4021 6.49309 28.2211 6.11302C28.0936 5.84782 27.852 5.63893 27.5457 5.52742Z" fill="#2570EB"/>
<path d="M40.7762 5.52737C40.546 5.44009 40.3129 5.41586 40.0926 5.39858C39.4435 5.34967 38.6876 5.30929 37.8864 5.35887L37.1134 3.07886C37.043 2.86975 36.8554 2.31444 36.327 2.19014C36.032 2.11947 35.7058 2.21236 35.4495 2.4448C35.2741 2.60949 35.1659 2.80962 35.0764 2.98822C34.7091 3.7385 34.4646 4.53388 34.3472 5.35842C34.0742 5.36089 33.7975 5.35483 33.5193 5.35079C33.0903 5.34451 32.6602 5.33845 32.2561 5.34878C32.0609 5.35281 31.818 5.35797 31.5734 5.44009C31.2402 5.54869 30.9867 5.77799 30.8805 6.06293C30.7751 6.33352 30.8007 6.65504 30.9499 6.9429C31.0603 7.15874 31.2149 7.31983 31.3638 7.46635C31.9131 8.00595 32.5238 8.47779 33.1839 8.87335C32.8561 9.53411 32.6109 10.2386 32.4527 10.9754C32.411 11.1785 32.3721 11.3966 32.3977 11.634C32.432 11.9521 32.5808 12.2323 32.8031 12.4006C33.0547 12.5938 33.3964 12.6557 33.7374 12.5705C33.988 12.511 34.1909 12.391 34.3932 12.2629C34.9526 11.9095 35.5415 11.5272 36.1173 11.056C36.6048 11.4392 37.0937 11.8211 37.5824 12.2029C37.7897 12.3652 38.1796 12.6703 38.6441 12.6703C38.7502 12.6703 38.8599 12.6544 38.9723 12.6174C39.3939 12.4776 39.7015 12.0484 39.7376 11.5521C39.7673 11.1744 39.651 10.8233 39.5584 10.5429C39.4469 10.2018 39.3282 9.87986 39.2093 9.55767C39.1379 9.36381 39.0661 9.16996 38.9963 8.9714L40.5422 7.97857C40.7904 7.81905 41.0717 7.63843 41.2851 7.35125C41.2853 7.3508 41.2858 7.35035 41.2862 7.3499C41.5689 6.96601 41.6324 6.49237 41.4516 6.11342C41.3246 5.84799 41.0827 5.63911 40.7762 5.52737ZM40.5472 6.80357C40.4338 6.95591 40.2364 7.08268 40.0457 7.20518L38.1971 8.39231C38.0206 8.50539 37.9429 8.72369 38.0087 8.92293C38.1173 9.25253 38.2321 9.56417 38.347 9.87582C38.4621 10.1872 38.577 10.4987 38.6854 10.8298C38.7596 11.0546 38.8366 11.2871 38.8211 11.4827C38.8115 11.6156 38.7421 11.7255 38.684 11.7448C38.5424 11.7917 38.2467 11.5561 38.1485 11.4789C37.5617 11.0205 36.975 10.5619 36.3903 10.1015C36.3069 10.0358 36.2063 10.003 36.106 10.003C35.9972 10.003 35.8886 10.0416 35.802 10.1181C35.1857 10.6622 34.5256 11.0921 33.9021 11.4861C33.7628 11.5743 33.638 11.6497 33.5195 11.6777C33.4424 11.6979 33.3813 11.6862 33.3605 11.6699C33.3486 11.6609 33.3199 11.6147 33.3113 11.5357C33.3001 11.4302 33.3246 11.2983 33.3519 11.1648C33.5229 10.3694 33.8076 9.61398 34.1989 8.91934C34.2595 8.81165 34.2741 8.68421 34.2398 8.56574C34.2052 8.44728 34.1247 8.34743 34.0158 8.2891C33.2792 7.89331 32.6037 7.39589 32.008 6.81097C31.909 6.71337 31.8159 6.61824 31.7668 6.52221C31.7334 6.45737 31.7331 6.40778 31.7392 6.39051C31.7432 6.37952 31.7805 6.33935 31.8624 6.31265C31.9694 6.27653 32.1009 6.27137 32.2783 6.26756C32.6719 6.25611 33.0888 6.26329 33.5052 6.26958C33.9348 6.27631 34.3643 6.28304 34.7699 6.27137C35.0028 6.26486 35.194 6.08515 35.2149 5.85315C35.292 4.9936 35.5231 4.16569 35.8998 3.39634C35.9566 3.28303 36.0129 3.17646 36.0731 3.11992C36.0906 3.10399 36.1074 3.09434 36.1085 3.08694C36.1305 3.11005 36.1772 3.17825 36.2429 3.373L37.1312 5.9936C37.1998 6.19531 37.3991 6.32432 37.6111 6.30278C38.476 6.21842 39.3154 6.26127 40.0217 6.3149C40.1868 6.32791 40.3333 6.34227 40.4558 6.38871C40.5371 6.41833 40.6008 6.46477 40.6223 6.50987C40.6539 6.57584 40.6216 6.70193 40.5472 6.80357Z" fill="#2570EB"/>
<path d="M0.939861 26.8379L0.554399 39.1085C0.523661 40.0809 0.531065 40.7394 0.889154 41.684C1.47385 43.2267 3.63966 43.5225 5.70608 43.5225C6.4227 43.5225 7.12721 43.4868 7.74983 43.4554C8.25555 43.4298 8.69486 43.4069 9.02087 43.4107C9.64102 43.4157 10.5708 43.424 11.2464 42.8707C11.5383 42.6315 11.7273 42.3269 11.8584 42.0039C12.638 42.4334 13.4693 42.9056 14.3437 43.4031C14.8165 43.6723 15.2984 43.9465 15.7855 44.2214C16.7516 44.7657 20.4654 44.9932 23.689 44.9932C26.1147 44.9932 28.2632 44.8642 28.7537 44.6443C29.8587 44.1457 30.8542 42.8877 30.5224 41.5375C30.3951 41.0222 30.0704 40.555 29.6173 40.1922C29.9776 40.1184 30.3075 40.0232 30.5926 39.8944C31.696 39.3959 32.69 38.1383 32.359 36.7899C32.2318 36.2729 31.9061 35.8044 31.4513 35.4414C31.8163 35.3677 32.1493 35.2736 32.4297 35.1469C33.5331 34.6485 34.5273 33.3912 34.1961 32.0425C34.0148 31.3052 33.4338 30.6644 32.6412 30.2934C33.6556 29.7383 34.506 28.5567 34.1961 27.2949C33.9837 26.4309 33.2255 25.6963 32.2177 25.3777C31.3671 25.1087 30.4672 25.1403 29.6727 25.1679C28.3139 25.2153 27.2029 25.2884 26.1284 25.3593C25.2788 25.4152 24.4003 25.4721 23.4015 25.5169C24.344 23.5657 24.7882 21.3534 24.6534 19.1996C24.6107 18.5217 24.5024 17.6465 24.0395 16.8879C23.5262 16.053 22.6496 15.565 21.8037 15.6368C20.7956 15.7212 20.0646 16.5473 19.7164 17.2924C19.4701 17.8202 19.3399 18.3734 19.2138 18.9083C19.1611 19.1325 19.1084 19.3568 19.0474 19.5769C18.7189 20.7416 18.0985 21.8435 17.2526 22.7643C16.1297 23.9909 14.4759 24.7271 12.7243 24.7838L12.0684 24.7915C11.9922 24.1059 11.8029 23.4548 11.3296 22.9375C10.4817 22.0113 9.15347 21.9593 7.96881 21.9788C7.24052 21.9925 6.9641 22.0059 6.68768 22.0194C6.41732 22.0329 6.14696 22.0461 5.43459 22.0591C4.51671 22.0762 3.25959 22.0993 2.32891 22.8318C1.13371 23.7724 0.985183 25.3927 0.939861 26.8379ZM7.92394 38.1834C8.03657 38.8565 7.75881 39.4899 7.14157 39.9669C6.11846 40.7553 5.03388 40.3872 4.45927 39.712C3.89006 39.0434 3.7312 37.9786 4.65918 37.1071C5.08683 36.7062 5.56248 36.4993 6.03792 36.4993C6.21786 36.4993 6.3978 36.5289 6.57505 36.5889C7.26094 36.8206 7.80301 37.4614 7.92394 38.1834ZM4.36992 29.8013C4.36992 30.055 4.16418 30.2608 3.91042 30.2608C3.65666 30.2608 3.45091 30.055 3.45091 29.8013V25.0842C3.45091 24.8304 3.65666 24.6247 3.91042 24.6247C4.16418 24.6247 4.36992 24.8304 4.36992 25.0842V29.8013ZM3.91042 31.3036C4.16418 31.3036 4.36992 31.5094 4.36992 31.7631V32.0137C4.36992 32.2675 4.16418 32.4732 3.91042 32.4732C3.65666 32.4732 3.45091 32.2675 3.45091 32.0137V31.7631C3.45091 31.5094 3.65666 31.3036 3.91042 31.3036ZM12.7449 25.7026C14.7514 25.6375 16.6415 24.7928 17.93 23.3853C18.8723 22.3595 19.5645 21.1289 19.9323 19.8246C19.9971 19.5911 20.053 19.3548 20.1084 19.1188C20.2291 18.6068 20.3428 18.1233 20.5493 17.6815C20.7882 17.1695 21.2634 16.6043 21.8827 16.5525C22.4546 16.5033 22.9843 16.9263 23.2558 17.3681C23.613 17.9532 23.7 18.6851 23.7362 19.2572C23.8768 21.504 23.3413 23.822 22.2282 25.7838C22.2228 25.7934 22.223 25.8042 22.2183 25.814C22.2052 25.8415 22.1975 25.8701 22.19 25.9002C22.182 25.9322 22.1753 25.9628 22.1743 25.9951C22.174 26.0052 22.169 26.014 22.1694 26.0243C22.1699 26.0397 22.1778 26.0524 22.1798 26.0673C22.1846 26.105 22.1924 26.1403 22.2062 26.1756C22.2138 26.1944 22.2226 26.2113 22.2326 26.2288C22.2522 26.2646 22.2754 26.2965 22.3045 26.3264C22.3163 26.3384 22.3288 26.3482 22.3418 26.3588C22.3621 26.3756 22.3773 26.3968 22.401 26.4103C22.4165 26.419 22.4337 26.4193 22.4498 26.4261C22.466 26.4332 22.4826 26.4372 22.4997 26.4424C22.5398 26.4541 22.5787 26.4626 22.6194 26.4633C22.6282 26.4636 22.6358 26.4679 22.6446 26.4677C24.0036 26.4203 25.1144 26.347 26.1889 26.2763C27.2562 26.2061 28.3599 26.1334 29.7045 26.0865C30.4604 26.0598 31.241 26.0329 31.9406 26.2541C32.4925 26.4284 33.1405 26.8511 33.3036 27.5141C33.5087 28.3492 32.8279 29.211 32.0514 29.5619C31.6854 29.7273 31.2624 29.8404 30.7788 29.9046C30.3985 29.8919 26.5834 30.0616 25.7499 30.0905C25.4961 30.0995 25.2978 30.3122 25.3065 30.5657C25.3153 30.8193 25.5318 31.0156 25.7817 31.0091C26.622 30.9797 30.4564 30.861 30.7752 30.824C31.1758 30.8387 31.5698 30.8842 31.9403 31.0015C32.4925 31.176 33.1407 31.5989 33.3036 32.2617C33.5087 33.0968 32.8279 33.9586 32.0514 34.3095C31.44 34.5859 30.5033 34.71 29.3243 34.6743C28.8126 34.6304 26.1874 34.7587 25.6478 34.7775C25.394 34.7865 25.1957 34.9992 25.2044 35.2528C25.2134 35.5063 25.427 35.7042 25.6796 35.6961C26.2354 35.6768 29.0602 35.584 29.1741 35.5885C29.4927 35.6118 29.8062 35.655 30.1032 35.7491C30.6554 35.9236 31.3036 36.3465 31.4665 37.0091C31.6716 37.8442 30.9908 38.7062 30.2143 39.0571C29.584 39.3419 28.6618 39.4629 27.47 39.4195C26.9763 39.3788 25.2482 39.4756 24.917 39.4881C24.6635 39.4978 24.4658 39.7114 24.4752 39.9649C24.4849 40.2184 24.6879 40.4204 24.952 40.4067C25.3469 40.3916 27.2048 40.3267 27.2772 40.3301C27.6174 40.3514 27.9511 40.3961 28.265 40.4958C28.8176 40.6712 29.4665 41.0948 29.63 41.7574C29.8353 42.5934 29.1537 43.4556 28.3767 43.8061C27.4465 44.2122 17.7108 44.2512 16.2369 43.4208C15.7512 43.1469 15.2701 42.8731 14.7983 42.6043C13.8404 42.0593 12.9339 41.5445 12.088 41.0817C12.13 40.7244 12.131 40.3891 12.1308 40.1343L12.1194 25.9083C12.1193 25.8424 12.1179 25.7762 12.1172 25.71L12.7449 25.7026Z" fill="#2570EB"/>
<path d="M43.5819 0.25022L4.13943 0.00790376C3.13786 0.000948556 2.21504 0.391795 1.52018 1.10259C0.825314 1.8136 0.458026 2.75213 0.485847 3.74585L0.549792 5.90695C0.619345 8.25382 0.691815 10.6952 0.751048 12.9588C0.775056 14.0055 1.61239 14.8394 2.65727 14.8574L27.9728 15.2599C28.561 15.27 29.0733 15.6747 29.2182 16.2451L29.6239 17.8385C29.7933 18.5049 29.9624 19.1706 30.1316 19.8298C30.1834 20.0411 30.3044 20.5363 30.7728 20.7059C30.8473 20.7331 30.9429 20.756 31.054 20.756C31.3225 20.756 31.6806 20.6218 32.0419 20.0887L35.0324 15.681C35.1612 15.4921 35.373 15.3902 35.601 15.3833L41.7655 15.4838C42.7266 15.4928 43.6656 15.1315 44.3645 14.449C45.061 13.769 45.4484 12.8587 45.4561 11.8861C45.465 10.6727 45.4931 4.09653 45.5155 2.215C45.5213 1.69424 45.3235 1.20266 44.9582 0.831329C44.5925 0.459554 44.1036 0.253136 43.5819 0.25022ZM44.5371 11.8791C44.5314 12.6047 44.242 13.2841 43.7224 13.7916C43.2003 14.3016 42.5175 14.5733 41.78 14.5648L35.6138 14.4643C35.0809 14.4679 34.5752 14.7196 34.2725 15.1641L31.2815 19.5727C31.198 19.6958 31.1294 19.7667 31.0838 19.8044C31.0681 19.767 31.0475 19.7059 31.0232 19.6065C30.8527 18.9429 30.6838 18.2778 30.5146 17.6121L30.1087 16.0178C29.8619 15.0479 28.9903 14.3582 27.988 14.3409L2.67252 13.9384C2.12305 13.9289 1.68239 13.4894 1.6696 12.9363C1.6106 10.67 1.5379 8.22779 1.46835 5.8798L1.4044 3.7196C1.38354 2.97762 1.65816 2.27625 2.17735 1.74495C2.69339 1.21701 3.38287 0.926909 4.11991 0.926909H4.13427L43.5765 1.16922C43.8521 1.1708 44.1101 1.27961 44.303 1.47571C44.4953 1.67136 44.5997 1.93028 44.5965 2.20445C44.5743 4.08823 44.546 10.6669 44.5371 11.8791Z" fill="#2570EB"/>
<path d="M13.5623 17.7989C13.8161 17.7989 14.0218 17.5931 14.0218 17.3394C14.0218 17.0856 13.8161 16.8799 13.5623 16.8799H5.23294C4.97918 16.8799 4.77344 17.0856 4.77344 17.3394C4.77344 17.5931 4.97918 17.7989 5.23294 17.7989H13.5623Z" fill="#2570EB"/>
<path d="M16.3567 17.7989C16.6105 17.7989 16.8162 17.5931 16.8162 17.3394C16.8162 17.0856 16.6105 16.8799 16.3567 16.8799H15.7447C15.4909 16.8799 15.2852 17.0856 15.2852 17.3394C15.2852 17.5931 15.4909 17.7989 15.7447 17.7989H16.3567Z" fill="#2570EB"/>
<path d="M13.9478 36.8733C14.2015 36.8733 14.4073 36.6676 14.4073 36.4138V28.8511C14.4073 28.5973 14.2015 28.3916 13.9478 28.3916C13.694 28.3916 13.4883 28.5973 13.4883 28.8511V36.4138C13.4883 36.6676 13.694 36.8733 13.9478 36.8733Z" fill="#2570EB"/>
<path d="M13.9478 39.8433C14.2015 39.8433 14.4073 39.6376 14.4073 39.3838V38.5415C14.4073 38.2878 14.2015 38.082 13.9478 38.082C13.694 38.082 13.4883 38.2878 13.4883 38.5415V39.3838C13.4883 39.6376 13.694 39.8433 13.9478 39.8433Z" fill="#2570EB"/>
</svg>
