<svg width="48" height="49" viewBox="0 0 48 49" fill="none" xmlns="http://www.w3.org/2000/svg">
<path fill-rule="evenodd" clip-rule="evenodd" d="M11.8325 12.1679C11.7604 12.0061 11.7886 11.8276 11.9071 11.6958L15.3329 7.88837C15.4192 7.79247 15.5302 7.74306 15.6591 7.74306C15.788 7.74306 15.899 7.79247 15.9852 7.88837L19.411 11.6958C19.5295 11.8276 19.5578 12.0061 19.4857 12.1679C19.4136 12.3297 19.2621 12.428 19.0849 12.428H17.6291V19.7117C17.6291 20.0104 17.3854 20.2542 17.0865 20.2542H14.2314C13.9327 20.2542 13.6888 20.0104 13.6888 19.7117V12.428H12.2331C12.0559 12.428 11.9043 12.3297 11.8323 12.1679H11.8325ZM20.5743 5.88428H22.03V19.7117C22.03 20.0103 22.274 20.2542 22.5726 20.2542H25.4276C25.7262 20.2542 25.9702 20.0103 25.9702 19.7117V5.88428H27.4259C27.6029 5.88428 27.7546 5.78584 27.8267 5.62403C27.8988 5.46222 27.8706 5.28372 27.7521 5.152L24.3263 1.34453C24.24 1.24872 24.129 1.19922 24.0001 1.19922C23.8712 1.19922 23.7602 1.24863 23.6739 1.34453L20.2481 5.152C20.1296 5.28362 20.1014 5.46222 20.1735 5.62403C20.2456 5.78584 20.3973 5.88428 20.5743 5.88428ZM28.9152 12.428H30.371V19.7117C30.371 20.0104 30.6147 20.2542 30.9135 20.2542H33.7686C34.0673 20.2542 34.3112 20.0104 34.3112 19.7117V12.428H35.7669C35.9441 12.428 36.0956 12.3297 36.1677 12.1679C36.2398 12.0061 36.2116 11.8276 36.0931 11.6958L32.6673 7.88837C32.581 7.79256 32.47 7.74306 32.3411 7.74306C32.2122 7.74306 32.1012 7.79247 32.015 7.88837L28.5892 11.6958C28.4707 11.8276 28.4424 12.0061 28.5145 12.1679C28.5866 12.3297 28.7382 12.428 28.9154 12.428H28.9152ZM34.0883 29.0201C33.7259 29.0201 33.4321 29.3139 33.4321 29.6763C33.4321 30.0388 33.7259 30.3326 34.0883 30.3326H41.4728C41.6563 30.3326 41.8223 30.2572 41.9413 30.1359L44.654 27.4232C44.8491 27.5023 45.0624 27.546 45.286 27.546C46.2154 27.546 46.9688 26.7925 46.9688 25.8632C46.9688 24.9338 46.2154 24.1803 45.286 24.1803C44.3567 24.1803 43.6032 24.9338 43.6032 25.8632C43.6032 26.0867 43.6469 26.3 43.726 26.4951L41.2012 29.0201H34.0883ZM38.8473 22.6866V26.1239H32.4446C32.0822 26.1239 31.7884 26.4177 31.7884 26.7801C31.7884 27.1426 32.0822 27.4364 32.4446 27.4364H39.5035C39.866 27.4364 40.1598 27.1426 40.1598 26.7801V22.6867C40.7632 22.431 41.1863 21.8332 41.1863 21.1367C41.1863 20.2073 40.4329 19.4538 39.5035 19.4538C38.5742 19.4538 37.8207 20.2072 37.8207 21.1367C37.8207 21.8332 38.2439 22.4309 38.8473 22.6866ZM13.9118 33.2289C14.2742 33.2289 14.568 32.9351 14.568 32.5727C14.568 32.2102 14.2742 31.9164 13.9118 31.9164H6.52734C6.34387 31.9164 6.17794 31.9918 6.05888 32.1131L3.34613 34.8258C3.15094 34.7467 2.93766 34.703 2.71406 34.703C1.78472 34.703 1.03125 35.4565 1.03125 36.3858C1.03125 37.3152 1.78472 38.0687 2.71406 38.0687C3.64341 38.0687 4.39687 37.3153 4.39687 36.3858C4.39687 36.1622 4.35319 35.949 4.27406 35.7538L6.79894 33.2289H13.9118ZM40.1597 39.5625V35.469C40.1597 35.1065 39.8659 34.8127 39.5034 34.8127H32.4445C32.0821 34.8127 31.7883 35.1065 31.7883 35.469C31.7883 35.8314 32.0821 36.1252 32.4445 36.1252H38.8472V39.5625C38.2438 39.8182 37.8206 40.416 37.8206 41.1125C37.8206 42.042 38.574 42.7953 39.5034 42.7953C40.4329 42.7953 41.1862 42.0419 41.1862 41.1125C41.1862 40.416 40.763 39.8182 40.1597 39.5625ZM32.6625 39.8374C31.7332 39.8374 30.9797 40.5908 30.9797 41.5202C30.9797 42.2168 31.4029 42.8146 32.0062 43.0703V46.489H15.9938V43.0703C16.5972 42.8146 17.0204 42.2168 17.0204 41.5202C17.0204 40.5909 16.2669 39.8374 15.3376 39.8374C14.4083 39.8374 13.6548 40.5908 13.6548 41.5202C13.6548 42.2168 14.078 42.8146 14.6813 43.0703V47.1452C14.6813 47.5077 14.9752 47.8015 15.3376 47.8015H32.6626C33.025 47.8015 33.3188 47.5077 33.3188 47.1452V43.0703C33.9222 42.8146 34.3454 42.2168 34.3454 41.5202C34.3454 40.5909 33.592 39.8374 32.6626 39.8374H32.6625ZM45.2859 34.7031C45.0623 34.7031 44.8491 34.7468 44.6539 34.8259L41.9411 32.1132C41.8221 31.9918 41.6561 31.9165 41.4727 31.9165H34.0882C33.7257 31.9165 33.4319 32.2103 33.4319 32.5727C33.4319 32.9352 33.7257 33.229 34.0882 33.229H41.201L43.7258 35.7539C43.6467 35.9491 43.603 36.1623 43.603 36.3859C43.603 37.3154 44.3565 38.0687 45.2858 38.0687C46.2152 38.0687 46.9687 37.3154 46.9687 36.3859C46.9687 35.4565 46.2152 34.7031 45.2858 34.7031H45.2859ZM7.84041 22.6865V26.7799C7.84041 27.1424 8.13422 27.4362 8.49666 27.4362H15.5556C15.918 27.4362 16.2118 27.1424 16.2118 26.7799C16.2118 26.4175 15.918 26.1237 15.5556 26.1237H9.15291V22.6864C9.75628 22.4307 10.1795 21.8329 10.1795 21.1364C10.1795 20.207 9.42609 19.4536 8.49666 19.4536C7.56722 19.4536 6.81384 20.2069 6.81384 21.1364C6.81384 21.8329 7.23712 22.4307 7.84041 22.6864V22.6865ZM2.71416 27.5459C2.93775 27.5459 3.15103 27.5022 3.34622 27.4231L6.05888 30.1358C6.17794 30.2572 6.34387 30.3325 6.52734 30.3325H13.9118C14.2743 30.3325 14.5681 30.0387 14.5681 29.6762C14.5681 29.3138 14.2743 29.02 13.9118 29.02H6.79903L4.27416 26.495C4.35328 26.2998 4.39697 26.0866 4.39697 25.8631C4.39697 24.9337 3.64359 24.1802 2.71416 24.1802C1.78472 24.1802 1.03134 24.9337 1.03134 25.8631C1.03134 26.7924 1.78481 27.5459 2.71416 27.5459ZM9.15291 39.5623V36.125H15.5556C15.918 36.125 16.2118 35.8312 16.2118 35.4688C16.2118 35.1063 15.918 34.8125 15.5556 34.8125H8.49666C8.13422 34.8125 7.84041 35.1063 7.84041 35.4688V39.5623C7.23703 39.818 6.81384 40.4158 6.81384 41.1123C6.81384 42.0418 7.56731 42.7952 8.49666 42.7952C9.426 42.7952 10.1795 42.0417 10.1795 41.1123C10.1795 40.4158 9.75628 39.818 9.15291 39.5623ZM30.6833 32.7558L29.8792 34.6963L30.689 35.9038L28.7795 37.8133L27.572 37.0035L25.6314 37.8075L25.3502 39.2338H22.6498L22.3686 37.8075L20.428 37.0035L19.2205 37.8133L17.311 35.9038L18.1208 34.6963L17.3167 32.7558L15.8905 32.4745V29.7741L17.3167 29.4929L18.1208 27.5523L17.311 26.3448L19.2205 24.4353L20.4279 25.2451L22.3686 24.4411L22.6498 23.0148H25.3502L25.6314 24.4411L27.5721 25.2451L28.7795 24.4353L30.689 26.3448L29.8792 27.5523L30.6833 29.4929L32.1095 29.7741V32.4745L30.6833 32.7558ZM28.1588 31.1243C28.1588 28.8275 26.297 26.9656 24.0001 26.9656C21.7032 26.9656 19.8413 28.8275 19.8413 31.1243C19.8413 33.4211 21.7033 35.2831 24.0001 35.2831C26.2969 35.2831 28.1588 33.4212 28.1588 31.1243Z" fill="#3B82F6"/>
</svg>
