<svg width="48" height="49" viewBox="0 0 48 49" fill="none" xmlns="http://www.w3.org/2000/svg">
<path d="M15.0912 18.7669C15.6793 16.1278 18.3252 13.7064 21.6465 13.7064C22.8877 13.7064 24.1083 14.0492 25.1574 14.6867L23.2992 15.9828L28.874 18.5888L28.3459 12.4582L26.3712 13.8366C24.9997 12.8697 23.3472 12.335 21.6465 12.335C17.9437 12.335 14.7003 14.8378 13.7608 18.4173C13.6649 18.7806 13.8842 19.1576 14.2545 19.2537C14.617 19.3443 14.9935 19.133 15.0912 18.7669Z" fill="#2570EB"/>
<path d="M29.0502 21.654C28.6799 21.5579 28.3096 21.7842 28.2205 22.1475C28.2068 22.2024 28.1931 22.2644 28.1725 22.3189C27.3565 25.2473 24.6959 27.2699 21.6445 27.2699C20.3829 27.2699 19.1554 26.9133 18.0925 26.2551L19.9576 24.9798L14.4102 22.3189L14.8766 28.4495L16.8719 27.0918C18.2571 28.0996 19.9233 28.6414 21.6445 28.6414C25.3886 28.6414 28.6387 26.1111 29.5508 22.4837C29.64 22.1133 29.4137 21.743 29.0502 21.654Z" fill="#2570EB"/>
<path d="M43.0736 24.7396H41.7502V14.4539C44.26 13.8298 46.1183 11.5671 46.1183 8.8654C46.1183 5.68359 43.5331 3.10547 40.3513 3.10547C38.109 3.10547 36.1684 4.3875 35.2153 6.25949H5.81886C3.46004 6.25949 1.54688 8.17969 1.54688 10.5385V34.8747C1.54688 37.2331 3.46004 39.1604 5.81886 39.1604H16.5879L14.8003 44.5239H13.6162C13.2375 44.5239 12.9305 44.8309 12.9305 45.2096C12.9305 45.5883 13.2375 45.8953 13.6162 45.8953H29.7067C30.0854 45.8953 30.3924 45.5883 30.3924 45.2096C30.3924 44.8309 30.0854 44.5239 29.7067 44.5239H28.5248L26.7372 39.1604H31.2931V42.5133C31.2931 44.3786 32.8085 45.894 34.6736 45.894H43.0736C44.9387 45.894 46.4541 44.3786 46.4541 42.5133V28.1203C46.4541 26.255 44.9387 24.7396 43.0736 24.7396ZM37.7868 7.75446C38.0534 7.48914 38.494 7.48803 38.7606 7.75446C38.8696 7.86344 39.7138 8.70786 39.645 8.63906C39.7256 8.55847 41.6894 6.59482 41.62 6.66429C41.8942 6.39676 42.3263 6.39676 42.5936 6.66429C42.8612 6.93181 42.8612 7.36373 42.5936 7.63091C37.9328 12.2781 41.9843 8.23858 40.125 10.0929C39.8754 10.3553 39.444 10.3784 39.1582 10.0929L37.7868 8.72812C37.5194 8.4606 37.5194 8.02199 37.7868 7.75446ZM21.645 36.4379C21.0142 36.4379 20.4999 35.9237 20.4999 35.2858C20.4999 34.655 21.0142 34.1407 21.645 34.1407C22.2827 34.1407 22.797 34.655 22.797 35.2858C22.797 35.9237 22.2827 36.4379 21.645 36.4379ZM31.2931 28.1203V31.4186H2.9183V10.5385C2.9183 8.93404 4.21423 7.63091 5.81886 7.63091H34.7216C34.6393 8.02868 34.5914 8.44018 34.5914 8.8654C34.5914 12.0472 37.1697 14.6253 40.3513 14.6253H40.3788V24.7396H34.6736C32.8085 24.7396 31.2931 26.255 31.2931 28.1203ZM38.8771 43.9533C38.4382 43.9533 38.0886 43.5968 38.0886 43.1648C38.0886 42.7259 38.4382 42.376 38.8771 42.376C39.309 42.376 39.6656 42.7259 39.6656 43.1648C39.6656 43.5968 39.309 43.9533 38.8771 43.9533ZM45.0827 41.1144H32.6645C32.6645 33.8056 32.6645 35.559 32.6645 28.1203C32.6645 27.0161 33.5697 26.111 34.6736 26.111C34.9456 26.111 43.4628 26.111 43.0736 26.111C44.1845 26.111 45.0827 27.0161 45.0827 28.1203V41.1144Z" fill="#2570EB"/>
<path d="M35.3919 33.0785C35.6946 31.7125 37.0839 30.3972 38.8685 30.3972C39.321 30.3972 39.7531 30.4796 40.1644 30.6302L39.2113 31.3779C39.282 31.4063 43.0877 32.9355 43.0171 32.907L42.441 28.8477C42.3716 28.9021 41.295 29.7451 41.3644 29.6907C40.6102 29.2616 39.7752 29.0258 38.8685 29.0258C36.5409 29.0258 34.6122 30.623 34.0616 32.7356C33.9655 33.0989 34.185 33.4762 34.5553 33.572C34.9213 33.6635 35.2929 33.4491 35.3919 33.0785Z" fill="#2570EB"/>
<path d="M43.1913 34.3805C42.8278 34.2844 42.4575 34.5108 42.3616 34.8744C42.0321 36.3533 40.6034 37.5965 38.8713 37.5965C38.5162 37.5965 38.0063 37.5291 37.5546 37.3427L38.5147 36.6091L34.7227 35.0458C34.7318 35.1156 35.2666 39.1817 35.2575 39.1119C35.3275 39.0582 36.4179 38.2218 36.3479 38.2755C37.0177 38.6845 37.9848 38.9679 38.8713 38.9679C41.1546 38.9679 43.1364 37.4184 43.6919 35.2102C43.7878 34.8469 43.5616 34.4696 43.1913 34.3805Z" fill="#2570EB"/>
</svg>
