<svg width="24" height="24" viewBox="0 0 24 24" fill="none" xmlns="http://www.w3.org/2000/svg">
<path d="M11.4141 16.021L11.3366 15.889C10.1528 13.8719 7.00685 9.59145 6.97507 9.54846L6.92969 9.48681L8.00148 8.42757L11.3942 10.7966C13.5304 8.02465 15.5232 6.12074 16.8232 5.00892C18.2452 3.79271 19.1709 3.23281 19.1802 3.22744L19.2013 3.21484H21.0193L20.8457 3.36951C16.3793 7.34771 11.5382 15.803 11.49 15.888L11.4141 16.021Z" fill="#3B82F6"/>
<path d="M19.3824 10.0992C18.8644 10.0992 18.4424 10.52 18.4424 11.0364V16.6975C18.4424 18.0363 17.349 19.1264 16.0062 19.1264H7.3162C5.97338 19.1264 4.87994 18.0363 4.87994 16.6975V8.03369C4.87994 6.69491 5.97338 5.60476 7.3162 5.60476H13.7425C14.2605 5.60476 14.6825 5.184 14.6825 4.66761C14.6825 4.15123 14.2605 3.73047 13.7425 3.73047H7.3162C4.93749 3.73047 3 5.66214 3 8.03369V16.6975C3 19.069 4.93749 21.0007 7.3162 21.0007H16.0062C18.3849 21.0007 20.3224 19.069 20.3224 16.6975V11.0364C20.3224 10.52 19.9003 10.0992 19.3824 10.0992Z" fill="#3B82F6"/>
</svg>
