<svg width="25" height="24" viewBox="0 0 25 24" fill="none" xmlns="http://www.w3.org/2000/svg">
<path fill-rule="evenodd" clip-rule="evenodd" d="M12.5 2.75C8.02436 2.75 4.38113 6.31395 4.25346 10.7587C4.75789 10.4366 5.35715 10.25 6 10.25C7.79493 10.25 9.25 11.7051 9.25 13.5V15.5C9.25 17.2949 7.79493 18.75 6 18.75C4.20507 18.75 2.75 17.2949 2.75 15.5V13.75V13.5V11C2.75 5.61522 7.11522 1.25 12.5 1.25C17.8848 1.25 22.25 5.61522 22.25 11V13.5V13.75V14V15.5V16C22.25 19.7279 19.2279 22.75 15.5 22.75H12.5C12.0858 22.75 11.75 22.4142 11.75 22C11.75 21.5858 12.0858 21.25 12.5 21.25H15.5C17.4676 21.25 19.1824 20.1676 20.0814 18.5658C19.7431 18.6851 19.3791 18.75 19 18.75C17.2051 18.75 15.75 17.2949 15.75 15.5V13.5C15.75 11.7051 17.2051 10.25 19 10.25C19.6428 10.25 20.2421 10.4366 20.7465 10.7587C20.6189 6.31395 16.9756 2.75 12.5 2.75Z" fill="white"/>
</svg>
