<svg width="156" height="34" viewBox="0 0 156 34" fill="none" xmlns="http://www.w3.org/2000/svg">
<g id="Logo" clip-path="url(#clip0_1498_5754)">
<path id="Vector" fill-rule="evenodd" clip-rule="evenodd" d="M49.5156 2.26297C49.5156 1.11079 50.4706 0.176758 51.6487 0.176758H55.3647C56.2032 0.176758 57.0158 0.460947 57.6641 0.98095L58.7945 1.88757L58.8228 1.91279C58.8489 1.90418 58.875 1.89577 58.9011 1.88757C60.9405 1.24871 63.4149 1.12722 65.9403 1.12722C68.4658 1.12722 70.9401 1.24871 72.9795 1.88757C73.0057 1.89577 73.0318 1.90418 73.0579 1.91279L73.0861 1.88757L74.2165 0.98095C74.8649 0.460947 75.6775 0.176758 76.516 0.176758H80.2319C81.4101 0.176758 82.365 1.11079 82.365 2.26297V3.55263C82.365 4.55044 81.9353 5.5021 81.1811 6.17414L80.2692 6.98682C79.824 7.38356 79.2897 7.67229 78.7093 7.8297L78.4935 7.88822C79.3385 9.86016 79.8054 11.968 79.8054 13.6731C79.8054 20.5323 75.466 23.4947 71.6425 26.1049C68.6314 28.1605 65.9403 29.9976 65.9403 33.3475C65.9403 29.9976 63.2492 28.1605 60.2382 26.1049C56.4147 23.4947 52.0753 20.5323 52.0753 13.6731C52.0753 11.968 52.5421 9.86016 53.3871 7.88822L53.1714 7.8297C52.591 7.67229 52.0567 7.38356 51.6115 6.98682L50.6995 6.17414C49.9454 5.5021 49.5156 4.55044 49.5156 3.55263V2.26297ZM68.7134 19.2808C68.7134 19.6085 68.5672 19.9227 68.3072 20.1545C68.0472 20.3862 67.6946 20.5164 67.3268 20.5164C67.0093 20.5164 66.7031 20.4193 66.458 20.2437C66.8752 21.3358 67.9427 22.3707 69.5666 20.7065C71.0001 19.1602 69.5028 15.8987 68.0441 13.9634C67.5579 13.3183 66.7597 13.0078 65.9403 13.0078C65.1209 13.0078 64.3227 13.3183 63.8365 13.9634C62.3778 15.8987 60.8806 19.1602 62.3141 20.7065C63.9379 22.3707 65.0055 21.3358 65.4227 20.2437C65.1776 20.4193 64.8713 20.5164 64.5539 20.5164C64.1861 20.5164 63.8334 20.3862 63.5734 20.1545C63.3134 19.9227 63.1673 19.6085 63.1673 19.2808H68.7134ZM60.6307 9.62639H56.7681L59.8122 12.0103C60.4821 12.5348 61.4612 12.3671 61.8757 11.6568C62.399 10.7601 61.7039 9.62639 60.6307 9.62639ZM71.25 9.62639H75.1125L72.0684 12.0103C71.3986 12.5348 70.4195 12.3671 70.005 11.6568C69.4816 10.7601 70.1767 9.62639 71.25 9.62639Z" fill="#72B800"/>
<path id="Vector_2" d="M86.9648 23.6726H90.3868V10.9101H86.9648V23.6726ZM86.9648 8.9199H90.3868V5.88477H86.9648V8.9199Z" fill="#355030"/>
<path id="Vector_3" d="M92.5938 27.8518H96.0157V22.2293H96.066C96.7957 23.324 97.9783 24.0454 99.7899 24.0454C103.111 24.0454 105.376 21.4332 105.376 17.3035C105.376 13.323 103.187 10.5615 99.7647 10.5615C98.0034 10.5615 96.7957 11.3825 95.9654 12.502H95.8899V10.9098H92.5938V27.8518ZM99.0602 21.2342C97.0221 21.2342 95.9402 19.7166 95.9402 17.403C95.9402 15.1142 96.7957 13.2981 98.9344 13.2981C101.048 13.2981 101.903 14.9898 101.903 17.403C101.903 19.8162 100.796 21.2342 99.0602 21.2342Z" fill="#355030"/>
<path id="Vector_4" d="M112.203 24.0454C115.423 24.0454 117.638 22.503 117.638 19.9405C117.638 16.9552 115.247 16.3581 113.083 15.9103C111.247 15.5371 109.536 15.4376 109.536 14.343C109.536 13.4225 110.416 12.9249 111.75 12.9249C113.209 12.9249 114.09 13.4225 114.241 14.7908H117.336C117.084 12.2284 115.197 10.5615 111.8 10.5615C108.856 10.5615 106.541 11.8801 106.541 14.6415C106.541 17.4279 108.806 18.0498 111.121 18.4976C112.882 18.8459 114.518 18.9703 114.518 20.1893C114.518 21.0849 113.662 21.6571 112.152 21.6571C110.618 21.6571 109.561 21.0103 109.334 19.5425H106.164C106.365 22.2542 108.454 24.0454 112.203 24.0454Z" fill="#355030"/>
<path id="Vector_5" d="M130.627 23.6726V10.9102H127.205V18.2741C127.205 19.9658 126.224 21.1599 124.614 21.1599C123.154 21.1599 122.475 20.3389 122.475 18.8463V10.9102H119.078V19.4184C119.078 22.2048 120.688 24.0209 123.557 24.0209C125.368 24.0209 126.375 23.3492 127.256 22.1799H127.331V23.6726H130.627Z" fill="#355030"/>
<path id="Vector_6" d="M132.84 23.6723H136.262V16.2586C136.262 14.5669 137.193 13.4723 138.577 13.4723C139.835 13.4723 140.564 14.2186 140.564 15.6615V23.6723H143.986V16.2586C143.986 14.5669 144.867 13.4723 146.301 13.4723C147.559 13.4723 148.289 14.2186 148.289 15.6615V23.6723H151.711V15.0893C151.711 12.303 150.176 10.5615 147.459 10.5615C145.823 10.5615 144.464 11.4074 143.584 12.8005H143.533C142.904 11.4571 141.596 10.5615 139.96 10.5615C138.174 10.5615 136.916 11.4571 136.211 12.6264H136.136V10.9098H132.84V23.6723Z" fill="#355030"/>
<path id="Vector_7" d="M0.574219 23.6726H3.99615V5.88477H0.574219V23.6726Z" fill="#355030"/>
<path id="Vector_8" d="M12.3644 24.0454C16.365 24.0454 19.1076 21.1098 19.1076 17.3035C19.1076 13.4971 16.365 10.5615 12.3644 10.5615C8.36367 10.5615 5.62109 13.4971 5.62109 17.3035C5.62109 21.1098 8.36367 24.0454 12.3644 24.0454ZM12.3644 21.4581C10.2508 21.4581 9.09339 19.7913 9.09339 17.3035C9.09339 14.8157 10.2508 13.124 12.3644 13.124C14.4527 13.124 15.6353 14.8157 15.6353 17.3035C15.6353 19.7913 14.4527 21.4581 12.3644 21.4581Z" fill="#355030"/>
<path id="Vector_9" d="M26.3819 28.0259C28.2941 28.0259 29.9548 27.5781 31.0367 26.583C31.9929 25.7123 32.5716 24.4932 32.5716 22.702V10.9098H29.2754V12.2532H29.2251C28.4451 11.1835 27.2625 10.5615 25.6522 10.5615C22.3812 10.5615 20.0664 12.9996 20.0664 16.8059C20.0664 20.662 22.8845 22.901 25.7529 22.901C27.3883 22.901 28.3696 22.2542 29.1245 21.4084H29.2V22.8015C29.2 24.543 28.269 25.4635 26.3316 25.4635C24.7464 25.4635 24.0167 24.8415 23.74 24.0454H20.3432C20.6954 26.5332 22.8593 28.0259 26.3819 28.0259ZM26.3316 20.1893C24.5703 20.1893 23.4129 18.9205 23.4129 16.7562C23.4129 14.6166 24.5703 13.2732 26.3064 13.2732C28.3696 13.2732 29.3761 14.8654 29.3761 16.7313C29.3761 18.622 28.4954 20.1893 26.3316 20.1893Z" fill="#355030"/>
<path id="Vector_10" d="M40.8917 24.0454C44.8923 24.0454 47.6349 21.1098 47.6349 17.3035C47.6349 13.4971 44.8923 10.5615 40.8917 10.5615C36.891 10.5615 34.1484 13.4971 34.1484 17.3035C34.1484 21.1098 36.891 24.0454 40.8917 24.0454ZM40.8917 21.4581C38.7781 21.4581 37.6207 19.7913 37.6207 17.3035C37.6207 14.8157 38.7781 13.124 40.8917 13.124C42.98 13.124 44.1626 14.8157 44.1626 17.3035C44.1626 19.7913 42.98 21.4581 40.8917 21.4581Z" fill="#355030"/>
<path id="Vector_11" d="M151.559 8.1235C151.559 7.55101 152.027 7.08691 152.607 7.08691H154.704C155.282 7.08691 155.752 7.55101 155.752 8.1235C155.752 8.69595 155.282 9.16009 154.704 9.16009H152.607C152.027 9.16009 151.559 8.69595 151.559 8.1235Z" fill="#355030"/>
</g>
<defs>
<clipPath id="clip0_1498_5754">
<rect width="156" height="34" fill="white"/>
</clipPath>
</defs>
</svg>
