<svg width="126" height="40" viewBox="0 0 126 40" fill="none" xmlns="http://www.w3.org/2000/svg">
<g id="Logo" clip-path="url(#clip0_1498_5738)">
<path id="Vector" d="M89.3603 37.2245C90.1193 37.2245 90.5683 36.6495 90.5683 35.7505C90.5683 34.8185 90.0863 34.2765 89.3763 34.2765C88.9703 34.2765 88.6883 34.4565 88.4773 34.7425H88.4673V33.2695H88.0273V37.1425H88.4673V36.7745H88.4773C88.7053 37.0885 88.9813 37.2245 89.3603 37.2245ZM89.3283 36.8555C88.7323 36.8555 88.4393 36.3845 88.4393 35.7555C88.4393 35.1495 88.7213 34.6505 89.3333 34.6505C89.8643 34.6505 90.1193 35.1275 90.1193 35.7555C90.1193 36.3895 89.8643 36.8555 89.3283 36.8555ZM91.3113 38.0695C91.6523 38.0695 91.8693 37.9495 92.0963 37.3695L93.2943 34.3415H92.8283L92.1883 36.0865C92.1023 36.3195 92.0043 36.6335 92.0043 36.6335H91.9943C91.9943 36.6335 91.8903 36.3195 91.8043 36.0865L91.1433 34.3415H90.6663L91.7603 37.0615L91.6523 37.3375C91.5443 37.6085 91.4193 37.6795 91.2353 37.6795C91.1326 37.6847 91.0301 37.6641 90.9373 37.6195H90.9153V38.0095C91.0353 38.0585 91.1433 38.0695 91.3113 38.0695ZM94.4173 37.1425H95.1543V33.2695H94.4173V37.1425ZM96.9563 37.2245C97.8173 37.2245 98.4083 36.5845 98.4083 35.7555C98.4083 34.9265 97.8183 34.2875 96.9563 34.2875C96.0953 34.2875 95.5043 34.9275 95.5043 35.7555C95.5043 36.5855 96.0943 37.2245 96.9563 37.2245ZM96.9563 36.6605C96.5013 36.6605 96.2523 36.2975 96.2523 35.7555C96.2523 35.2145 96.5013 34.8455 96.9563 34.8455C97.4063 34.8455 97.6603 35.2145 97.6603 35.7555C97.6603 36.2975 97.4063 36.6605 96.9563 36.6605ZM99.9753 38.0905C100.387 38.0905 100.744 37.9935 100.977 37.7765C101.183 37.5865 101.308 37.3215 101.308 36.9315V34.3635H100.598V34.6565H100.587C100.419 34.4235 100.165 34.2875 99.8173 34.2875C99.1143 34.2875 98.6153 34.8185 98.6153 35.6475C98.6153 36.4875 99.2223 36.9745 99.8403 36.9745C100.192 36.9745 100.403 36.8345 100.565 36.6495H100.582V36.9535C100.582 37.3325 100.382 37.5335 99.9643 37.5335C99.6233 37.5335 99.4663 37.3975 99.4063 37.2235H98.6753C98.7503 37.7655 99.2163 38.0905 99.9753 38.0905ZM99.9653 36.3845C99.5853 36.3845 99.3353 36.1085 99.3353 35.6365C99.3353 35.1705 99.5853 34.8785 99.9593 34.8785C100.403 34.8785 100.62 35.2245 100.62 35.6315C100.62 36.0435 100.43 36.3845 99.9643 36.3845H99.9653ZM103.099 37.2245C103.96 37.2245 104.551 36.5845 104.551 35.7555C104.551 34.9265 103.96 34.2875 103.099 34.2875C102.237 34.2875 101.647 34.9275 101.647 35.7555C101.647 36.5855 102.237 37.2245 103.099 37.2245ZM103.099 36.6605C102.644 36.6605 102.394 36.2975 102.394 35.7555C102.394 35.2145 102.644 34.8455 103.099 34.8455C103.548 34.8455 103.803 35.2145 103.803 35.7555C103.803 36.2975 103.548 36.6605 103.099 36.6605ZM104.893 37.1425H105.63V34.3635H104.893V37.1425ZM104.893 33.9305H105.63V33.2695H104.893V33.9305ZM106.105 38.0525H106.842V36.8295H106.852C107.01 37.0685 107.264 37.2255 107.654 37.2255C108.369 37.2255 108.857 36.6555 108.857 35.7565C108.857 34.8895 108.386 34.2885 107.649 34.2885C107.489 34.2859 107.33 34.3232 107.187 34.397C107.044 34.4708 106.922 34.5789 106.831 34.7115H106.815V34.3645H106.105V38.0545V38.0525ZM107.497 36.6125C107.058 36.6125 106.825 36.2815 106.825 35.7775C106.825 35.2795 107.01 34.8835 107.47 34.8835C107.925 34.8835 108.109 35.2515 108.109 35.7775C108.109 36.3035 107.871 36.6125 107.497 36.6125ZM110.327 37.2245C111.02 37.2245 111.497 36.8885 111.497 36.3305C111.497 35.6805 110.982 35.5505 110.516 35.4525C110.121 35.3715 109.753 35.3495 109.753 35.1115C109.753 34.9115 109.942 34.8015 110.229 34.8015C110.544 34.8015 110.733 34.9115 110.766 35.2085H111.432C111.378 34.6505 110.972 34.2885 110.24 34.2885C109.606 34.2885 109.108 34.5745 109.108 35.1765C109.108 35.7825 109.595 35.9185 110.094 36.0165C110.473 36.0915 110.825 36.1185 110.825 36.3845C110.825 36.5795 110.641 36.7045 110.316 36.7045C109.986 36.7045 109.758 36.5635 109.709 36.2435H109.027C109.07 36.8335 109.52 37.2245 110.327 37.2245ZM114.295 37.1425V34.3635H113.558V35.9675C113.558 36.3355 113.346 36.5955 113 36.5955C112.686 36.5955 112.539 36.4165 112.539 36.0915V34.3635H111.808V36.2165C111.808 36.8235 112.155 37.2185 112.772 37.2185C113.162 37.2185 113.379 37.0725 113.569 36.8185H113.585V37.1425H114.295ZM114.771 37.1425H115.508V35.5295C115.508 35.1605 115.708 34.9225 116.006 34.9225C116.277 34.9225 116.434 35.0855 116.434 35.3995V37.1435H117.171V35.5295C117.171 35.1605 117.361 34.9225 117.67 34.9225C117.941 34.9225 118.098 35.0855 118.098 35.3995V37.1435H118.835V35.2745C118.835 34.6675 118.504 34.2885 117.919 34.2885C117.567 34.2885 117.274 34.4725 117.085 34.7765H117.074C117.008 34.6289 116.899 34.5041 116.762 34.4174C116.626 34.3306 116.466 34.2859 116.304 34.2885C116.142 34.2845 115.981 34.3241 115.839 34.4032C115.697 34.4824 115.579 34.5982 115.497 34.7385H115.481V34.3645H114.771V37.1445V37.1425Z" fill="#E5708C"/>
<path id="Vector_2" d="M118.981 2.14869C118.981 0.965694 119.94 0.00569434 121.123 0.00569434H122.552C123.12 0.00569434 123.665 0.231474 124.067 0.633364C124.469 1.03525 124.695 1.58034 124.695 2.14869C124.695 2.71705 124.469 3.26213 124.067 3.66402C123.665 4.06591 123.12 4.29169 122.552 4.29169H121.123C120.841 4.29169 120.563 4.23626 120.303 4.12855C120.043 4.02084 119.807 3.86297 119.608 3.66396C119.409 3.46495 119.251 3.2287 119.143 2.96871C119.036 2.70871 118.98 2.43007 118.981 2.14869ZM58.9896 14.2897C58.9896 22.1777 52.5956 28.5727 44.7066 28.5727C36.8186 28.5727 30.4236 22.1777 30.4236 14.2897C30.4236 6.39969 36.8186 0.00669434 44.7066 0.00669434C52.5956 0.00669434 58.9896 6.39969 58.9896 14.2897ZM27.6376 14.2187C28.4276 14.2187 29.0736 14.8587 28.9946 15.6447C28.7246 18.3345 27.6968 20.8925 26.0307 23.0213C24.3645 25.1502 22.1285 26.7625 19.5823 27.6708C17.0361 28.5792 14.2845 28.7463 11.6471 28.1528C9.00973 27.5593 6.59494 26.2294 4.6834 24.3179C2.77185 22.4064 1.44204 19.9916 0.848505 17.3542C0.254975 14.7168 0.422101 11.9652 1.33046 9.419C2.23882 6.87284 3.85111 4.63675 5.97996 2.9706C8.1088 1.30445 10.6668 0.276669 13.3566 0.00669434C14.1416 -0.0733057 14.7826 0.574694 14.7826 1.36269V12.7897C14.7826 13.5797 15.4226 14.2187 16.2116 14.2187H27.6376ZM78.9866 31.4297C80.123 31.4297 81.213 31.8811 82.0165 32.6847C82.8201 33.4883 83.2716 34.5782 83.2716 35.7147C83.2716 36.8511 82.8201 37.9411 82.0165 38.7446C81.213 39.5482 80.123 39.9997 78.9866 39.9997H71.8456C70.7091 39.9997 69.6192 39.5482 68.8156 38.7446C68.012 37.9411 67.5606 36.8511 67.5606 35.7147C67.5606 34.5782 68.012 33.4883 68.8156 32.6847C69.6192 31.8811 70.7091 31.4297 71.8456 31.4297H78.9866ZM74.7016 28.5727C82.5906 28.5727 88.9856 22.1777 88.9856 14.2897C88.989 11.8666 88.3732 9.48291 87.1966 7.36469L89.5566 5.00469C89.8284 4.73273 90.044 4.40988 90.1911 4.05459C90.3382 3.69929 90.4138 3.31851 90.4137 2.93399C90.4136 2.54946 90.3378 2.16872 90.1906 1.81349C90.0433 1.45827 89.8276 1.13553 89.5556 0.863694C89.2836 0.591858 88.9608 0.376252 88.6055 0.229185C88.2502 0.0821186 87.8694 0.00647223 87.4849 0.0065651C87.1004 0.00665796 86.7196 0.0824882 86.3644 0.229726C86.0092 0.376964 85.6864 0.592727 85.4146 0.864694L83.3546 2.92469C80.8694 1.0266 77.8278 0.000662512 74.7006 0.00569434C66.8136 0.00669434 60.4196 6.39969 60.4196 14.2897C60.4196 22.1777 66.8136 28.5727 74.7016 28.5727ZM118.981 14.2897C118.981 22.1777 112.586 28.5727 104.697 28.5727C96.8086 28.5727 90.4136 22.1777 90.4136 14.2897C90.4136 6.39969 96.8086 0.00669434 104.697 0.00669434C112.586 0.00669434 118.981 6.40069 118.981 14.2897Z" fill="url(#paint0_linear_1498_5738)"/>
</g>
<defs>
<linearGradient id="paint0_linear_1498_5738" x1="0.499598" y1="15.9997" x2="119.5" y2="15.9997" gradientUnits="userSpaceOnUse">
<stop stop-color="#64C2DB"/>
<stop offset="0.307" stop-color="#7476ED"/>
<stop offset="0.604" stop-color="#C994DF"/>
<stop offset="1" stop-color="#E56F8C"/>
</linearGradient>
<clipPath id="clip0_1498_5738">
<rect width="125" height="40" fill="white" transform="translate(0.5)"/>
</clipPath>
</defs>
</svg>
