<svg width="25" height="24" viewBox="0 0 25 24" fill="none" xmlns="http://www.w3.org/2000/svg">
<path d="M18.3359 20.75H6.33594C3.91794 20.75 2.58594 19.418 2.58594 17V8C2.58594 5.582 3.91794 4.25 6.33594 4.25H18.3359C20.7539 4.25 22.0859 5.582 22.0859 8V17C22.0859 19.418 20.7539 20.75 18.3359 20.75ZM6.33594 5.75C4.75894 5.75 4.08594 6.423 4.08594 8V17C4.08594 18.577 4.75894 19.25 6.33594 19.25H18.3359C19.9129 19.25 20.5859 18.577 20.5859 17V8C20.5859 6.423 19.9129 5.75 18.3359 5.75H6.33594ZM13.365 13.179L18.2769 9.60699C18.6119 9.36399 18.6859 8.89401 18.4419 8.55901C18.1989 8.22501 17.731 8.149 17.394 8.394L12.4819 11.966C12.3939 12.03 12.277 12.03 12.189 11.966L7.27686 8.394C6.93886 8.149 6.472 8.22601 6.229 8.55901C5.985 8.89401 6.05904 9.36299 6.39404 9.60699L11.3059 13.18C11.6139 13.404 11.975 13.515 12.335 13.515C12.695 13.515 13.058 13.403 13.365 13.179Z" fill="white"/>
</svg>
