<svg width="37" height="42" viewBox="0 0 37 42" fill="none" xmlns="http://www.w3.org/2000/svg">
<path d="M20.8807 8.82687C20.3423 8.82622 19.812 8.96229 19.337 9.22297C18.8621 9.48366 18.4571 9.86089 18.1583 10.3211H6.00017C5.61009 9.72029 5.04225 9.26432 4.38058 9.02062C3.7189 8.77691 2.99848 8.7584 2.32577 8.96781C1.65306 9.17722 1.06376 9.60345 0.644938 10.1835C0.226117 10.7636 0 11.4667 0 12.189C0 12.9112 0.226117 13.6144 0.644938 14.1944C1.06376 14.7745 1.65306 15.2007 2.32577 15.4101C2.99848 15.6195 3.7189 15.601 4.38058 15.3573C5.04225 15.1136 5.61009 14.6576 6.00017 14.0568H18.1583C18.4722 14.5402 18.9026 14.9318 19.4076 15.1934C19.9127 15.4551 20.475 15.5777 21.0399 15.5495C21.6048 15.5213 22.153 15.3431 22.6309 15.0324C23.1089 14.7217 23.5003 14.289 23.7671 13.7765C24.0338 13.2641 24.1668 12.6893 24.1531 12.1083C24.1393 11.5273 23.9793 10.9599 23.6886 10.4614C23.3979 9.96291 22.9864 9.5503 22.4943 9.26384C22.0022 8.97737 21.4463 8.82682 20.8807 8.82687ZM3.28712 13.3846C3.05717 13.3822 2.83306 13.3099 2.64302 13.1769C2.45298 13.0438 2.30553 12.8559 2.21924 12.6369C2.13296 12.4179 2.1117 12.1775 2.15815 11.946C2.20461 11.7146 2.31669 11.5025 2.48028 11.3364C2.64386 11.1703 2.85163 11.0577 3.0774 11.0128C3.30316 10.9679 3.53682 10.9926 3.74893 11.0839C3.96103 11.1752 4.14208 11.329 4.26927 11.5258C4.39646 11.7227 4.46409 11.9539 4.46364 12.1902C4.46365 12.3483 4.43312 12.5048 4.37383 12.6506C4.31453 12.7965 4.22764 12.9288 4.1182 13.0399C4.00877 13.151 3.87895 13.2387 3.73629 13.2979C3.59363 13.3571 3.44096 13.3865 3.28712 13.3846ZM20.8901 13.3846C20.6596 13.3851 20.434 13.3152 20.2421 13.1839C20.0502 13.0526 19.9006 12.8657 19.8121 12.6469C19.7237 12.4281 19.7004 12.1872 19.7453 11.9548C19.7902 11.7225 19.9011 11.509 20.0642 11.3414C20.2272 11.1739 20.435 11.0599 20.6611 11.0138C20.8873 10.9677 21.1217 10.9916 21.3346 11.0825C21.5475 11.1733 21.7294 11.3271 21.8572 11.5243C21.985 11.7215 22.053 11.9532 22.0525 12.1902C22.0525 12.3478 22.0222 12.504 21.9632 12.6495C21.9042 12.7951 21.8177 12.9272 21.7087 13.0382C21.5998 13.1492 21.4706 13.237 21.3284 13.2965C21.1863 13.3559 21.0342 13.3859 20.8807 13.3846H20.8901Z" fill="url(#paint0_linear_2326_44872)"/>
<path d="M28.1477 35.2734C27.9327 35.273 27.7183 35.2948 27.5076 35.3387L15.5896 23.0896H20.0744C22.8631 23.0469 25.5236 21.8787 27.481 19.8371C29.4384 17.7956 30.5356 15.0447 30.5356 12.1788C30.5356 9.31293 29.4384 6.56207 27.481 4.52054C25.5236 2.47901 22.8631 1.31072 20.0744 1.26806H13.8342C13.3977 0.704429 12.7965 0.299823 12.1192 0.113891C11.442 -0.0720415 10.7245 -0.0294608 10.0726 0.235356C9.42066 0.500172 8.86879 0.973212 8.49832 1.58474C8.12786 2.19627 7.9584 2.91392 8.01493 3.63191C8.07146 4.3499 8.35099 5.03023 8.81231 5.5726C9.27363 6.11498 9.89233 6.4907 10.5772 6.64438C11.2621 6.79806 11.9769 6.72157 12.6162 6.42618C13.2556 6.13079 13.7857 5.63213 14.1283 5.00372H20.0744C21.9041 5.03823 23.6475 5.80935 24.9296 7.15119C26.2117 8.49303 26.93 10.2984 26.93 12.1788C26.93 14.0593 26.2117 15.8646 24.9296 17.2065C23.6475 18.5483 21.9041 19.3194 20.0744 19.354H13.9942C13.68 18.8709 13.2494 18.4798 12.7444 18.2187C12.2393 17.9575 11.6771 17.8352 11.1124 17.8637C10.5477 17.8923 9.99978 18.0706 9.5221 18.3814C9.04442 18.6922 8.65323 19.1249 8.38666 19.6372C8.12008 20.1495 7.9872 20.7241 8.00097 21.3049C8.01474 21.8857 8.17469 22.4529 8.46523 22.9513C8.75577 23.4497 9.16699 23.8623 9.65883 24.1488C10.1507 24.4353 10.7064 24.5861 11.2717 24.5863C11.4658 24.5858 11.6595 24.568 11.8506 24.5331L24.9358 37.979C24.8951 38.1958 24.8746 38.416 24.8746 38.6367C24.8746 39.3019 25.0666 39.9522 25.4262 40.5052C25.7859 41.0583 26.297 41.4894 26.8951 41.744C27.4932 41.9985 28.1513 42.0652 28.7862 41.9354C29.4211 41.8056 30.0043 41.4853 30.4621 41.0149C30.9198 40.5445 31.2315 39.9453 31.3578 39.2928C31.4841 38.6404 31.4193 37.9642 31.1716 37.3496C30.9239 36.7351 30.5043 36.2098 29.9661 35.8402C29.4278 35.4707 28.795 35.2734 28.1477 35.2734ZM11.2717 4.56608C11.0424 4.56369 10.8188 4.49177 10.6291 4.35934C10.4394 4.22692 10.2919 4.03988 10.2052 3.82168C10.1185 3.60348 10.0965 3.36384 10.1418 3.1328C10.1871 2.90177 10.2978 2.68962 10.46 2.52297C10.6221 2.35632 10.8286 2.24258 11.0534 2.19601C11.2783 2.14945 11.5115 2.17213 11.7238 2.26121C11.9362 2.3503 12.1182 2.50182 12.2471 2.69678C12.3759 2.89174 12.4459 3.12146 12.4483 3.35713C12.4498 3.51634 12.4205 3.67427 12.3619 3.82168C12.3033 3.96908 12.2167 4.103 12.1072 4.21559C11.9976 4.32817 11.8673 4.41716 11.7238 4.47735C11.5804 4.53753 11.4267 4.56769 11.2717 4.56608ZM11.2717 22.4271C11.0418 22.4247 10.8177 22.3524 10.6276 22.2194C10.4376 22.0863 10.2901 21.8984 10.2039 21.6794C10.1176 21.4603 10.0963 21.22 10.1428 20.9885C10.1892 20.7571 10.3013 20.545 10.4649 20.3789C10.6285 20.2128 10.8363 20.1002 11.062 20.0553C11.2878 20.0103 11.5214 20.0351 11.7335 20.1264C11.9456 20.2177 12.1267 20.3715 12.2539 20.5683C12.3811 20.7652 12.4487 20.9964 12.4483 21.2327C12.4483 21.3907 12.4177 21.5473 12.3584 21.6931C12.2991 21.839 12.2123 21.9713 12.1028 22.0824C11.9934 22.1935 11.8636 22.2812 11.7209 22.3404C11.5782 22.3995 11.4256 22.429 11.2717 22.4271ZM28.1477 39.836C27.9162 39.8374 27.6896 39.7679 27.4967 39.6364C27.3039 39.5049 27.1535 39.3173 27.0649 39.0976C26.9762 38.8779 26.9532 38.6361 26.9989 38.4029C27.0446 38.1697 27.1569 37.9558 27.3214 37.7885C27.4859 37.6212 27.6952 37.508 27.9225 37.4635C28.1499 37.4189 28.385 37.445 28.5979 37.5383C28.8108 37.6317 28.9918 37.7881 29.1178 37.9876C29.2438 38.1871 29.3091 38.4207 29.3054 38.6585C29.3023 38.9723 29.1791 39.2723 28.9624 39.4936C28.7458 39.7148 28.4531 39.8396 28.1477 39.8408V39.836Z" fill="url(#paint1_linear_2326_44872)"/>
<defs>
<linearGradient id="paint0_linear_2326_44872" x1="0.00464891" y1="12.1902" x2="24.1538" y2="12.1902" gradientUnits="userSpaceOnUse">
<stop stop-color="#29AAE1"/>
<stop offset="1" stop-color="#5000FF"/>
</linearGradient>
<linearGradient id="paint1_linear_2326_44872" x1="10.6976" y1="13.065" x2="43.1665" y2="31.3855" gradientUnits="userSpaceOnUse">
<stop stop-color="#29AAE1"/>
<stop offset="1" stop-color="#5000FF"/>
</linearGradient>
</defs>
</svg>
