<svg width="25" height="24" viewBox="0 0 25 24" fill="none" xmlns="http://www.w3.org/2000/svg">
<g clip-path="url(#clip0_1580_21061)">
<path d="M23.2136 0H1.78644C1.07596 0 0.5 0.575959 0.5 1.28644V22.7136C0.5 23.424 1.07596 24 1.78644 24H23.2136C23.924 24 24.5 23.424 24.5 22.7136V1.28644C24.5 0.575959 23.924 0 23.2136 0Z" fill="#87E64B"/>
<path d="M13.3777 21.5493C13.8506 21.5493 14.2319 21.1679 14.2319 20.6951C14.2319 20.2222 13.8506 19.8408 13.3777 19.8408C12.9048 19.8408 12.5234 20.2222 12.5234 20.6951C12.5234 21.1679 12.9048 21.5493 13.3777 21.5493Z" fill="#1D1D1B"/>
<path d="M18.2854 14.8783L13.4753 15.3918C13.3888 15.402 13.3431 15.2901 13.4142 15.2342L18.1227 11.5681C18.4278 11.3189 18.621 10.9274 18.5397 10.5105C18.4583 9.86978 17.9295 9.45283 17.2634 9.53927L12.1481 10.2867C12.0566 10.302 12.0108 10.185 12.082 10.1291L17.1515 6.25452C18.1532 5.47656 18.2346 3.94605 17.3193 3.05622C16.4854 2.22232 15.1532 2.24774 14.3193 3.08164L6.13797 11.4054C5.83288 11.741 5.69559 12.1833 5.77695 12.6562C5.91424 13.4088 6.66678 13.9071 7.41932 13.7698L11.8227 12.8698C11.9193 12.8494 11.9702 12.9766 11.8888 13.0325L7.00237 16.1596C6.3922 16.5511 6.11254 17.2427 6.30576 17.9393C6.49898 18.8545 7.41932 19.3833 8.30915 19.1647L15.6159 17.3647C15.6973 17.3444 15.7583 17.441 15.7075 17.5071L14.5685 18.9155C14.2634 19.3071 14.7617 19.8308 15.1786 19.5257L18.9312 16.4393C19.5973 15.885 19.1549 14.7969 18.2905 14.8833L18.2854 14.8783Z" fill="#1D1D1B"/>
</g>
<defs>
<clipPath id="clip0_1580_21061">
<rect x="0.5" width="24" height="24" rx="12" fill="white"/>
</clipPath>
</defs>
</svg>
