<svg width="16" height="17" viewBox="0 0 16 17" fill="none" xmlns="http://www.w3.org/2000/svg">
<g clip-path="url(#clip0_2475_21000)">
<path d="M7.4102 12.5112L7.3327 12.3792C6.14885 10.3622 3.00294 6.08168 2.97116 6.03869L2.92578 5.97704L3.99758 4.91781L7.3903 7.28685C9.52645 4.51489 11.5193 2.61097 12.8193 1.49916C14.2413 0.282947 15.167 -0.276956 15.1763 -0.282322L15.1973 -0.294922H17.0154L16.8418 -0.14026C12.3754 3.83795 7.53427 12.2932 7.48605 12.3782L7.4102 12.5112Z" fill="#4BB543"/>
<path d="M15.3824 6.58751C14.8644 6.58751 14.4424 7.00827 14.4424 7.52466V13.1858C14.4424 14.5246 13.349 15.6147 12.0062 15.6147H3.3162C1.97338 15.6147 0.879945 14.5246 0.879945 13.1858V4.52197C0.879945 3.18319 1.97338 2.09304 3.3162 2.09304H9.74254C10.2605 2.09304 10.6825 1.67228 10.6825 1.1559C10.6825 0.639509 10.2605 0.21875 9.74254 0.21875H3.3162C0.937495 0.21875 -1 2.15042 -1 4.52197V13.1858C-1 15.5573 0.937495 17.489 3.3162 17.489H12.0062C14.3849 17.489 16.3224 15.5573 16.3224 13.1858V7.52466C16.3224 7.00827 15.9003 6.58751 15.3824 6.58751Z" fill="#4BB543" fill-opacity="0.24"/>
</g>
<defs>
<clipPath id="clip0_2475_21000">
<rect width="16" height="16" fill="white" transform="translate(0 0.489258)"/>
</clipPath>
</defs>
</svg>
