<svg width="80" height="81" viewBox="0 0 80 81" fill="none" xmlns="http://www.w3.org/2000/svg">
<mask id="path-1-inside-1_1476_5758" fill="white">
<path d="M0 40.5C0 18.4086 17.9086 0.5 40 0.5C62.0914 0.5 80 18.4086 80 40.5C80 62.5914 62.0914 80.5 40 80.5C17.9086 80.5 0 62.5914 0 40.5Z"/>
</mask>
<path d="M-1 40.5C-1 17.8563 17.3563 -0.5 40 -0.5C62.6437 -0.5 81 17.8563 81 40.5H79C79 18.9609 61.5391 1.5 40 1.5C18.4609 1.5 1 18.9609 1 40.5H-1ZM81 45.5C81 68.1437 62.6437 86.5 40 86.5C17.3563 86.5 -1 68.1437 -1 45.5L1 40.5C1 59.2777 18.4609 74.5 40 74.5C61.5391 74.5 79 59.2777 79 40.5L81 45.5ZM40 86.5C17.3563 86.5 -1 68.1437 -1 45.5V40.5C-1 17.8563 17.3563 -0.5 40 -0.5V1.5C18.4609 1.5 1 18.9609 1 40.5C1 59.2777 18.4609 74.5 40 74.5V86.5ZM40 -0.5C62.6437 -0.5 81 17.8563 81 40.5V45.5C81 68.1437 62.6437 86.5 40 86.5V74.5C61.5391 74.5 79 59.2777 79 40.5C79 18.9609 61.5391 1.5 40 1.5V-0.5Z" fill="#93BBFD" mask="url(#path-1-inside-1_1476_5758)"/>
<path d="M23.334 41.9075C23.646 42.2195 23.646 42.7235 23.334 43.0355C23.174 43.1955 22.974 43.2755 22.766 43.2755C22.566 43.2755 22.358 43.1955 22.198 43.0355L20.23 41.0675C20.158 40.9955 20.094 40.9075 20.062 40.8115C20.046 40.7715 20.03 40.7395 20.03 40.6995C19.99 40.5715 19.99 40.4275 20.03 40.2995C20.03 40.2595 20.046 40.2275 20.062 40.1875C20.094 40.0915 20.158 40.0035 20.23 39.9315L22.198 37.9635C22.518 37.6515 23.022 37.6515 23.334 37.9635C23.646 38.2755 23.646 38.7795 23.334 39.0915L22.726 39.6995H28.038C28.478 39.6995 28.838 40.0595 28.838 40.4995C28.838 40.9395 28.478 41.2995 28.038 41.2995H22.726L23.334 41.9075Z" fill="#40444F"/>
<path d="M47.8863 32.611C47.5743 32.299 47.5743 31.787 47.8863 31.475L51.6383 27.723H50.7823C50.3423 27.723 49.9823 27.363 49.9823 26.923C49.9823 26.483 50.3423 26.123 50.7823 26.123H53.5743C53.7903 26.123 53.9903 26.211 54.1343 26.355C54.1743 26.395 54.2063 26.435 54.2383 26.475C54.2703 26.523 54.2943 26.571 54.3103 26.619C54.3423 26.699 54.3583 26.787 54.3663 26.875C54.3663 26.891 54.3743 26.907 54.3743 26.923V29.715C54.3743 30.155 54.0143 30.515 53.5743 30.515C53.1263 30.515 52.7743 30.155 52.7743 29.715V28.851L49.0143 32.611C48.8623 32.763 48.6543 32.843 48.4543 32.843C48.2463 32.843 48.0463 32.763 47.8863 32.611Z" fill="#40444F"/>
<path d="M37.4528 23.8356C37.1407 23.5236 37.1407 23.0196 37.4528 22.7076L39.4288 20.7316C39.5008 20.6596 39.5888 20.5956 39.6848 20.5636C39.7328 20.5396 39.7807 20.5236 39.8367 20.5156C40.0927 20.4596 40.3648 20.5396 40.5568 20.7316L40.5968 20.7716L42.5327 22.7076C42.8447 23.0196 42.8447 23.5236 42.5327 23.8356C42.3727 23.9956 42.1727 24.0756 41.9647 24.0756C41.7648 24.0756 41.5568 23.9956 41.4048 23.8356L40.7968 23.2276V28.5396C40.7968 28.9796 40.4368 29.3396 39.9968 29.3396C39.5488 29.3396 39.1968 28.9796 39.1968 28.5396V23.2276L38.5888 23.8356C38.2768 24.1476 37.7648 24.1476 37.4528 23.8356Z" fill="#40444F"/>
<path d="M54.3743 51.2833V54.0753C54.3743 54.0913 54.3663 54.1073 54.3663 54.1233C54.3583 54.2113 54.3423 54.2993 54.3103 54.3793C54.2943 54.4273 54.2703 54.4753 54.2383 54.5233C54.2063 54.5633 54.1743 54.6033 54.1343 54.6433C53.9903 54.7873 53.7903 54.8753 53.5743 54.8753H50.7823C50.3423 54.8753 49.9823 54.5153 49.9823 54.0753C49.9823 53.6353 50.3423 53.2753 50.7823 53.2753H51.6383L47.8863 49.5233C47.5743 49.2113 47.5743 48.7073 47.8863 48.3873C48.1983 48.0753 48.7023 48.0753 49.0143 48.3873L52.7743 52.1473V51.2833C52.7743 50.8433 53.1263 50.4833 53.5743 50.4833C54.0143 50.4833 54.3743 50.8433 54.3743 51.2833Z" fill="#40444F"/>
<path d="M59.9963 40.4995C59.9963 40.6035 59.9722 40.7075 59.9322 40.8035C59.9082 40.8515 59.8843 40.8995 59.8603 40.9475C59.8203 40.9875 59.7883 41.0275 59.7563 41.0675L59.7242 41.0995L57.7883 43.0355C57.6283 43.1955 57.4282 43.2755 57.2202 43.2755C57.0122 43.2755 56.8122 43.1955 56.6522 43.0355C56.3402 42.7235 56.3402 42.2195 56.6522 41.9075L57.2603 41.2995H51.9563C51.5083 41.2995 51.1562 40.9395 51.1562 40.4995C51.1562 40.0595 51.5083 39.6995 51.9563 39.6995H57.2603L56.6522 39.0915C56.3402 38.7795 56.3402 38.2755 56.6522 37.9635C56.9642 37.6515 57.4763 37.6515 57.7883 37.9635L59.7242 39.8995L59.7563 39.9315C59.7883 39.9715 59.8203 40.0115 59.8603 40.0515C59.8843 40.0995 59.9082 40.1475 59.9322 40.1955C59.9722 40.2915 59.9963 40.3955 59.9963 40.4995Z" fill="#40444F"/>
<path d="M32.1011 48.3873C32.4131 48.7073 32.4131 49.2113 32.1011 49.5233L28.3491 53.2753H29.2051C29.6531 53.2753 30.0051 53.6353 30.0051 54.0753C30.0051 54.5153 29.6531 54.8753 29.2051 54.8753H26.4211C26.3491 54.8753 26.2851 54.8673 26.2211 54.8433C26.1811 54.8433 26.1411 54.8273 26.1091 54.8113C26.0131 54.7713 25.9251 54.7153 25.8531 54.6433C25.7811 54.5713 25.7251 54.4833 25.6851 54.3873C25.6691 54.3473 25.6531 54.3153 25.6531 54.2753C25.6291 54.2113 25.6211 54.1473 25.6211 54.0753V51.2833C25.6211 50.8433 25.9731 50.4833 26.4211 50.4833C26.8611 50.4833 27.2211 50.8433 27.2211 51.2833V52.1393L30.9731 48.3873C31.2851 48.0753 31.7891 48.0753 32.1011 48.3873Z" fill="#40444F"/>
<path d="M32.1011 31.475C32.4131 31.787 32.4131 32.299 32.1011 32.611C31.9491 32.763 31.7411 32.843 31.5411 32.843C31.3331 32.843 31.1251 32.763 30.9731 32.611L27.2211 28.859V29.715C27.2211 30.155 26.8611 30.515 26.4211 30.515C25.9731 30.515 25.6211 30.155 25.6211 29.715V26.923C25.6211 26.851 25.6291 26.787 25.6531 26.723C25.6531 26.683 25.6691 26.651 25.6851 26.611C25.7251 26.515 25.7811 26.427 25.8531 26.355C25.9251 26.283 26.0131 26.227 26.1091 26.187C26.1411 26.171 26.1811 26.155 26.2211 26.155C26.2851 26.131 26.3491 26.123 26.4211 26.123H29.2051C29.6451 26.123 30.0051 26.483 30.0051 26.923C30.0051 27.363 29.6451 27.723 29.2051 27.723H28.3491L32.1011 31.475Z" fill="#40444F"/>
<path d="M42.5327 57.1632C42.8447 57.4752 42.8447 57.9792 42.5327 58.2912L40.5568 60.2672C40.4048 60.4192 40.1968 60.4992 39.9968 60.4992C39.9248 60.4992 39.8608 60.4912 39.7968 60.4672C39.7568 60.4672 39.7168 60.4512 39.6848 60.4352C39.5888 60.3952 39.5008 60.3392 39.4288 60.2672L37.4528 58.2912C37.1407 57.9792 37.1407 57.4752 37.4528 57.1632C37.7648 56.8512 38.2768 56.8512 38.5888 57.1632L39.1968 57.7712V52.4592C39.1968 52.0192 39.5488 51.6592 39.9968 51.6592C40.4368 51.6592 40.7968 52.0192 40.7968 52.4592V57.7632L41.3968 57.1632C41.7168 56.8512 42.2207 56.8512 42.5327 57.1632Z" fill="#40444F"/>
<path d="M35.7109 35.0439C35.7109 32.6759 37.6309 30.7559 39.9989 30.7559C42.3589 30.7559 44.2789 32.6759 44.2789 35.0439C44.2789 37.4039 42.3589 39.3239 39.9989 39.3239C37.6309 39.3239 35.7109 37.3959 35.7109 35.0439Z" fill="#8B5CF6"/>
<path d="M46.4797 44.9635V48.6195C46.4797 49.0595 46.1197 49.4195 45.6797 49.4195H34.3117C33.8717 49.4195 33.5117 49.0595 33.5117 48.6195V44.9635C33.5117 42.4435 35.5677 40.3955 38.0877 40.3955C38.3277 40.3955 38.5677 40.5075 38.7197 40.7075L39.9997 42.3555L41.2797 40.7075C41.4317 40.5075 41.6637 40.3955 41.9117 40.3955C44.4317 40.3955 46.4797 42.4435 46.4797 44.9635Z" fill="#8B5CF6"/>
</svg>
