<svg width="80" height="81" viewBox="0 0 80 81" fill="none" xmlns="http://www.w3.org/2000/svg">
<mask id="path-1-inside-1_1475_5061" fill="white">
<path d="M0 40.5C0 18.4086 17.9086 0.5 40 0.5C62.0914 0.5 80 18.4086 80 40.5C80 62.5914 62.0914 80.5 40 80.5C17.9086 80.5 0 62.5914 0 40.5Z"/>
</mask>
<path d="M-1 40.5C-1 17.8563 17.3563 -0.5 40 -0.5C62.6437 -0.5 81 17.8563 81 40.5H79C79 18.9609 61.5391 1.5 40 1.5C18.4609 1.5 1 18.9609 1 40.5H-1ZM81 45.5C81 68.1437 62.6437 86.5 40 86.5C17.3563 86.5 -1 68.1437 -1 45.5L1 40.5C1 59.2777 18.4609 74.5 40 74.5C61.5391 74.5 79 59.2777 79 40.5L81 45.5ZM40 86.5C17.3563 86.5 -1 68.1437 -1 45.5V40.5C-1 17.8563 17.3563 -0.5 40 -0.5V1.5C18.4609 1.5 1 18.9609 1 40.5C1 59.2777 18.4609 74.5 40 74.5V86.5ZM40 -0.5C62.6437 -0.5 81 17.8563 81 40.5V45.5C81 68.1437 62.6437 86.5 40 86.5V74.5C61.5391 74.5 79 59.2777 79 40.5C79 18.9609 61.5391 1.5 40 1.5V-0.5Z" fill="#93BBFD" mask="url(#path-1-inside-1_1475_5061)"/>
<path d="M57.5665 33.3271C57.5665 33.0162 57.819 32.7637 58.1299 32.7637C58.4382 32.7637 58.6907 33.0161 58.6907 33.3271V33.8293H59.1956C59.5066 33.8293 59.7563 34.0818 59.7563 34.3927C59.7563 34.7037 59.5065 34.9562 59.1956 34.9562H58.6907V35.4584C58.6907 35.7693 58.4382 36.0218 58.1299 36.0218C57.8191 36.0218 57.5665 35.7694 57.5665 35.4584V34.9562H57.0616C56.7507 34.9562 56.5008 34.7037 56.5008 34.3927C56.5008 34.0818 56.7507 33.8293 57.0616 33.8293H57.5665V33.3271ZM21.3078 33.3271C21.3078 33.0162 21.5603 32.7637 21.8713 32.7637C22.1823 32.7637 22.432 33.0161 22.432 33.3271V33.8293H22.9369C23.2478 33.8293 23.5004 34.0818 23.5004 34.3927C23.5004 34.7037 23.2479 34.9562 22.9369 34.9562H22.432V35.4584C22.432 35.7693 22.1822 36.0218 21.8713 36.0218C21.5604 36.0218 21.3078 35.7694 21.3078 35.4584V34.9562H20.8056C20.4947 34.9562 20.2422 34.7037 20.2422 34.3927C20.2422 34.0818 20.4947 33.8293 20.8056 33.8293H21.3078V33.3271ZM27.0613 25.5221C27.0613 25.2112 27.3111 24.9614 27.622 24.9614C27.9329 24.9614 28.1853 25.2112 28.1853 25.5221V26.0271H28.6903C29.0012 26.0271 29.251 26.2795 29.251 26.5878C29.251 26.8987 29.0012 27.1512 28.6903 27.1512H28.1853V27.6562C28.1853 27.967 27.9329 28.2169 27.622 28.2169C27.3111 28.2169 27.0613 27.967 27.0613 27.6562V27.1512H26.5563C26.2454 27.1512 25.9929 26.8987 25.9929 26.5878C25.9929 26.2795 26.2454 26.0271 26.5563 26.0271H27.0613V25.5221ZM21.3078 17.7197C21.3078 17.4087 21.5603 17.1562 21.8713 17.1562C22.1823 17.1562 22.432 17.4087 22.432 17.7197V18.2219H22.9369C23.2478 18.2219 23.5004 18.4744 23.5004 18.7853C23.5004 19.0963 23.2479 19.3461 22.9369 19.3461H22.432V19.851C22.432 20.162 22.1822 20.4144 21.8713 20.4144C21.5604 20.4144 21.3078 20.162 21.3078 19.851V19.3461H20.8056C20.4947 19.3461 20.2422 19.0962 20.2422 18.7853C20.2422 18.4745 20.4947 18.2219 20.8056 18.2219H21.3078V17.7197ZM51.8131 25.522C51.8131 25.2111 52.0655 24.9613 52.3764 24.9613C52.6873 24.9613 52.9398 25.2112 52.9398 25.522V26.027H53.4421C53.753 26.027 54.0055 26.2794 54.0055 26.5877C54.0055 26.8987 53.753 27.1511 53.4421 27.1511H52.9398V27.6561C52.9398 27.9669 52.6874 28.2168 52.3764 28.2168C52.0654 28.2168 51.8131 27.9669 51.8131 27.6561V27.1511H51.3108C50.9999 27.1511 50.7474 26.8987 50.7474 26.5877C50.7474 26.2794 50.9999 26.027 51.3108 26.027H51.8131V25.522ZM57.5665 17.7197C57.5665 17.4087 57.819 17.1562 58.1299 17.1562C58.4382 17.1562 58.6907 17.4087 58.6907 17.7197V18.2219H59.1956C59.5066 18.2219 59.7563 18.4744 59.7563 18.7853C59.7563 19.0963 59.5065 19.3461 59.1956 19.3461H58.6907V19.851C58.6907 20.162 58.4382 20.4144 58.1299 20.4144C57.8191 20.4144 57.5665 20.162 57.5665 19.851V19.3461H57.0616C56.7507 19.3461 56.5008 19.0962 56.5008 18.7853C56.5008 18.4745 56.7507 18.2219 57.0616 18.2219H57.5665V17.7197Z" fill="#FFDB12"/>
<path fill-rule="evenodd" clip-rule="evenodd" d="M56.0096 46.262L55.9405 46.3098C55.7278 45.0687 54.6357 44.3724 53.485 45.5843C51.2766 47.9043 48.1674 48.6164 45.7862 51.1252C44.0828 52.9216 43.3041 54.4789 42.9799 55.9671C42.661 57.4208 43.1739 58.5209 42.8842 60.2775L43.1473 62.1138H52.4617L52.5839 60.2775C52.4989 58.9753 52.4378 57.6413 54.4123 55.9511C56.8651 53.8517 59.0337 52.5682 60.2561 49.5068C61.7549 45.7544 64.6675 36.1476 61.9329 35.8632C61.2898 35.7969 60.8141 36.5967 60.4421 37.5507C59.023 41.2048 58.7998 43.2271 56.0094 46.262H56.0096Z" fill="#E2B698"/>
<path fill-rule="evenodd" clip-rule="evenodd" d="M56.0096 46.2618L55.9405 46.3096C55.7278 45.0686 54.6357 44.3723 53.485 45.5841C51.2766 47.9041 48.1674 48.6163 45.7862 51.125C44.0828 52.9215 43.3041 54.4787 42.9799 55.9669C42.661 57.4206 43.1739 58.5208 42.8842 60.2774L43.0968 61.7655H51.4599L51.5848 59.9293C51.4997 58.6271 51.436 57.293 53.4104 55.6029C55.8633 53.5035 58.0345 52.2199 59.2569 49.1585C60.5963 45.8021 63.065 37.7685 61.6168 35.9004C61.1304 36.0732 60.7504 36.7588 60.4422 37.5507C59.0231 41.2048 58.7998 43.227 56.0095 46.2619L56.0096 46.2618Z" fill="#EFC9AE"/>
<path fill-rule="evenodd" clip-rule="evenodd" d="M56.8141 45.3291C56.923 45.5762 57.0001 45.834 57.048 46.0997C57.2234 47.0963 56.9789 48.1353 56.458 48.9964C55.7059 50.2375 54.1168 51.5051 52.7029 52.4219C52.1289 52.7967 51.5443 51.8346 52.097 51.4759C53.5082 50.5538 54.9033 49.3924 55.4959 48.4145C55.9344 47.689 56.0487 46.9317 55.9424 46.3098L56.0115 46.262C56.3064 45.9431 56.5722 45.6322 56.8141 45.3293V45.3291Z" fill="#E2B698"/>
<path fill-rule="evenodd" clip-rule="evenodd" d="M42.8864 63.8435H52.5863C53.1842 63.8435 53.6758 63.3545 53.6758 62.7566V60.7901C53.6758 60.1921 53.1842 59.7031 52.5863 59.7031H42.8864C42.2885 59.7031 41.7969 60.1921 41.7969 60.7901V62.7566C41.7969 63.3545 42.2885 63.8435 42.8864 63.8435Z" fill="#609AFA"/>
<path fill-rule="evenodd" clip-rule="evenodd" d="M42.8865 63.8435H51.1619C51.7573 63.8435 52.2462 63.3545 52.2462 62.7566V60.7901C52.2462 60.1921 51.7572 59.7031 51.1592 59.7031H42.8838C42.2859 59.7031 41.7969 60.1921 41.7969 60.7901V62.7566C41.7969 63.3545 42.2885 63.8435 42.8864 63.8435H42.8865Z" fill="#3B82F6"/>
<path fill-rule="evenodd" clip-rule="evenodd" d="M49.2506 37.1539H50.3561C50.7892 37.1539 51.1454 37.51 51.1454 37.9432V40.877C51.1454 41.3129 50.7892 41.6663 50.3561 41.6663H49.2506C49.0168 42.6283 48.6367 43.5346 48.1372 44.3583L48.9185 45.1397C49.2241 45.4453 49.2241 45.9475 48.9185 46.2558L46.8429 48.3286C46.5373 48.6369 46.0351 48.6369 45.7267 48.3286L44.9454 47.5473C44.1217 48.0496 43.2181 48.4296 42.256 48.6635V49.7664C42.256 50.2022 41.9 50.5583 41.4667 50.5583H38.5328C38.097 50.5583 37.7436 50.2022 37.7436 49.7664V48.6635C36.7816 48.4297 35.8753 48.0496 35.0515 47.5473L34.2702 48.3286C33.9646 48.6369 33.4624 48.6369 33.154 48.3286L31.0812 46.2558C30.773 45.9476 30.773 45.4453 31.0812 45.1397L31.8625 44.3583C31.3602 43.5346 30.9802 42.6284 30.7463 41.6663H29.6435C29.2076 41.6663 28.8516 41.3129 28.8516 40.877V37.9432C28.8516 37.51 29.2077 37.1539 29.6435 37.1539H30.7463C30.9802 36.192 31.3602 35.2884 31.8625 34.4645L31.0812 33.6832C30.773 33.375 30.773 32.8726 31.0812 32.5671L33.154 30.4916C33.4623 30.186 33.9646 30.186 34.2702 30.4916L35.0542 31.2729C35.8753 30.7733 36.7815 30.3932 37.7436 30.1594V29.0539C37.7436 28.6207 38.097 28.2646 38.5328 28.2646H41.4667C41.8999 28.2646 42.256 28.6207 42.256 29.0539V30.1594C43.218 30.3933 44.1216 30.7733 44.9454 31.2729L45.7267 30.4916C46.035 30.186 46.5373 30.186 46.8429 30.4916L48.9185 32.5671C49.2241 32.8727 49.2241 33.375 48.9185 33.6832L48.1372 34.4645C48.6367 35.2883 49.0168 36.1919 49.2506 37.1539Z" fill="#24262D"/>
<path fill-rule="evenodd" clip-rule="evenodd" d="M40.0007 33.668C43.171 33.668 45.7435 36.2404 45.7435 39.4108C45.7435 42.5813 43.1711 45.1537 40.0007 45.1537C36.8302 45.1537 34.2578 42.5839 34.2578 39.4108C34.2578 36.2378 36.8276 33.668 40.0007 33.668Z" fill="#CAD1D8"/>
<path fill-rule="evenodd" clip-rule="evenodd" d="M40.8252 33.7285C43.6049 34.1271 45.7416 36.5189 45.7416 39.4102C45.7416 42.3016 43.6049 44.6933 40.8252 45.0946C38.0428 44.6933 35.9062 42.3016 35.9062 39.4102C35.9062 36.5189 38.0429 34.1271 40.8252 33.7285Z" fill="#E2E5E7"/>
<path fill-rule="evenodd" clip-rule="evenodd" d="M36.5253 36.9365C35.9805 35.5572 35.2418 34.5208 34.2877 33.0114C33.634 31.9723 33.2539 30.7392 33.2539 29.4185C33.2539 25.6954 36.2728 22.6738 39.9986 22.6738C43.7244 22.6738 46.7432 25.6954 46.7432 29.4185C46.7432 30.7392 46.3633 31.9723 45.7068 33.0114C44.7554 34.5208 44.014 35.5572 43.4718 36.9365H36.5253Z" fill="#F7CA4E"/>
<path fill-rule="evenodd" clip-rule="evenodd" d="M40.8807 22.7324C44.1893 23.1629 46.7458 25.9931 46.7458 29.4187C46.7458 30.7394 46.3658 31.9725 45.7094 33.0115C44.758 34.521 44.0166 35.5574 43.4744 36.9367H38.2897C37.7449 35.5574 37.0034 34.521 36.052 33.0115C35.3957 31.9725 35.0156 30.7394 35.0156 29.4187C35.0156 25.9931 37.5721 23.1629 40.8807 22.7324Z" fill="#FFDB12"/>
<path d="M41.7128 36.9369C41.7128 37.2477 41.4603 37.4976 41.1495 37.4976C40.8386 37.4976 40.586 37.2477 40.586 36.9369V31.5448H39.4141V36.9369C39.4141 37.2477 39.1616 37.4976 38.8506 37.4976C38.5397 37.4976 38.2899 37.2477 38.2899 36.9369V31.5448H37.599C37.0967 31.5448 36.6422 31.3402 36.3127 31.0134C35.9858 30.6838 35.7812 30.2294 35.7812 29.7298C35.7812 29.2276 35.9859 28.7731 36.3127 28.4436C36.6422 28.1167 37.0967 27.9121 37.599 27.9121C38.0986 27.9121 38.553 28.1168 38.8825 28.4436C39.2094 28.7731 39.414 29.2275 39.414 29.7298V30.4208H40.5859V29.7298C40.5859 29.2276 40.7906 28.7731 41.1201 28.4436C41.447 28.1167 41.9014 27.9121 42.4037 27.9121C42.9032 27.9121 43.3577 28.1168 43.6872 28.4436C44.0167 28.7731 44.2187 29.2275 44.2187 29.7298C44.2187 30.2294 44.0167 30.6839 43.6872 31.0134C43.3577 31.3403 42.9032 31.5448 42.4037 31.5448H41.7127V36.9369H41.7128ZM41.7128 29.7297V30.4207H42.4037C42.5951 30.4207 42.7679 30.3436 42.8927 30.216C43.0176 30.0911 43.0947 29.9184 43.0947 29.7297C43.0947 29.5384 43.0176 29.3656 42.8927 29.2407C42.7679 29.1159 42.5951 29.0388 42.4037 29.0388C42.2124 29.0388 42.0397 29.1159 41.9147 29.2407C41.7898 29.3656 41.7127 29.5384 41.7127 29.7297H41.7128ZM37.5991 30.4207H38.29V29.7297C38.29 29.5384 38.2129 29.3656 38.0853 29.2407C37.9605 29.1159 37.7877 29.0388 37.5991 29.0388C37.4077 29.0388 37.2349 29.1159 37.1101 29.2407C36.9852 29.3656 36.9081 29.5384 36.9081 29.7297C36.9081 29.9184 36.9852 30.0911 37.1101 30.216C37.2349 30.3436 37.4077 30.4207 37.5991 30.4207Z" fill="#FAA845"/>
<path d="M49.2595 22.7397C49.5279 22.5856 49.868 22.6786 50.0221 22.947C50.1762 23.2154 50.0859 23.5555 49.8175 23.7097L48.029 24.7434C47.7606 24.8976 47.4177 24.8046 47.2636 24.5362C47.1095 24.2678 47.2025 23.9249 47.4709 23.7708L49.2594 22.7396L49.2595 22.7397ZM39.4375 17.7197C39.4375 17.4087 39.6899 17.1562 40.0008 17.1562C40.3117 17.1562 40.5615 17.4087 40.5615 17.7197V19.7819C40.5615 20.0929 40.3117 20.3453 40.0008 20.3453C39.6899 20.3453 39.4375 20.0929 39.4375 19.7819V17.7197ZM34.0082 19.4763C33.8515 19.2079 33.9445 18.8624 34.2129 18.7083C34.4813 18.5542 34.8241 18.6445 34.9782 18.9129L36.012 20.7014C36.1661 20.9698 36.0758 21.3127 35.8074 21.4668C35.539 21.6235 35.1961 21.5305 35.0394 21.2621L34.0082 19.4763ZM30.1841 23.7097C29.9156 23.5555 29.8226 23.2154 29.9768 22.947C30.1309 22.6786 30.4737 22.5856 30.7421 22.7397L32.528 23.7709C32.7964 23.925 32.8894 24.2678 32.7353 24.5363C32.5811 24.8047 32.2383 24.8977 31.9699 24.7435L30.1841 23.7097ZM45.0207 18.9129C45.1749 18.6445 45.5203 18.5542 45.7887 18.7083C46.0571 18.8624 46.1475 19.2079 45.9907 19.4763L44.9595 21.2621C44.8054 21.5305 44.4599 21.6235 44.1915 21.4668C43.9258 21.3127 43.8327 20.9698 43.9896 20.7014L45.0207 18.9129Z" fill="#FFDB12"/>
<path fill-rule="evenodd" clip-rule="evenodd" d="M23.9871 46.261L24.0588 46.3088C24.2687 45.0678 25.361 44.3715 26.5143 45.5833C28.7201 47.9033 31.8293 48.6154 34.2131 51.1242C35.9139 52.9206 36.6925 54.4779 37.0194 55.9661C37.3356 57.4198 36.8227 58.5199 37.1151 60.2765L36.8493 62.1128H27.5375L27.4126 60.2765C27.4977 58.9743 27.5588 57.6403 25.5843 55.9502C23.1314 53.8507 20.9629 52.5672 19.7405 49.5058C18.2417 45.7534 15.3291 36.1466 18.0663 35.8623C18.7067 35.7959 19.1825 36.5958 19.5545 37.5498C20.9736 41.2038 21.1967 43.2261 23.9871 46.261Z" fill="#E2B698"/>
<path fill-rule="evenodd" clip-rule="evenodd" d="M23.9859 46.2618L24.0576 46.3096C24.2675 45.0686 25.3598 44.3723 26.5131 45.5841C28.7189 47.9041 31.8281 48.6163 34.2119 51.125C35.9127 52.9215 36.6913 54.4787 37.0182 55.9669C37.3344 57.4206 36.8215 58.5208 37.1139 60.2774L36.8986 61.7655H28.5355L28.4132 59.9293C28.4983 58.6271 28.5594 57.293 26.5849 55.6029C24.132 53.5035 21.9636 52.2199 20.7411 49.1585C19.3991 45.8021 16.9303 37.7685 18.3786 35.9004C18.865 36.0732 19.2449 36.7588 19.5532 37.5507C20.9723 41.2048 21.1955 43.227 23.9859 46.2619V46.2618Z" fill="#EFC9AE"/>
<path fill-rule="evenodd" clip-rule="evenodd" d="M23.1831 45.3291C23.0742 45.5762 22.9971 45.834 22.9519 46.0997C22.7739 47.0963 23.021 48.1353 23.5419 48.9964C24.2913 50.2375 25.8805 51.5051 27.2942 52.4219C27.8683 52.7967 28.4529 51.8346 27.9028 51.4759C26.489 50.5538 25.0964 49.3924 24.5039 48.4145C24.0654 47.689 23.9511 46.9317 24.0574 46.3098L23.9857 46.262C23.6908 45.9431 23.425 45.6322 23.1831 45.3293V45.3291Z" fill="#E2B698"/>
<path fill-rule="evenodd" clip-rule="evenodd" d="M37.1136 63.8435H27.4112C26.8132 63.8435 26.3242 63.3545 26.3242 62.7566V60.7901C26.3242 60.1921 26.8132 59.7031 27.4112 59.7031H37.1136C37.7116 59.7031 38.2006 60.1921 38.2006 60.7901V62.7566C38.2006 63.3545 37.7116 63.8435 37.1136 63.8435Z" fill="#609AFA"/>
<path fill-rule="evenodd" clip-rule="evenodd" d="M37.1163 63.8435H28.8408C28.2429 63.8435 27.7539 63.3545 27.7539 62.7566V60.7901C27.7539 60.1921 28.2455 59.7031 28.8435 59.7031H37.1189C37.7142 59.7031 38.2031 60.1921 38.2031 60.7901V62.7566C38.2031 63.3545 37.7141 63.8435 37.1162 63.8435H37.1163Z" fill="#3B82F6"/>
<path fill-rule="evenodd" clip-rule="evenodd" d="M37.4441 39.4824H42.5544C43.0594 39.4824 43.4713 39.0705 43.4713 38.5655V36.9365H36.5273V38.5655C36.5273 39.0705 36.9393 39.4824 37.4441 39.4824Z" fill="#889299"/>
<path fill-rule="evenodd" clip-rule="evenodd" d="M39.2057 39.4824H42.5542C43.0592 39.4824 43.4711 39.0705 43.4711 38.5655V36.9365H38.2891V38.5655C38.2891 39.0705 38.701 39.4824 39.2058 39.4824H39.2057Z" fill="#A0A9B0"/>
<path fill-rule="evenodd" clip-rule="evenodd" d="M38.3621 42.0309H41.6387C42.1437 42.0309 42.5556 41.6164 42.5556 41.1114V39.4824H37.4453V41.1114C37.4453 41.6164 37.8572 42.0309 38.3622 42.0309H38.3621Z" fill="#7B858C"/>
<path fill-rule="evenodd" clip-rule="evenodd" d="M40.1239 42.0309H41.6386C42.1436 42.0309 42.5555 41.6164 42.5555 41.1114V39.4824H39.207V41.1114C39.207 41.6164 39.619 42.0309 40.1239 42.0309Z" fill="#889299"/>
</svg>
