<svg width="46" height="47" viewBox="0 0 46 47" fill="none" xmlns="http://www.w3.org/2000/svg">
<path d="M10.0993 36.9829C9.68509 36.9829 9.34928 37.3187 9.34928 37.7329V39.3108H3.20012V37.7329C3.20012 37.3187 2.86431 36.9829 2.45012 36.9829C2.03594 36.9829 1.70012 37.3187 1.70012 37.7329V39.3108H0.320312V37.2899C0.320312 35.5639 1.85837 34.1598 3.74903 34.1598H8.80366C10.6943 34.1598 12.2324 35.5639 12.2324 37.2899V39.3108H10.8492V37.7329C10.8492 37.3187 10.5135 36.9829 10.0993 36.9829ZM42.2473 34.1599H37.1927C35.302 34.1599 33.7639 35.564 33.7639 37.29V39.3109H35.1438V37.733C35.1438 37.3188 35.4796 36.983 35.8938 36.983C36.3079 36.983 36.6438 37.3188 36.6438 37.733V39.3109H42.7929V37.733C42.7929 37.3188 43.1287 36.983 43.5429 36.983C43.9571 36.983 44.2929 37.3188 44.2929 37.733V39.3109H45.6761V37.29C45.6761 35.564 44.138 34.1599 42.2474 34.1599H42.2473ZM3.81559 25.4338C3.83725 25.4357 3.85881 25.4366 3.88019 25.4366C4.2655 25.4366 4.59316 25.1414 4.62663 24.7504C5.18997 18.1583 9.28291 12.3435 15.3084 9.57512C15.6848 9.40216 15.8497 8.95684 15.6768 8.58053C15.504 8.20422 15.0587 8.03912 14.6823 8.21209C8.167 11.2054 3.74125 17.4936 3.13216 24.6228C3.09691 25.0354 3.40291 25.3985 3.81559 25.4338ZM30.6877 9.57231C36.715 12.3429 40.8092 18.1598 41.3723 24.753C41.4057 25.144 41.7334 25.4392 42.1188 25.4392C42.1401 25.4392 42.1617 25.4383 42.1833 25.4365C42.596 25.4013 42.902 25.0381 42.8668 24.6254C42.2578 17.4953 37.8311 11.2051 31.3141 8.20938C30.9378 8.0365 30.4925 8.20122 30.3195 8.57763C30.1464 8.95403 30.3113 9.39934 30.6877 9.57231ZM34.2297 40.9664C30.9821 43.4621 27.0988 44.7812 22.9995 44.7812C18.9002 44.7812 15.014 43.4621 11.7665 40.9664C11.438 40.714 10.9673 40.7756 10.7148 41.1041C10.4625 41.4325 10.5241 41.9033 10.8525 42.1558C14.3646 44.8547 18.565 46.2812 22.9995 46.2812C27.4339 46.2812 31.6316 44.8547 35.1438 42.1558C35.4722 41.9034 35.5338 41.4326 35.2815 41.1041C35.029 40.7757 34.5582 40.714 34.2297 40.9664ZM22.9995 7.08944C24.8134 7.08944 25.6293 4.90197 25.6293 3.34862C25.6293 1.8985 24.4496 0.71875 22.9995 0.71875C21.5493 0.71875 20.3696 1.8985 20.3696 3.34862C20.3696 4.90197 21.1855 7.08944 22.9995 7.08944ZM18.4233 12.0465C18.4233 11.6323 18.7591 11.2965 19.1733 11.2965C19.5874 11.2965 19.9233 11.6323 19.9233 12.0465V13.6244H26.0724V12.0465C26.0724 11.6323 26.4082 11.2965 26.8224 11.2965C27.2366 11.2965 27.5724 11.6323 27.5724 12.0465V13.6244H28.9556V11.6034C28.9556 9.87747 27.4175 8.47338 25.5269 8.47338H20.4723C18.5816 8.47338 17.0435 9.87747 17.0435 11.6034V13.6244H18.4233L18.4233 12.0465ZM3.64638 29.0379C3.64638 30.5913 4.46238 32.779 6.27644 32.779C8.0905 32.779 8.9065 30.5913 8.9065 29.0379C8.9065 27.5877 7.72666 26.4078 6.27644 26.4078C4.82622 26.4078 3.64638 27.5877 3.64638 29.0379ZM39.72 26.4078C38.2697 26.4078 37.0898 27.5877 37.0898 29.0379C37.0898 30.5913 37.9058 32.779 39.72 32.779C41.5341 32.779 42.35 30.5913 42.35 29.0379C42.35 27.5877 41.1702 26.4078 39.72 26.4078ZM14.081 23.6176C14.0699 23.6176 14.0588 23.6178 14.0478 23.6183C12.0939 23.7051 10.5698 25.3552 10.6358 27.304C10.5697 29.2546 12.0944 30.9035 14.049 30.9872C14.0597 30.9876 14.0703 30.9878 14.081 30.9878H14.7108C15.125 30.9878 15.4608 30.652 15.4608 30.2378V25.1621C15.4608 20.9937 18.8509 17.6024 23.0179 17.6024C27.1849 17.6024 30.5777 20.9936 30.5777 25.1621V30.2378C30.5777 32.1732 29.0031 33.7476 27.0678 33.7476H24.5495C24.248 32.9711 23.4932 32.4189 22.6114 32.4189C21.4653 32.4189 20.5327 33.3514 20.5327 34.4976C20.5327 35.6438 21.4653 36.5763 22.6114 36.5763C23.4932 36.5763 24.248 36.0242 24.5495 35.2476H27.0678C29.5764 35.2476 31.6599 33.3942 32.0218 30.9849C33.9593 30.8847 35.4657 29.2438 35.4001 27.304C35.4661 25.3551 33.9432 23.705 31.9908 23.6183C31.9798 23.6178 31.9687 23.6176 31.9576 23.6176H31.9455C31.2102 19.3552 27.4871 16.1024 23.018 16.1024C18.549 16.1024 14.8282 19.3552 14.0932 23.6176H14.0812H14.081ZM17.6923 29.3338L18.1817 28L17.9724 27.4923L16.6818 26.8963V24.5014L17.9728 23.9052L18.1817 23.4L17.6925 22.0665L19.3858 20.3732L20.7197 20.8625L21.2265 20.6536L21.8197 19.3626H24.2192L24.8125 20.6536L25.3194 20.8625L26.6532 20.3732L28.3473 22.0671L27.8553 23.3998L28.0654 23.905L29.3544 24.5018V26.8957L28.0657 27.4923L27.8552 28L28.3473 29.333L26.6524 31.0278L25.3195 30.5358L24.8126 30.746L24.2189 32.0351H21.8203L21.2266 30.746L20.7198 30.5358L19.3867 31.0278L17.6927 29.3338H17.6923ZM20.1924 25.6989C20.1924 27.2568 21.4599 28.5243 23.0178 28.5243C24.5758 28.5243 25.8433 27.2568 25.8433 25.6989C25.8433 24.141 24.5758 22.8735 23.0178 22.8735C21.4599 22.8735 20.1924 24.141 20.1924 25.6989ZM23.0178 27.0243C23.7487 27.0243 24.3433 26.4298 24.3433 25.6989C24.3433 24.968 23.7487 24.3735 23.0178 24.3735C22.287 24.3735 21.6924 24.968 21.6924 25.6989C21.6924 26.4298 22.287 27.0243 23.0178 27.0243Z" fill="#3B82F6"/>
</svg>
