<svg width="48" height="49" viewBox="0 0 48 49" fill="none" xmlns="http://www.w3.org/2000/svg">
<g clip-path="url(#clip0_2439_17657)">
<path d="M15.6323 8.17026H32.4603C33.5349 8.17026 34.409 7.2961 34.409 6.22154V2.44872C34.409 1.37415 33.5349 0.5 32.4603 0.5H15.6323C14.5577 0.5 13.6836 1.37415 13.6836 2.44872V6.22154C13.6836 7.2961 14.5577 8.17026 15.6323 8.17026Z" fill="#3B82F6"/>
<path d="M34.8644 16.4612H35.9925C36.2758 16.4612 36.5053 16.2316 36.5053 15.9484C36.5053 15.6651 36.2758 15.4355 35.9925 15.4355H34.8644C34.5811 15.4355 34.3516 15.6651 34.3516 15.9484C34.3516 16.2316 34.5811 16.4612 34.8644 16.4612Z" fill="#3B82F6"/>
<path d="M32.0988 15.4355H23.4269C23.1437 15.4355 22.9141 15.6651 22.9141 15.9484C22.9141 16.2316 23.1437 16.4612 23.4269 16.4612H32.0988C32.3821 16.4612 32.6116 16.2316 32.6116 15.9484C32.6116 15.6651 32.3821 15.4355 32.0988 15.4355Z" fill="#3B82F6"/>
<path d="M11.6211 13.392V18.5058C11.6211 19.3541 12.3112 20.0443 13.1596 20.0443H18.28C19.1283 20.0443 19.8184 19.3541 19.8184 18.5058V13.392C19.8184 12.5437 19.1283 11.8535 18.28 11.8535H13.1596C12.3112 11.8535 11.6211 12.5437 11.6211 13.392ZM12.6467 13.392C12.6467 13.1092 12.8768 12.8792 13.1596 12.8792H18.28C18.5627 12.8792 18.7928 13.1092 18.7928 13.392V18.5058C18.7928 18.7886 18.5627 19.0186 18.28 19.0186H13.1596C12.8768 19.0186 12.6467 18.7886 12.6467 18.5058V13.392Z" fill="#3B82F6"/>
<path d="M14.975 17.4533C15.3394 17.7178 15.5891 17.5353 15.6896 17.4315L17.4728 15.5891C17.6697 15.3856 17.6645 15.0609 17.461 14.8639C17.2575 14.6671 16.9328 14.6724 16.7358 14.8757L15.2993 16.36L14.8823 15.9787C14.6733 15.7875 14.349 15.8019 14.1578 16.011C13.9667 16.22 13.9812 16.5443 14.1902 16.7354L14.975 17.4533Z" fill="#3B82F6"/>
<path d="M14.975 29.3507C15.3394 29.6152 15.5891 29.4328 15.6896 29.329L17.4728 27.4865C17.6697 27.283 17.6645 26.9583 17.461 26.7614C17.2575 26.5646 16.9328 26.5699 16.7358 26.7732L15.2993 28.2575L14.8823 27.8762C14.6733 27.685 14.349 27.6993 14.1578 27.9085C13.9667 28.1175 13.9812 28.4418 14.1902 28.6329L14.975 29.3507Z" fill="#3B82F6"/>
<path d="M35.9925 27.3096H34.8644C34.5811 27.3096 34.3516 27.5391 34.3516 27.8224C34.3516 28.1057 34.5811 28.3352 34.8644 28.3352H35.9925C36.2758 28.3352 36.5053 28.1057 36.5053 27.8224C36.5053 27.5391 36.2757 27.3096 35.9925 27.3096Z" fill="#3B82F6"/>
<path d="M32.6116 27.8224C32.6116 27.5391 32.3821 27.3096 32.0988 27.3096H23.4269C23.1437 27.3096 22.9141 27.5391 22.9141 27.8224C22.9141 28.1057 23.1437 28.3352 23.4269 28.3352H32.0988C32.3821 28.3352 32.6116 28.1056 32.6116 27.8224Z" fill="#3B82F6"/>
<path d="M23.4269 39.1836C23.1437 39.1836 22.9141 39.4131 22.9141 39.6964C22.9141 39.9797 23.1437 40.2092 23.4269 40.2092H27.7628C28.0461 40.2092 28.2756 39.9797 28.2756 39.6964C28.2756 39.4131 28.0461 39.1836 27.7628 39.1836H23.4269Z" fill="#3B82F6"/>
<path d="M43.2271 39.0707H40.6859C40.4982 38.3334 39.9177 37.7533 39.1801 37.5658V35.0333C39.1801 34.75 38.9505 34.5205 38.6673 34.5205C38.384 34.5205 38.1544 34.75 38.1544 35.0333V37.5658C37.2523 37.7952 36.582 38.6115 36.582 39.5835C36.582 40.7327 37.5174 41.6676 38.6673 41.6676C39.6397 41.6676 40.4564 40.9978 40.6859 40.0963H43.2271C43.5103 40.0963 43.7399 39.8668 43.7399 39.5835C43.7399 39.3002 43.5103 39.0707 43.2271 39.0707Z" fill="#3B82F6"/>
<path d="M36.3566 4.84791H38.0058C38.8541 4.84791 39.5443 5.53806 39.5443 6.38637V25.5522C39.5443 25.8355 39.7738 26.065 40.0571 26.065C40.3404 26.065 40.5699 25.8355 40.5699 25.5522V6.38637C40.5699 4.97252 39.4196 3.82227 38.0058 3.82227H36.3566C36.0733 3.82227 35.8438 4.0518 35.8438 4.33509C35.8438 4.61837 36.0733 4.84791 36.3566 4.84791Z" fill="#3B82F6"/>
<path d="M40.0627 28.9621C40.4598 28.9621 40.7817 28.6407 40.7817 28.2442C40.7817 27.8478 40.4598 27.5264 40.0627 27.5264C39.6656 27.5264 39.3438 27.8478 39.3438 28.2442C39.3438 28.6407 39.6656 28.9621 40.0627 28.9621Z" fill="#3B82F6"/>
<path d="M8.03626 28.8406C8.31944 28.8406 8.54908 28.6111 8.54908 28.3278V6.38637C8.54908 5.53806 9.23923 4.84791 10.0875 4.84791H11.7369C12.0201 4.84791 12.2497 4.61837 12.2497 4.33509C12.2497 4.0518 12.0201 3.82227 11.7369 3.82227H10.0875C8.67369 3.82227 7.52344 4.97252 7.52344 6.38637V28.3279C7.52344 28.6111 7.75308 28.8406 8.03626 28.8406Z" fill="#3B82F6"/>
<path d="M38.6671 30.666C33.7471 30.666 29.7445 34.666 29.7445 39.5828C29.7445 43.0028 31.6814 45.9788 34.5163 47.4739H20.9832C21.3058 47.0451 21.4974 46.5123 21.4974 45.9355V38.2677C21.4974 37.9844 21.2678 37.7549 20.9846 37.7549C20.7014 37.7549 20.4718 37.9844 20.4718 38.2677V45.9356C20.4718 46.7839 19.7816 47.474 18.9333 47.474H2.97426C2.12595 47.474 1.4358 46.7839 1.4358 45.9356V36.2165H20.9846C21.2678 36.2165 21.4974 35.987 21.4974 35.7037V33.4558C21.4974 32.3025 20.7319 31.3248 19.6824 31.0036C19.7681 30.8125 19.8173 30.6017 19.8173 30.379V25.265C19.8173 24.4167 19.1272 23.7266 18.2789 23.7266H13.1585C12.3102 23.7266 11.62 24.4167 11.62 25.265V30.379C11.62 30.559 11.6524 30.7312 11.7097 30.8917H2.97426C1.56041 30.8917 0.410156 32.0419 0.410156 33.4558V45.9356C0.410156 47.3494 1.56041 48.4997 2.97426 48.4997H38.6671C43.5871 48.4997 47.5896 44.4996 47.5896 39.5829C47.5896 34.6662 43.5871 30.666 38.6671 30.666ZM12.6456 25.265C12.6456 24.9823 12.8757 24.7522 13.1585 24.7522H18.2789C18.5616 24.7522 18.7917 24.9823 18.7917 25.265V30.379C18.7917 30.6613 18.5622 30.8912 18.2799 30.8917H13.1575C12.8753 30.8912 12.6457 30.6613 12.6457 30.379L12.6456 25.265ZM39.1799 47.4556V46.6389C39.1799 46.3556 38.9504 46.126 38.6671 46.126C38.3838 46.126 38.1543 46.3556 38.1543 46.6389V47.4556C34.2081 47.2013 31.0432 44.039 30.7886 40.0956H31.6062C31.8894 40.0956 32.119 39.866 32.119 39.5828C32.119 39.2995 31.8894 39.0699 31.6062 39.0699H30.7886C31.0432 35.1267 34.2081 31.9643 38.1543 31.71V32.5268C38.1543 32.8101 38.3838 33.0396 38.6671 33.0396C38.9504 33.0396 39.1799 32.8101 39.1799 32.5268V31.71C43.1261 31.9643 46.291 35.1267 46.5455 39.0699H45.728C45.4447 39.0699 45.2152 39.2995 45.2152 39.5828C45.2152 39.866 45.4447 40.0956 45.728 40.0956H46.5455C46.2909 44.039 43.1261 47.2013 39.1799 47.4556Z" fill="#3B82F6"/>
<path d="M12.6847 38.9785C12.4015 38.9785 12.1719 39.2081 12.1719 39.4913V44.2C12.1719 44.4832 12.4015 44.7128 12.6847 44.7128H17.3975C17.6807 44.7128 17.9103 44.4832 17.9103 44.2V39.4913C17.9103 39.2081 17.6807 38.9785 17.3975 38.9785H12.6847Z" fill="#3B82F6"/>
<path d="M4.51282 38.9785C4.22964 38.9785 4 39.2081 4 39.4913V44.2C4 44.4832 4.22964 44.7128 4.51282 44.7128H9.22564C9.50882 44.7128 9.73846 44.4832 9.73846 44.2V39.4913C9.73846 39.2081 9.50882 38.9785 9.22564 38.9785H4.51282ZM8.71282 43.6871H5.02564V40.0042H8.71282V43.6871Z" fill="#3B82F6"/>
</g>
<defs>
<clipPath id="clip0_2439_17657">
<rect width="48" height="48" fill="white" transform="translate(0 0.5)"/>
</clipPath>
</defs>
</svg>
