<svg width="16" height="16" viewBox="0 0 16 16" fill="none" xmlns="http://www.w3.org/2000/svg">
<path d="M7.9987 1.33398C4.3187 1.33398 1.33203 4.32065 1.33203 8.00065C1.33203 11.6807 4.3187 14.6673 7.9987 14.6673C11.6787 14.6673 14.6654 11.6807 14.6654 8.00065C14.6654 4.32065 11.6787 1.33398 7.9987 1.33398ZM10.6854 6.80066L7.57202 9.90731C7.47869 10.0073 7.35202 10.054 7.21869 10.054C7.09202 10.054 6.96536 10.0073 6.86536 9.90731L5.31203 8.354C5.1187 8.16067 5.1187 7.84063 5.31203 7.6473C5.50537 7.45397 5.82536 7.45397 6.0187 7.6473L7.21869 8.84733L9.9787 6.09399C10.172 5.89399 10.492 5.89399 10.6854 6.09399C10.8787 6.28733 10.8787 6.60066 10.6854 6.80066Z" fill="#329457"/>
</svg>
