<svg width="60" height="24" viewBox="0 0 60 24" fill="none" xmlns="http://www.w3.org/2000/svg">
<path d="M15.5842 7.52162C15.0226 7.17416 14.2898 7 13.3857 7H9.88563C9.60848 7 9.45536 7.12475 9.42627 7.37401L8.00446 15.4066C7.98969 15.4855 8.01162 15.5576 8.07006 15.6232C8.12816 15.6889 8.20125 15.7216 8.28877 15.7216H9.9513C10.2429 15.7216 10.4032 15.5972 10.4326 15.3476L10.8263 13.182C10.8407 13.0771 10.8919 12.9917 10.9795 12.926C11.0669 12.8604 11.1763 12.8175 11.3076 12.7979C11.4388 12.7784 11.5626 12.7685 11.6795 12.7685C11.796 12.7685 11.9345 12.7752 12.0952 12.7883C12.2555 12.8013 12.3576 12.8078 12.4014 12.8078C13.6555 12.8078 14.6399 12.4897 15.3546 11.8529C16.069 11.2165 16.4266 10.3339 16.4266 9.20486C16.4266 8.43049 16.1456 7.86945 15.5842 7.52144V7.52162ZM13.7796 9.93356C13.7065 10.393 13.5171 10.6948 13.2109 10.8392C12.9046 10.9838 12.4671 11.0558 11.8984 11.0558L11.1765 11.0754L11.5484 8.96873C11.5774 8.82448 11.6722 8.75226 11.8327 8.75226H12.2485C12.8316 8.75226 13.2547 8.82791 13.5173 8.97859C13.7796 9.12964 13.8672 9.44804 13.7796 9.93356Z" fill="#003087"/>
<path d="M52.5227 7H50.9041C50.7432 7 50.6485 7.07221 50.6197 7.2167L49.1977 15.4069L49.1758 15.4463C49.1758 15.5122 49.2049 15.5743 49.2634 15.6334C49.3214 15.6924 49.3947 15.7219 49.4821 15.7219H50.9261C51.2027 15.7219 51.3559 15.5975 51.3855 15.3479L52.8073 7.29547V7.27592C52.8073 7.09207 52.7122 7.00024 52.5227 7.00024V7Z" fill="#009CDE"/>
<path d="M32.9681 10.1682C32.9681 10.1027 32.9388 10.0403 32.8808 9.98134C32.8223 9.92231 32.7566 9.89258 32.6839 9.89258H30.9995C30.8387 9.89258 30.7075 9.95853 30.6056 10.0894L28.2868 13.1608L27.3243 10.2077C27.251 9.99783 27.0908 9.89258 26.8431 9.89258H25.2021C25.1291 9.89258 25.0635 9.92219 25.0055 9.98134C24.947 10.0403 24.918 10.1028 24.918 10.1682C24.918 10.1946 25.0602 10.5817 25.3445 11.3298C25.6288 12.0782 25.9351 12.8854 26.2632 13.7517C26.5914 14.6179 26.7626 15.0775 26.7773 15.1296C25.5813 16.5998 24.9836 17.3873 24.9836 17.4922C24.9836 17.663 25.0782 17.7482 25.268 17.7482H26.9524C27.1127 17.7482 27.2439 17.6827 27.3462 17.5514L32.9246 10.3059C32.9535 10.2799 32.9681 10.2342 32.9681 10.1681V10.1682Z" fill="#003087"/>
<path d="M48.6509 9.89367H46.9883C46.7839 9.89367 46.6604 10.1103 46.6166 10.5435C46.2369 10.0187 45.5447 9.75586 44.5382 9.75586C43.4882 9.75586 42.5949 10.1103 41.8586 10.8191C41.122 11.5279 40.7539 12.3616 40.7539 13.3196C40.7539 14.0942 41.0055 14.711 41.5085 15.1702C42.0116 15.6299 42.686 15.8593 43.5322 15.8593C43.955 15.8593 44.3852 15.7804 44.8227 15.6231C45.2602 15.4656 45.6026 15.2557 45.851 14.9931C45.851 15.0062 45.8361 15.0651 45.8073 15.17C45.7778 15.2752 45.7634 15.3543 45.7634 15.4063C45.7634 15.6166 45.858 15.7213 46.0479 15.7213H47.5574C47.8341 15.7213 47.9947 15.5968 48.0383 15.3473L48.9354 10.2086C48.9497 10.1298 48.928 10.0578 48.8697 9.99206C48.8111 9.92658 48.7383 9.89367 48.6509 9.89367ZM45.7962 13.7724C45.4243 14.1006 44.9758 14.2645 44.4508 14.2645C44.0277 14.2645 43.6853 14.1597 43.4226 13.9496C43.16 13.74 43.0288 13.4512 43.0288 13.0833C43.0288 12.598 43.2111 12.1875 43.5758 11.8528C43.9399 11.5181 44.3924 11.3508 44.932 11.3508C45.34 11.3508 45.6792 11.4591 45.9492 11.6755C46.2188 11.8922 46.3541 12.1908 46.3541 12.5715C46.354 13.044 46.168 13.4444 45.7962 13.7724Z" fill="#009CDE"/>
<path d="M23.7995 9.89367H22.137C21.9325 9.89367 21.8088 10.1103 21.765 10.5435C21.3712 10.0187 20.6785 9.75586 19.6868 9.75586C18.6368 9.75586 17.7434 10.1103 17.007 10.8191C16.2704 11.5279 15.9023 12.3616 15.9023 13.3196C15.9023 14.0942 16.154 14.711 16.6571 15.1702C17.1603 15.6299 17.8346 15.8593 18.6806 15.8593C19.0887 15.8593 19.5119 15.7804 19.9493 15.6231C20.3868 15.4656 20.7368 15.2557 20.9993 14.9931C20.9408 15.1504 20.9118 15.2883 20.9118 15.4063C20.9118 15.6166 21.0066 15.7213 21.1962 15.7213H22.7056C22.9825 15.7213 23.1431 15.5968 23.1869 15.3473L24.0837 10.2086C24.0981 10.1298 24.0763 10.0578 24.0181 9.99206C23.9598 9.92658 23.8869 9.89367 23.7995 9.89367ZM20.9448 13.7822C20.5728 14.1041 20.1169 14.2645 19.5776 14.2645C19.1544 14.2645 18.8154 14.1597 18.5603 13.9496C18.305 13.74 18.1775 13.4512 18.1775 13.0833C18.1775 12.598 18.3597 12.1875 18.7244 11.8528C19.0888 11.5181 19.5409 11.3508 20.0807 11.3508C20.4888 11.3508 20.8279 11.4591 21.098 11.6755C21.3676 11.8922 21.5026 12.1908 21.5026 12.5715C21.5026 13.0572 21.3167 13.4609 20.9448 13.7822Z" fill="#003087"/>
<path d="M40.4359 7.52162C39.8744 7.17416 39.1418 7 38.2375 7H34.7592C34.4675 7 34.3069 7.12475 34.278 7.37401L32.856 15.4066C32.8412 15.4855 32.8632 15.5576 32.9217 15.6232C32.9795 15.6889 33.0528 15.7216 33.1403 15.7216H34.934C35.109 15.7216 35.2256 15.6364 35.2841 15.4657L35.6779 13.182C35.6924 13.0771 35.7434 12.9917 35.8311 12.926C35.9186 12.8604 36.0279 12.8175 36.1593 12.7979C36.2904 12.7784 36.4142 12.7685 36.5311 12.7685C36.6477 12.7685 36.7861 12.7752 36.9467 12.7883C37.107 12.8013 37.2094 12.8078 37.2529 12.8078C38.5073 12.8078 39.4915 12.4897 40.2062 11.8529C40.9208 11.2165 41.2781 10.3339 41.2781 9.20486C41.2781 8.43049 40.9972 7.86939 40.4359 7.52144V7.52162ZM38.1937 10.7603C37.8729 10.9572 37.3915 11.0556 36.75 11.0556L36.0499 11.0753L36.4218 8.9686C36.4507 8.82442 36.5455 8.75208 36.7061 8.75208H37.0997C37.4206 8.75208 37.6758 8.76526 37.8656 8.79144C38.0549 8.8178 38.2375 8.8997 38.4125 9.03745C38.5876 9.17532 38.675 9.37559 38.675 9.63797C38.675 10.1894 38.5144 10.5633 38.1937 10.7603Z" fill="#009CDE"/>
</svg>
