<svg width="40" height="24" viewBox="0 0 40 24" fill="none" xmlns="http://www.w3.org/2000/svg">
<g clip-path="url(#clip0_2504_16853)">
<path d="M34.4267 7.52734H32.3312C31.6977 7.52734 31.2104 7.70278 30.918 8.27296L26.9219 16.4747H29.7484C29.7484 16.4747 30.2357 15.3782 30.3332 15.1151C30.6256 15.1151 33.4034 15.1151 33.7932 15.1151C33.8907 15.4221 34.1343 16.4309 34.1343 16.4309H36.6685L34.4267 7.52734ZM31.1129 13.273C31.3566 12.7466 32.185 10.773 32.185 10.773C32.185 10.8168 32.4287 10.2466 32.5262 9.93962L32.7211 10.7291C32.7211 10.7291 33.2572 12.8782 33.3546 13.3168H31.1129V13.273Z" fill="#3362AB"/>
<path d="M27.1196 13.5349C27.1196 15.377 25.2678 16.6051 22.3925 16.6051C21.1742 16.6051 20.0046 16.3858 19.3711 16.1226L19.761 14.1051L20.1021 14.2366C20.9793 14.5875 21.5641 14.7191 22.6362 14.7191C23.4159 14.7191 24.2444 14.4559 24.2444 13.8419C24.2444 13.4472 23.9033 13.184 22.8311 12.7454C21.8077 12.3068 20.4432 11.6051 20.4432 10.3331C20.4432 8.57874 22.3438 7.39453 25.0241 7.39453C26.0475 7.39453 26.9247 7.56997 27.4608 7.78927L27.0709 9.71909L26.876 9.54365C26.3886 9.36822 25.7551 9.19278 24.8292 9.19278C23.8058 9.23664 23.3185 9.63137 23.3185 9.98225C23.3185 10.377 23.9033 10.684 24.8292 11.0787C26.3886 11.7366 27.1196 12.4823 27.1196 13.5349Z" fill="#3362AB"/>
<path d="M3.33594 7.61489L3.38467 7.43945H7.5757C8.1605 7.43945 8.5991 7.61489 8.74529 8.18507L9.67122 12.1324C8.74529 10.0272 6.60104 8.31665 3.33594 7.61489Z" fill="#F9B50B"/>
<path d="M15.5712 7.52628L11.3314 16.4298H8.45618L6.01953 8.97365C7.77392 9.98242 9.23591 11.5614 9.77197 12.6579L10.0644 13.5789L12.6959 7.48242H15.5712V7.52628Z" fill="#3362AB"/>
<path d="M16.69 7.48242H19.3703L17.6647 16.4298H14.9844L16.69 7.48242Z" fill="#3362AB"/>
</g>
<defs>
<clipPath id="clip0_2504_16853">
<rect width="40" height="24" fill="white"/>
</clipPath>
</defs>
</svg>
