<svg width="170" height="42" viewBox="0 0 170 42" fill="none" xmlns="http://www.w3.org/2000/svg">
<g id="Logo" clip-path="url(#clip0_1498_5825)">
<path id="Vector" d="M51.8594 28.6375H63.8114V25.0375H56.1074V11.4775H51.8594V28.6375Z" fill="#340E0E"/>
<path id="Vector_2" d="M70.8918 26.2377C69.1878 26.2377 68.2998 24.7497 68.2998 22.5177C68.2998 20.2857 69.1878 18.7737 70.8918 18.7737C72.5958 18.7737 73.5078 20.2857 73.5078 22.5177C73.5078 24.7497 72.5958 26.2377 70.8918 26.2377ZM70.9158 29.0217C74.8758 29.0217 77.4678 26.2137 77.4678 22.5177C77.4678 18.8217 74.8758 16.0137 70.9158 16.0137C66.9798 16.0137 64.3398 18.8217 64.3398 22.5177C64.3398 26.2137 66.9798 29.0217 70.9158 29.0217Z" fill="#340E0E"/>
<path id="Vector_3" d="M84.3226 32.8862C86.1466 32.8862 87.7546 32.4782 88.8346 31.5182C89.8186 30.6302 90.4666 29.2862 90.4666 27.4382V16.3502H86.7226V17.6702H86.6746C85.9546 16.6382 84.8506 15.9902 83.2186 15.9902C80.1706 15.9902 78.0586 18.5342 78.0586 22.1342C78.0586 25.9022 80.6266 27.9662 83.3866 27.9662C84.8746 27.9662 85.8106 27.3662 86.5306 26.5502H86.6266V27.7742C86.6266 29.2622 85.9306 30.1262 84.2746 30.1262C82.9786 30.1262 82.3306 29.5742 82.1146 28.9262H78.3226C78.7066 31.4942 80.9386 32.8862 84.3226 32.8862ZM84.2986 25.0622C82.8346 25.0622 81.8746 23.8622 81.8746 22.0142C81.8746 20.1422 82.8346 18.9422 84.2986 18.9422C85.9306 18.9422 86.7946 20.3342 86.7946 21.9902C86.7946 23.7182 86.0026 25.0622 84.2986 25.0622Z" fill="#340E0E"/>
<path id="Vector_4" d="M98.1653 26.2377C96.4613 26.2377 95.5733 24.7497 95.5733 22.5177C95.5733 20.2857 96.4613 18.7737 98.1653 18.7737C99.8693 18.7737 100.781 20.2857 100.781 22.5177C100.781 24.7497 99.8693 26.2377 98.1653 26.2377ZM98.1893 29.0217C102.149 29.0217 104.741 26.2137 104.741 22.5177C104.741 18.8217 102.149 16.0137 98.1893 16.0137C94.2533 16.0137 91.6133 18.8217 91.6133 22.5177C91.6133 26.2137 94.2533 29.0217 98.1893 29.0217Z" fill="#340E0E"/>
<path id="Vector_5" d="M105.883 28.6375H109.795V16.3495H105.883V28.6375ZM105.883 14.6455H109.795V11.4775H105.883V14.6455Z" fill="#340E0E"/>
<path id="Vector_6" d="M111.492 32.6942H115.404V27.3662H115.452C116.22 28.3982 117.348 29.0222 118.932 29.0222C122.148 29.0222 124.284 26.4782 124.284 22.4942C124.284 18.7982 122.292 15.9902 119.028 15.9902C117.348 15.9902 116.148 16.7342 115.308 17.8382H115.236V16.3502H111.492V32.6942ZM117.924 25.9982C116.244 25.9982 115.284 24.6302 115.284 22.6382C115.284 20.6462 116.148 19.1342 117.852 19.1342C119.532 19.1342 120.324 20.5262 120.324 22.6382C120.324 24.7262 119.412 25.9982 117.924 25.9982Z" fill="#340E0E"/>
<path id="Vector_7" d="M130.656 29.0222C133.872 29.0222 136.248 27.6302 136.248 24.9422C136.248 21.7982 133.704 21.2462 131.544 20.8862C129.984 20.5982 128.592 20.4782 128.592 19.6142C128.592 18.8462 129.336 18.4862 130.296 18.4862C131.376 18.4862 132.12 18.8222 132.264 19.9262H135.864C135.672 17.5022 133.8 15.9902 130.32 15.9902C127.416 15.9902 125.016 17.3342 125.016 19.9262C125.016 22.8062 127.296 23.3822 129.432 23.7422C131.064 24.0302 132.552 24.1502 132.552 25.2542C132.552 26.0462 131.808 26.4782 130.632 26.4782C129.336 26.4782 128.52 25.8782 128.376 24.6542H124.68C124.8 27.3662 127.056 29.0222 130.656 29.0222Z" fill="#340E0E"/>
<path id="Vector_8" d="M141.562 28.9976C143.266 28.9976 144.346 28.3256 145.234 27.1256H145.306V28.6376H149.05V16.3496H145.138V23.2136C145.138 24.6776 144.322 25.6856 142.978 25.6856C141.73 25.6856 141.13 24.9416 141.13 23.5976V16.3496H137.242V24.4136C137.242 27.1496 138.73 28.9976 141.562 28.9976Z" fill="#340E0E"/>
<path id="Vector_9" d="M150.75 28.6382H154.662V21.7502C154.662 20.2862 155.382 19.2542 156.606 19.2542C157.782 19.2542 158.334 20.0222 158.334 21.3422V28.6382H162.246V21.7502C162.246 20.2862 162.942 19.2542 164.19 19.2542C165.366 19.2542 165.918 20.0222 165.918 21.3422V28.6382H169.83V20.6462C169.83 17.8862 168.438 15.9902 165.654 15.9902C164.07 15.9902 162.75 16.6622 161.79 18.1502H161.742C161.118 16.8302 159.894 15.9902 158.286 15.9902C156.51 15.9902 155.334 16.8302 154.566 18.1022H154.494V16.3502H150.75V28.6382Z" fill="#340E0E"/>
<path id="Vector_10" fill-rule="evenodd" clip-rule="evenodd" d="M20.6836 40.6377C31.7293 40.6377 40.6836 31.6834 40.6836 20.6377C40.6836 9.592 31.7293 0.637695 20.6836 0.637695C9.63788 0.637695 0.683594 9.592 0.683594 20.6377C0.683594 31.6834 9.63788 40.6377 20.6836 40.6377ZM26.9229 9.95453C27.2266 8.87574 26.1797 8.23782 25.2236 8.91899L11.8767 18.4273C10.8398 19.166 11.0029 20.6377 12.1217 20.6377H15.6363V20.6105H22.4861L16.9048 22.5798L14.4443 31.3209C14.1406 32.3997 15.1874 33.0376 16.1436 32.3564L29.4905 22.8482C30.5274 22.1095 30.3642 20.6377 29.2455 20.6377H23.9157L26.9229 9.95453Z" fill="#F15757"/>
</g>
<defs>
<clipPath id="clip0_1498_5825">
<rect width="170" height="41" fill="white" transform="translate(0 0.5)"/>
</clipPath>
</defs>
</svg>
