<svg width="192" height="42" viewBox="0 0 192 42" fill="none" xmlns="http://www.w3.org/2000/svg">
<g clip-path="url(#clip0_214_834)">
<path d="M20.8807 8.82638C20.3423 8.82573 19.812 8.9618 19.337 9.22248C18.8621 9.48317 18.4571 9.8604 18.1583 10.3206H6.00017C5.61009 9.7198 5.04225 9.26383 4.38058 9.02013C3.7189 8.77642 2.99848 8.75791 2.32577 8.96732C1.65306 9.17673 1.06376 9.60296 0.644938 10.183C0.226117 10.7631 0 11.4662 0 12.1885C0 12.9107 0.226117 13.6139 0.644938 14.1939C1.06376 14.774 1.65306 15.2002 2.32577 15.4096C2.99848 15.619 3.7189 15.6005 4.38058 15.3568C5.04225 15.1131 5.61009 14.6571 6.00017 14.0563H18.1583C18.4722 14.5397 18.9026 14.9314 19.4076 15.193C19.9127 15.4546 20.475 15.5772 21.0399 15.549C21.6048 15.5208 22.153 15.3426 22.6309 15.0319C23.1089 14.7212 23.5003 14.2885 23.7671 13.776C24.0338 13.2636 24.1668 12.6888 24.1531 12.1078C24.1393 11.5269 23.9793 10.9594 23.6886 10.4609C23.3979 9.96242 22.9864 9.54981 22.4943 9.26335C22.0022 8.97689 21.4463 8.82634 20.8807 8.82638ZM3.28712 13.3841C3.05717 13.3817 2.83306 13.3095 2.64302 13.1764C2.45298 13.0433 2.30553 12.8554 2.21924 12.6364C2.13296 12.4174 2.1117 12.177 2.15815 11.9456C2.20461 11.7141 2.31669 11.502 2.48028 11.3359C2.64386 11.1698 2.85163 11.0572 3.0774 11.0123C3.30316 10.9674 3.53682 10.9921 3.74893 11.0834C3.96103 11.1747 4.14208 11.3285 4.26927 11.5254C4.39646 11.7222 4.46409 11.9534 4.46364 12.1897C4.46365 12.3478 4.43312 12.5043 4.37383 12.6501C4.31453 12.796 4.22764 12.9283 4.1182 13.0394C4.00877 13.1506 3.87895 13.2382 3.73629 13.2974C3.59363 13.3566 3.44096 13.386 3.28712 13.3841ZM20.8901 13.3841C20.6596 13.3846 20.434 13.3148 20.2421 13.1834C20.0502 13.0521 19.9006 12.8652 19.8121 12.6464C19.7237 12.4276 19.7004 12.1868 19.7453 11.9544C19.7902 11.722 19.9011 11.5085 20.0642 11.341C20.2272 11.1734 20.435 11.0594 20.6611 11.0133C20.8873 10.9672 21.1217 10.9911 21.3346 11.082C21.5475 11.1729 21.7294 11.3266 21.8572 11.5238C21.985 11.721 22.053 11.9528 22.0525 12.1897C22.0525 12.3474 22.0222 12.5035 21.9632 12.649C21.9042 12.7946 21.8177 12.9267 21.7087 13.0377C21.5998 13.1488 21.4706 13.2365 21.3284 13.296C21.1863 13.3554 21.0342 13.3854 20.8807 13.3841H20.8901Z" fill="url(#paint0_linear_214_834)"/>
<path d="M28.9539 35.2734C28.739 35.273 28.5246 35.2948 28.3139 35.3387L16.3958 23.0896H20.8807C23.6694 23.0469 26.3298 21.8787 28.2872 19.8371C30.2446 17.7956 31.3418 15.0447 31.3418 12.1788C31.3418 9.31293 30.2446 6.56207 28.2872 4.52054C26.3298 2.47901 23.6694 1.31072 20.8807 1.26806H14.6405C14.2039 0.704429 13.6027 0.299823 12.9255 0.113891C12.2482 -0.0720415 11.5308 -0.0294608 10.8789 0.235356C10.2269 0.500172 9.67506 0.973212 9.3046 1.58474C8.93413 2.19627 8.76467 2.91392 8.82121 3.63191C8.87774 4.3499 9.15726 5.03023 9.61858 5.5726C10.0799 6.11498 10.6986 6.4907 11.3835 6.64438C12.0683 6.79806 12.7831 6.72157 13.4225 6.42618C14.0619 6.13079 14.5919 5.63213 14.9346 5.00372H20.8807C22.7104 5.03823 24.4538 5.80935 25.7359 7.15119C27.018 8.49303 27.7363 10.2984 27.7363 12.1788C27.7363 14.0593 27.018 15.8646 25.7359 17.2065C24.4538 18.5483 22.7104 19.3194 20.8807 19.354H14.8005C14.4863 18.8709 14.0557 18.4798 13.5506 18.2187C13.0456 17.9575 12.4833 17.8352 11.9186 17.8637C11.3539 17.8923 10.8061 18.0706 10.3284 18.3814C9.85069 18.6922 9.45951 19.1249 9.19293 19.6372C8.92635 20.1495 8.79348 20.7241 8.80725 21.3049C8.82102 21.8857 8.98096 22.4529 9.2715 22.9513C9.56204 23.4497 9.97327 23.8623 10.4651 24.1488C10.9569 24.4353 11.5126 24.5861 12.078 24.5863C12.2721 24.5858 12.4658 24.568 12.6569 24.5331L25.7421 37.979C25.7013 38.1958 25.6809 38.416 25.6809 38.6367C25.6809 39.3019 25.8728 39.9522 26.2325 40.5052C26.5921 41.0583 27.1033 41.4894 27.7014 41.744C28.2995 41.9985 28.9576 42.0652 29.5925 41.9354C30.2274 41.8056 30.8106 41.4853 31.2683 41.0149C31.7261 40.5445 32.0378 39.9453 32.1641 39.2928C32.2904 38.6404 32.2256 37.9642 31.9779 37.3496C31.7301 36.7351 31.3106 36.2098 30.7724 35.8402C30.2341 35.4707 29.6013 35.2734 28.9539 35.2734ZM12.078 4.56608C11.8487 4.56369 11.6251 4.49177 11.4354 4.35934C11.2457 4.22692 11.0982 4.03988 11.0115 3.82168C10.9248 3.60348 10.9027 3.36384 10.9481 3.1328C10.9934 2.90177 11.1041 2.68962 11.2662 2.52297C11.4284 2.35632 11.6349 2.24258 11.8597 2.19601C12.0845 2.14945 12.3178 2.17213 12.5301 2.26121C12.7424 2.3503 12.9245 2.50182 13.0533 2.69678C13.1822 2.89174 13.2522 3.12146 13.2545 3.35713C13.2561 3.51634 13.2267 3.67427 13.1682 3.82168C13.1096 3.96908 13.023 4.103 12.9134 4.21559C12.8039 4.32817 12.6736 4.41716 12.5301 4.47735C12.3867 4.53753 12.233 4.56769 12.078 4.56608ZM12.078 22.4271C11.8481 22.4247 11.6239 22.3524 11.4339 22.2194C11.2439 22.0863 11.0964 21.8984 11.0101 21.6794C10.9239 21.4603 10.9026 21.22 10.949 20.9885C10.9955 20.7571 11.1076 20.545 11.2712 20.3789C11.4348 20.2128 11.6425 20.1002 11.8683 20.0553C12.0941 20.0103 12.3277 20.0351 12.5398 20.1264C12.7519 20.2177 12.933 20.3715 13.0602 20.5683C13.1874 20.7652 13.255 20.9964 13.2545 21.2327C13.2545 21.3907 13.224 21.5473 13.1647 21.6931C13.1054 21.839 13.0185 21.9713 12.9091 22.0824C12.7997 22.1935 12.6698 22.2812 12.5272 22.3404C12.3845 22.3995 12.2319 22.429 12.078 22.4271ZM28.9539 39.836C28.7225 39.8374 28.4959 39.7679 28.303 39.6364C28.1101 39.5049 27.9598 39.3173 27.8711 39.0976C27.7825 38.8779 27.7595 38.6361 27.8052 38.4029C27.8509 38.1697 27.9631 37.9558 28.1276 37.7885C28.2921 37.6212 28.5014 37.508 28.7288 37.4635C28.9562 37.4189 29.1913 37.445 29.4042 37.5383C29.6171 37.6317 29.7981 37.7881 29.9241 37.9876C30.0501 38.1871 30.1154 38.4207 30.1116 38.6585C30.1085 38.9723 29.9854 39.2723 29.7687 39.4936C29.5521 39.7148 29.2594 39.8396 28.9539 39.8408V39.836Z" fill="url(#paint1_linear_214_834)"/>
<path d="M42.9145 17.6083L42.5827 15.4177H38.3472V34.3571H42.9074V24.3688C42.9074 20.8725 45.1146 19.5668 47.5076 19.5668C48.1086 19.5384 48.709 19.6326 49.2744 19.8438C49.8398 20.055 50.3589 20.3792 50.8018 20.7976L52.856 16.7258C51.8466 15.6885 50.0159 14.9196 48.11 14.9196C46.2417 14.9196 44.3357 15.2654 42.9145 17.6083ZM69.0331 18.0315C67.9954 16.1479 65.6424 14.9632 63.1764 14.9632C57.7927 14.9245 53.569 18.3482 53.569 24.8766C53.569 31.5209 57.6068 34.9785 63.0635 34.9398C65.12 34.9012 68.0048 33.8252 69.0449 31.5983L69.2802 34.3644H73.5791V15.4177H69.1931L69.0331 18.0315ZM63.5741 30.6287C60.5481 30.6287 58.1174 28.4792 58.1174 24.8693C58.1174 21.2594 60.5481 19.1461 63.5741 19.1461C70.7649 19.1461 70.7649 30.6287 63.5858 30.6287H63.5741ZM91.3233 17.647V15.4177H76.5581V19.6829H84.7019L75.8851 32.3962V34.3571H91.3986V29.7462H82.8383L91.3233 17.647ZM94.1258 34.3571H98.686V15.3428H94.1258V34.3571ZM93.714 10.079C93.714 13.73 99.0977 13.73 99.0977 10.079C99.0977 6.42798 93.714 6.4304 93.714 10.079ZM113.115 15.1107C110.797 15.1107 108.929 16.0778 107.06 17.9541L106.762 15.3815H102.686V34.3571H107.209V24.6855C107.209 21.8058 109.115 19.3855 111.915 19.3855C114.83 19.3855 116.362 21.5737 116.362 24.4631V34.3765H120.939V24.4075C120.939 18.4546 117.451 15.1107 113.115 15.1107ZM132.41 22.7174C130.057 22.5626 128.972 21.8711 128.972 20.6428C128.972 19.4532 130.167 18.7617 132.337 18.7617C134.092 18.7617 135.589 19.1824 136.897 20.4542L139.431 17.3811C137.302 15.4467 135.132 14.8834 132.254 14.8834C128.889 14.8834 124.489 16.4212 124.489 20.8C124.489 25.1014 128.638 26.4071 132.113 26.6755C134.73 26.8302 135.777 27.367 135.777 28.6727C135.777 30.0557 134.17 30.9793 132.45 30.9406C130.395 30.902 127.405 29.7873 126.096 28.281L123.852 31.6225C126.543 34.5022 129.459 35.0076 132.377 35.0076C137.645 35.0076 140.299 32.1254 140.299 28.7839C140.29 23.7547 135.88 22.9422 132.402 22.7174H132.41ZM151.886 15.0357C146.017 15.0357 142.353 19.4895 142.353 24.9056C142.353 30.3603 145.942 34.7779 151.923 34.7779C157.905 34.7779 161.531 30.3603 161.531 24.9056C161.524 19.4895 157.747 15.0357 151.879 15.0357H151.886ZM151.923 30.4764C148.596 30.4764 146.914 27.7877 146.914 24.9152C146.914 22.0742 148.634 19.3081 151.923 19.3081C154.982 19.3081 156.933 22.0742 156.933 24.9152C156.926 27.778 155.243 30.4764 151.916 30.4764H151.923ZM166.164 14.4216V15.6885H162.719V19.799H166.157V34.3571H170.717V19.799H176.129V15.6885H170.717V14.4216C170.717 12.1149 171.915 11.0365 173.484 11.0365C174.425 11.0365 175.317 11.3823 176.289 12.0351L177.969 8.53881C176.548 7.56515 174.884 7.03293 173.176 7.00586C169.484 7.00586 166.157 9.35122 166.157 14.4216H166.164ZM190.718 29.7849C190.032 30.1415 189.278 30.338 188.51 30.3603C187.099 30.3603 186.12 29.4778 186.12 27.6716V19.4895H191.24V15.4467H186.157V10.079L181.595 10.5795V15.4467H178.157V19.4798H181.595V27.662C181.595 32.3866 184.212 34.7295 188.212 34.5772C189.512 34.5626 190.799 34.2918 192 33.7793L190.718 29.7849Z" fill="#141935"/>
</g>
<defs>
<linearGradient id="paint0_linear_214_834" x1="0.00464891" y1="12.1897" x2="24.1538" y2="12.1897" gradientUnits="userSpaceOnUse">
<stop stop-color="#29AAE1"/>
<stop offset="1" stop-color="#5000FF"/>
</linearGradient>
<linearGradient id="paint1_linear_214_834" x1="11.5039" y1="13.065" x2="43.9728" y2="31.3855" gradientUnits="userSpaceOnUse">
<stop stop-color="#29AAE1"/>
<stop offset="1" stop-color="#5000FF"/>
</linearGradient>
<clipPath id="clip0_214_834">
<rect width="192" height="42" fill="white"/>
</clipPath>
</defs>
</svg>
