<svg width="104" height="24" viewBox="0 0 104 24" fill="none" xmlns="http://www.w3.org/2000/svg">
<path d="M12.1719 22C17.6947 22 22.1719 17.5228 22.1719 12C22.1719 6.47715 17.6947 2 12.1719 2C6.64905 2 2.1719 6.47715 2.1719 12C2.1719 13.5114 2.50722 14.9446 3.10752 16.229L2.39489 20.6245C2.28537 21.3 2.87141 21.8834 3.5464 21.7709L7.90172 21.045C9.1967 21.6575 10.6443 22 12.1719 22Z" stroke="white" stroke-width="1.5" stroke-linecap="square" stroke-linejoin="round"/>
<path d="M10.1719 9L6.17188 15L10.1719 12L14.1719 15L18.1719 9L14.1719 12L10.1719 9Z" fill="white"/>
<path d="M34.4819 17H33.3619V7.2H34.5939L38.2339 15.46L41.8599 7.2H43.0779V17H41.9579V9.412L38.6259 17H37.8279L34.4819 9.412V17ZM48.2895 17.098C47.6362 17.098 47.0528 16.9393 46.5395 16.622C46.0355 16.3047 45.6388 15.8707 45.3495 15.32C45.0602 14.7693 44.9155 14.1393 44.9155 13.43C44.9155 12.7487 45.0602 12.142 45.3495 11.61C45.6388 11.078 46.0355 10.6627 46.5395 10.364C47.0435 10.056 47.6175 9.902 48.2615 9.902C48.8962 9.902 49.4608 10.042 49.9555 10.322C50.4595 10.602 50.8515 10.9893 51.1315 11.484C51.4115 11.9787 51.5422 12.5433 51.5235 13.178C51.5235 13.2807 51.5188 13.388 51.5095 13.5C51.5002 13.612 51.4908 13.7333 51.4815 13.864H46.0635C46.0822 14.3027 46.1895 14.69 46.3855 15.026C46.5815 15.362 46.8382 15.628 47.1555 15.824C47.4822 16.0107 47.8508 16.104 48.2615 16.104C48.8028 16.104 49.2602 16.0013 49.6335 15.796C50.0162 15.5907 50.2915 15.2967 50.4595 14.914L51.3695 15.278C51.0895 15.866 50.6835 16.3187 50.1515 16.636C49.6195 16.944 48.9988 17.098 48.2895 17.098ZM50.3755 12.954C50.3848 12.5527 50.2962 12.198 50.1095 11.89C49.9322 11.582 49.6802 11.3393 49.3535 11.162C49.0268 10.9847 48.6488 10.896 48.2195 10.896C47.8462 10.896 47.5055 10.9847 47.1975 11.162C46.8895 11.3393 46.6328 11.5867 46.4275 11.904C46.2315 12.212 46.1148 12.562 46.0775 12.954H50.3755ZM53.8258 14.858C53.8818 15.138 53.9845 15.3713 54.1338 15.558C54.2832 15.7353 54.4745 15.8707 54.7078 15.964C54.9505 16.0573 55.2305 16.104 55.5478 16.104C56.0425 16.104 56.4158 16.0107 56.6678 15.824C56.9292 15.628 57.0598 15.3853 57.0598 15.096C57.0598 14.8533 56.9805 14.6573 56.8218 14.508C56.6725 14.3587 56.4718 14.2373 56.2198 14.144C55.9678 14.0413 55.6878 13.9527 55.3798 13.878C55.1372 13.822 54.8758 13.7567 54.5958 13.682C54.3158 13.598 54.0498 13.486 53.7978 13.346C53.5458 13.206 53.3405 13.024 53.1818 12.8C53.0232 12.576 52.9438 12.282 52.9438 11.918C52.9438 11.5167 53.0512 11.1667 53.2658 10.868C53.4898 10.56 53.7932 10.322 54.1758 10.154C54.5678 9.986 55.0158 9.902 55.5198 9.902C56.0985 9.902 56.6118 10.028 57.0598 10.28C57.5172 10.532 57.8345 10.924 58.0118 11.456L57.0318 11.792C56.9665 11.5493 56.8452 11.3627 56.6678 11.232C56.4998 11.1013 56.3085 11.0127 56.0938 10.966C55.8885 10.9193 55.6832 10.896 55.4778 10.896C55.0578 10.896 54.7172 10.98 54.4558 11.148C54.2038 11.3067 54.0778 11.5493 54.0778 11.876C54.0778 12.0533 54.1198 12.2027 54.2038 12.324C54.2878 12.436 54.4045 12.5293 54.5538 12.604C54.7032 12.6787 54.8805 12.744 55.0858 12.8C55.2912 12.8467 55.5152 12.9027 55.7578 12.968C56.0285 13.0333 56.3038 13.1173 56.5838 13.22C56.8638 13.3133 57.1252 13.4393 57.3678 13.598C57.6105 13.7473 57.8065 13.9433 57.9558 14.186C58.1145 14.4193 58.1938 14.7133 58.1938 15.068C58.1938 15.4787 58.0818 15.838 57.8578 16.146C57.6338 16.4447 57.3212 16.678 56.9198 16.846C56.5278 17.014 56.0705 17.098 55.5478 17.098C54.8292 17.098 54.2318 16.9393 53.7558 16.622C53.2892 16.2953 52.9765 15.8193 52.8178 15.194L53.8258 14.858ZM60.4704 14.858C60.5264 15.138 60.629 15.3713 60.7784 15.558C60.9277 15.7353 61.119 15.8707 61.3524 15.964C61.595 16.0573 61.875 16.104 62.1924 16.104C62.687 16.104 63.0604 16.0107 63.3124 15.824C63.5737 15.628 63.7044 15.3853 63.7044 15.096C63.7044 14.8533 63.625 14.6573 63.4664 14.508C63.317 14.3587 63.1164 14.2373 62.8644 14.144C62.6124 14.0413 62.3324 13.9527 62.0244 13.878C61.7817 13.822 61.5204 13.7567 61.2404 13.682C60.9604 13.598 60.6944 13.486 60.4424 13.346C60.1904 13.206 59.985 13.024 59.8264 12.8C59.6677 12.576 59.5884 12.282 59.5884 11.918C59.5884 11.5167 59.6957 11.1667 59.9104 10.868C60.1344 10.56 60.4377 10.322 60.8204 10.154C61.2124 9.986 61.6604 9.902 62.1644 9.902C62.743 9.902 63.2564 10.028 63.7044 10.28C64.1617 10.532 64.479 10.924 64.6564 11.456L63.6764 11.792C63.611 11.5493 63.4897 11.3627 63.3124 11.232C63.1444 11.1013 62.953 11.0127 62.7384 10.966C62.533 10.9193 62.3277 10.896 62.1224 10.896C61.7024 10.896 61.3617 10.98 61.1004 11.148C60.8484 11.3067 60.7224 11.5493 60.7224 11.876C60.7224 12.0533 60.7644 12.2027 60.8484 12.324C60.9324 12.436 61.049 12.5293 61.1984 12.604C61.3477 12.6787 61.525 12.744 61.7304 12.8C61.9357 12.8467 62.1597 12.9027 62.4024 12.968C62.673 13.0333 62.9484 13.1173 63.2284 13.22C63.5084 13.3133 63.7697 13.4393 64.0124 13.598C64.255 13.7473 64.451 13.9433 64.6004 14.186C64.759 14.4193 64.8384 14.7133 64.8384 15.068C64.8384 15.4787 64.7264 15.838 64.5024 16.146C64.2784 16.4447 63.9657 16.678 63.5644 16.846C63.1724 17.014 62.715 17.098 62.1924 17.098C61.4737 17.098 60.8764 16.9393 60.4004 16.622C59.9337 16.2953 59.621 15.8193 59.4624 15.194L60.4704 14.858ZM69.4809 17.098C68.8276 17.098 68.2442 16.9393 67.7309 16.622C67.2269 16.3047 66.8302 15.8707 66.5409 15.32C66.2516 14.7693 66.1069 14.1393 66.1069 13.43C66.1069 12.7487 66.2516 12.142 66.5409 11.61C66.8302 11.078 67.2269 10.6627 67.7309 10.364C68.2349 10.056 68.8089 9.902 69.4529 9.902C70.0876 9.902 70.6522 10.042 71.1469 10.322C71.6509 10.602 72.0429 10.9893 72.3229 11.484C72.6029 11.9787 72.7336 12.5433 72.7149 13.178C72.7149 13.2807 72.7102 13.388 72.7009 13.5C72.6916 13.612 72.6822 13.7333 72.6729 13.864H67.2549C67.2736 14.3027 67.3809 14.69 67.5769 15.026C67.7729 15.362 68.0296 15.628 68.3469 15.824C68.6736 16.0107 69.0422 16.104 69.4529 16.104C69.9942 16.104 70.4516 16.0013 70.8249 15.796C71.2076 15.5907 71.4829 15.2967 71.6509 14.914L72.5609 15.278C72.2809 15.866 71.8749 16.3187 71.3429 16.636C70.8109 16.944 70.1902 17.098 69.4809 17.098ZM71.5669 12.954C71.5762 12.5527 71.4876 12.198 71.3009 11.89C71.1236 11.582 70.8716 11.3393 70.5449 11.162C70.2182 10.9847 69.8402 10.896 69.4109 10.896C69.0376 10.896 68.6969 10.9847 68.3889 11.162C68.0809 11.3393 67.8242 11.5867 67.6189 11.904C67.4229 12.212 67.3062 12.562 67.2689 12.954H71.5669ZM74.4432 10H75.4092L75.4652 10.994C75.6892 10.6487 75.9832 10.3827 76.3472 10.196C76.7112 10 77.1359 9.902 77.6212 9.902C78.1532 9.902 78.6199 10.0187 79.0212 10.252C79.4226 10.476 79.7352 10.8167 79.9592 11.274C80.1832 11.722 80.2952 12.2867 80.2952 12.968V17H79.2452V13.094C79.2452 12.366 79.0866 11.8153 78.7692 11.442C78.4612 11.0593 78.0132 10.868 77.4252 10.868C76.8186 10.868 76.3426 11.0687 75.9972 11.47C75.6612 11.8713 75.4932 12.464 75.4932 13.248V17H74.4432V10ZM87.7079 10H88.6739V15.712C88.6739 16.5707 88.4826 17.3033 88.0999 17.91C87.7172 18.526 87.1619 18.9927 86.4339 19.31C85.7059 19.6367 84.8192 19.8 83.7739 19.8L83.6059 18.834C84.9219 18.8153 85.9206 18.54 86.6019 18.008C87.2832 17.4853 87.6239 16.72 87.6239 15.712V15.558L87.7359 15.586C87.5212 15.9967 87.1992 16.3513 86.7699 16.65C86.3406 16.9393 85.7852 17.0887 85.1039 17.098C84.4599 17.098 83.8952 16.9533 83.4099 16.664C82.9339 16.3653 82.5606 15.9453 82.2899 15.404C82.0286 14.8627 81.8979 14.228 81.8979 13.5C81.8979 12.772 82.0286 12.142 82.2899 11.61C82.5606 11.0687 82.9339 10.6487 83.4099 10.35C83.8952 10.0513 84.4599 9.902 85.1039 9.902C85.5239 9.902 85.8972 9.96733 86.2239 10.098C86.5506 10.2193 86.8306 10.3873 87.0639 10.602C87.2972 10.8073 87.4886 11.0407 87.6379 11.302L87.7079 10ZM83.0319 13.5C83.0319 14.3027 83.2372 14.942 83.6479 15.418C84.0679 15.8847 84.6326 16.118 85.3419 16.118C85.7712 16.118 86.1586 16.0153 86.5039 15.81C86.8492 15.6047 87.1199 15.306 87.3159 14.914C87.5212 14.522 87.6239 14.0507 87.6239 13.5C87.6239 12.9493 87.5212 12.4827 87.3159 12.1C87.1199 11.708 86.8492 11.4093 86.5039 11.204C86.1586 10.9893 85.7712 10.882 85.3419 10.882C84.6419 10.882 84.0819 11.12 83.6619 11.596C83.2419 12.072 83.0319 12.7067 83.0319 13.5ZM93.7621 17.098C93.1088 17.098 92.5255 16.9393 92.0121 16.622C91.5081 16.3047 91.1115 15.8707 90.8221 15.32C90.5328 14.7693 90.3881 14.1393 90.3881 13.43C90.3881 12.7487 90.5328 12.142 90.8221 11.61C91.1115 11.078 91.5081 10.6627 92.0121 10.364C92.5161 10.056 93.0901 9.902 93.7341 9.902C94.3688 9.902 94.9335 10.042 95.4281 10.322C95.9321 10.602 96.3241 10.9893 96.6041 11.484C96.8841 11.9787 97.0148 12.5433 96.9961 13.178C96.9961 13.2807 96.9915 13.388 96.9821 13.5C96.9728 13.612 96.9635 13.7333 96.9541 13.864H91.5361C91.5548 14.3027 91.6621 14.69 91.8581 15.026C92.0541 15.362 92.3108 15.628 92.6281 15.824C92.9548 16.0107 93.3235 16.104 93.7341 16.104C94.2755 16.104 94.7328 16.0013 95.1061 15.796C95.4888 15.5907 95.7641 15.2967 95.9321 14.914L96.8421 15.278C96.5621 15.866 96.1561 16.3187 95.6241 16.636C95.0921 16.944 94.4715 17.098 93.7621 17.098ZM95.8481 12.954C95.8575 12.5527 95.7688 12.198 95.5821 11.89C95.4048 11.582 95.1528 11.3393 94.8261 11.162C94.4995 10.9847 94.1215 10.896 93.6921 10.896C93.3188 10.896 92.9781 10.9847 92.6701 11.162C92.3621 11.3393 92.1055 11.5867 91.9001 11.904C91.7041 12.212 91.5875 12.562 91.5501 12.954H95.8481ZM98.7245 10H99.6905L99.7465 11.022C99.9332 10.77 100.157 10.5553 100.418 10.378C100.689 10.2007 100.983 10.0793 101.3 10.014C101.627 9.93933 101.972 9.93467 102.336 10V11.05C101.944 10.9753 101.59 10.9753 101.272 11.05C100.964 11.1247 100.698 11.2647 100.474 11.47C100.25 11.6753 100.078 11.9367 99.9565 12.254C99.8352 12.562 99.7745 12.9213 99.7745 13.332V17H98.7245V10Z" fill="white"/>
</svg>
