<svg width="33" height="32" viewBox="0 0 33 32" fill="none" xmlns="http://www.w3.org/2000/svg">
<path d="M30.1466 17.27C30.1466 16.48 30.075 15.73 29.9524 15H18.4062V19.51H25.0172C24.7209 20.99 23.8524 22.24 22.5649 23.09V26.09H26.509C28.8182 24 30.1466 20.92 30.1466 17.27Z" fill="#4285F4"/>
<path d="M18.4043 29.0001C21.7148 29.0001 24.4839 27.9201 26.507 26.0901L22.5629 23.09C21.4594 23.81 20.0596 24.25 18.4043 24.25C15.2061 24.25 12.4983 22.14 11.5276 19.29H7.46094V22.38C9.47385 26.3001 13.6121 29.0001 18.4043 29.0001Z" fill="#34A853"/>
<path d="M11.5293 19.2901C11.2739 18.5701 11.1411 17.8001 11.1411 17.0001C11.1411 16.2001 11.2841 15.4301 11.5293 14.7101V11.6201H7.46263C6.62477 13.2401 6.14453 15.0601 6.14453 17.0001C6.14453 18.9401 6.62477 20.7601 7.46263 22.3801L11.5293 19.2901Z" fill="#FBBC05"/>
<path d="M18.4043 9.75001C20.2128 9.75001 21.8272 10.36 23.1045 11.55L26.599 8.13001C24.4839 6.19 21.7148 5 18.4043 5C13.6121 5 9.47385 7.70001 7.46094 11.62L11.5276 14.71C12.4983 11.86 15.2061 9.75001 18.4043 9.75001Z" fill="#EA4335"/>
</svg>
