<svg width="46px" height="44px" viewBox="0 0 46 44" fill="none" xmlns="http://www.w3.org/2000/svg" transform="rotate(0) scale(1, 1)">
<path d="M44.735 22.3974V40.4835C44.735 41.9959 43.5033 43.2276 41.9818 43.2276H39.1652C40.6776 43.2276 41.9093 41.9959 41.9093 40.4835V22.3974C41.9093 20.885 40.6776 19.6533 39.1652 19.6533H38.0965V5.22606C38.0965 2.77176 36.104 0.779297 33.6406 0.779297H36.4572C38.9297 0.779297 40.9222 2.77176 40.9222 5.22606V19.6533H41.9818C43.5033 19.6533 44.735 20.885 44.735 22.3974Z" fill="#3b82f6"/>
<path d="M41.9814 43.6802H39.1649C38.9147 43.6802 38.7121 43.4777 38.7121 43.2274C38.7121 42.9771 38.9147 42.7746 39.1649 42.7746C40.4284 42.7746 41.4561 41.7469 41.4561 40.483V22.3972C41.4561 21.1334 40.4284 20.1057 39.1649 20.1057H38.0961C37.8458 20.1057 37.6433 19.9031 37.6433 19.6528V5.22594C37.6433 3.0237 35.8474 1.23183 33.6403 1.23183C33.39 1.23183 33.1875 1.0293 33.1875 0.779002C33.1875 0.528707 33.39 0.326172 33.6403 0.326172H36.4568C39.1685 0.326172 41.3747 2.52399 41.3747 5.22594V19.2H41.9814C43.7494 19.2 45.1875 20.6345 45.1875 22.3972V40.483C45.1875 42.2457 43.7494 43.6802 41.9814 43.6802ZM41.392 42.7746H41.9814C43.2497 42.7746 44.2818 41.7469 44.2818 40.483V22.3972C44.2818 21.1334 43.2497 20.1057 41.9814 20.1057H41.392C41.9898 20.6867 42.3617 21.4995 42.3617 22.3972V40.483C42.3617 41.3807 41.9898 42.1935 41.392 42.7746ZM38.5489 19.2H39.1649C39.6293 19.2 40.0706 19.299 40.469 19.4786V5.22594C40.469 3.03166 38.682 1.2451 36.4807 1.23183C37.7317 2.12069 38.5489 3.58 38.5489 5.22594V19.2Z" fill="#3b82f6"/>
<path d="M25.2653 38.9804H5.71226C3.01032 38.9804 0.8125 36.7702 0.8125 34.0532V5.22594C0.8125 2.52399 3.01032 0.326172 5.71226 0.326172H33.6427C36.3495 0.326172 38.5513 2.52399 38.5513 5.22594V19.6528C38.5513 19.9031 38.3488 20.1057 38.0985 20.1057C37.8482 20.1057 37.6456 19.9031 37.6456 19.6528V5.22594C37.6456 3.0237 35.8498 1.23183 33.6427 1.23183H5.71226C3.51002 1.23183 1.71816 3.0237 1.71816 5.22594V34.0532C1.71816 36.2705 3.51002 38.0747 5.71226 38.0747H25.2653C25.5156 38.0747 25.7182 38.2772 25.7182 38.5275C25.7182 38.7778 25.5156 38.9804 25.2653 38.9804Z" fill="#3b82f6"/>
<path d="M38.1038 8.88066H1.26142C1.01113 8.88066 0.808594 8.67812 0.808594 8.42783V5.22706C0.808594 2.52069 3.00995 0.319336 5.71588 0.319336H33.6406C36.3513 0.319336 38.5567 2.52069 38.5567 5.22706V8.42783C38.5567 8.67812 38.3541 8.88066 38.1038 8.88066ZM1.71425 7.975H37.651V5.22706C37.651 3.0204 35.8521 1.225 33.6406 1.225H5.71588C3.50921 1.225 1.71425 3.0204 1.71425 5.22706V7.975Z" fill="#3b82f6"/>
<path d="M6.2114 6.0644C6.80061 6.0644 7.27827 5.58675 7.27827 4.99753C7.27827 4.40832 6.80061 3.93066 6.2114 3.93066C5.62218 3.93066 5.14453 4.40832 5.14453 4.99753C5.14453 5.58675 5.62218 6.0644 6.2114 6.0644Z" fill="#3b82f6"/>
<path d="M9.69968 6.0644C10.2889 6.0644 10.7665 5.58675 10.7665 4.99753C10.7665 4.40832 10.2889 3.93066 9.69968 3.93066C9.11047 3.93066 8.63281 4.40832 8.63281 4.99753C8.63281 5.58675 9.11047 6.0644 9.69968 6.0644Z" fill="#3b82f6"/>
<path d="M13.1841 6.0644C13.7733 6.0644 14.2509 5.58675 14.2509 4.99753C14.2509 4.40832 13.7733 3.93066 13.1841 3.93066C12.5948 3.93066 12.1172 4.40832 12.1172 4.99753C12.1172 5.58675 12.5948 6.0644 13.1841 6.0644Z" fill="#3b82f6"/>
<path d="M34.2224 5.45058H21.0739C20.8236 5.45058 20.6211 5.24805 20.6211 4.99775C20.6211 4.74746 20.8236 4.54492 21.0739 4.54492H34.2224C34.4727 4.54492 34.6752 4.74746 34.6752 4.99775C34.6752 5.24805 34.4727 5.45058 34.2224 5.45058Z" fill="#3b82f6"/>
<path d="M19.2532 26.4718H6.97457C5.65102 26.4718 4.57422 25.3954 4.57422 24.0714V14.0888C4.57422 12.7648 5.65102 11.6885 6.97457 11.6885H19.2532C20.582 11.6885 21.6628 12.7648 21.6628 14.0888V24.0714C21.6628 25.3954 20.582 26.4718 19.2532 26.4718ZM6.97457 12.5941C6.15028 12.5941 5.47988 13.2645 5.47988 14.0888V24.0714C5.47988 24.8957 6.15028 25.5661 6.97457 25.5661H19.2532C20.0823 25.5661 20.7571 24.8957 20.7571 24.0714V14.0888C20.7571 13.2645 20.0823 12.5941 19.2532 12.5941H6.97457Z" fill="#3b82f6"/>
<path d="M34.3379 12.5941H23.5036C23.2533 12.5941 23.0508 12.3916 23.0508 12.1413C23.0508 11.891 23.2533 11.6885 23.5036 11.6885H34.3379C34.5882 11.6885 34.7908 11.891 34.7908 12.1413C34.7908 12.3916 34.5882 12.5941 34.3379 12.5941Z" fill="#3b82f6"/>
<path d="M34.3379 17.2035H23.5036C23.2533 17.2035 23.0508 17.001 23.0508 16.7507C23.0508 16.5004 23.2533 16.2979 23.5036 16.2979H34.3379C34.5882 16.2979 34.7908 16.5004 34.7908 16.7507C34.7908 17.001 34.5882 17.2035 34.3379 17.2035Z" fill="#3b82f6"/>
<path d="M25.4715 21.8129H23.5036C23.2533 21.8129 23.0508 21.6104 23.0508 21.3601C23.0508 21.1098 23.2533 20.9072 23.5036 20.9072H25.4715C25.7218 20.9072 25.9243 21.1098 25.9243 21.3601C25.9243 21.6104 25.7218 21.8129 25.4715 21.8129Z" fill="#3b82f6"/>
<path d="M25.2676 26.4213H23.5036C23.2533 26.4213 23.0508 26.2188 23.0508 25.9685C23.0508 25.7182 23.2533 25.5156 23.5036 25.5156H25.2676C25.5179 25.5156 25.7204 25.7182 25.7204 25.9685C25.7204 26.2188 25.5179 26.4213 25.2676 26.4213Z" fill="#3b82f6"/>
<path d="M12.1309 35.2132H6.12824C5.33402 35.2132 4.6875 34.5711 4.6875 33.7813V30.5266C4.6875 29.7368 5.33402 29.0947 6.12824 29.0947H12.1309C12.9256 29.0947 13.5721 29.7368 13.5721 30.5266V33.7813C13.5721 34.5711 12.9256 35.2132 12.1309 35.2132ZM6.12824 30.0004C5.83328 30.0004 5.59316 30.2365 5.59316 30.5266V33.7813C5.59316 34.0714 5.83328 34.3076 6.12824 34.3076H12.1309C12.4263 34.3076 12.6664 34.0714 12.6664 33.7813V30.5266C12.6664 30.2365 12.4263 30.0004 12.1309 30.0004H6.12824Z" fill="#3b82f6"/>
<path d="M22.8536 35.2132H16.8509C16.0567 35.2132 15.4102 34.5711 15.4102 33.7813V30.5266C15.4102 29.7368 16.0567 29.0947 16.8509 29.0947H22.8536C23.6478 29.0947 24.2943 29.7368 24.2943 30.5266V33.7813C24.2943 34.5711 23.6478 35.2132 22.8536 35.2132ZM16.8509 30.0004C16.5559 30.0004 16.3158 30.2365 16.3158 30.5266V33.7813C16.3158 34.0714 16.5559 34.3076 16.8509 34.3076H22.8536C23.1485 34.3076 23.3886 34.0714 23.3886 33.7813V30.5266C23.3886 30.2365 23.1485 30.0004 22.8536 30.0004H16.8509Z" fill="#3b82f6"/>
<path d="M39.162 43.6801H28.0128C26.2479 43.6801 24.8125 42.2446 24.8125 40.4802V22.3962C24.8125 20.6317 26.2479 19.1963 28.0128 19.1963H39.162C40.9269 19.1963 42.3623 20.6317 42.3623 22.3962V40.4802C42.3623 42.2446 40.9269 43.6801 39.162 43.6801ZM28.0128 20.1019C26.7476 20.1019 25.7182 21.1314 25.7182 22.3962V40.4802C25.7182 41.7449 26.7476 42.7744 28.0128 42.7744H39.162C40.4272 42.7744 41.4567 41.7449 41.4567 40.4802V22.3962C41.4567 21.1314 40.4272 20.1019 39.162 20.1019H28.0128Z" fill="#3b82f6"/>
<path d="M38.147 23.8666H35.7731C35.5228 23.8666 35.3203 23.6641 35.3203 23.4138C35.3203 23.1635 35.5228 22.9609 35.7731 22.9609H38.147C38.3973 22.9609 38.5998 23.1635 38.5998 23.4138C38.5998 23.6641 38.3973 23.8666 38.147 23.8666Z" fill="#3b82f6"/>
<path d="M38.147 26.7572H35.7731C35.5228 26.7572 35.3203 26.5547 35.3203 26.3044C35.3203 26.0541 35.5228 25.8516 35.7731 25.8516H38.147C38.3973 25.8516 38.5998 26.0541 38.5998 26.3044C38.5998 26.5547 38.3973 26.7572 38.147 26.7572Z" fill="#3b82f6"/>
<path d="M38.147 29.6469H35.7731C35.5228 29.6469 35.3203 29.4443 35.3203 29.194C35.3203 28.9437 35.5228 28.7412 35.7731 28.7412H38.147C38.3973 28.7412 38.5998 28.9437 38.5998 29.194C38.5998 29.4443 38.3973 29.6469 38.147 29.6469Z" fill="#3b82f6"/>
<path d="M39.162 43.6809H28.0128C26.2479 43.6809 24.8125 42.2455 24.8125 40.481V39.486C24.8125 39.2357 25.015 39.0332 25.2653 39.0332H41.9095C42.1598 39.0332 42.3623 39.2357 42.3623 39.486V40.481C42.3623 42.2455 40.9269 43.6809 39.162 43.6809ZM25.7182 39.9389V40.481C25.7182 41.7458 26.7476 42.7752 28.0128 42.7752H39.162C40.4272 42.7752 41.4567 41.7458 41.4567 40.481V39.9389H25.7182Z" fill="#3b82f6"/>
<path d="M32.8132 29.6525H29.8022C29.1274 29.6525 28.5781 29.0988 28.5781 28.4187V24.184C28.5781 23.5092 29.1274 22.96 29.8022 22.96H32.8132C33.4934 22.96 34.047 23.5092 34.047 24.184V28.4187C34.047 29.0988 33.4934 29.6525 32.8132 29.6525ZM29.8022 23.8656C29.6297 23.8656 29.4838 24.0116 29.4838 24.184V28.4187C29.4838 28.6 29.6266 28.7468 29.8022 28.7468H32.8132C32.9972 28.7468 33.1414 28.6026 33.1414 28.4187V24.184C33.1414 24.008 32.9941 23.8656 32.8132 23.8656H29.8022Z" fill="#3b82f6"/>
<path d="M31.7877 36.5868H29.8022C29.1274 36.5868 28.5781 36.0376 28.5781 35.3627V32.9252C28.5781 32.2504 29.1274 31.7012 29.8022 31.7012H31.7877C32.4626 31.7012 33.0118 32.2504 33.0118 32.9252V35.3627C33.0118 36.0376 32.4626 36.5868 31.7877 36.5868ZM29.8022 32.6068C29.6297 32.6068 29.4838 32.7528 29.4838 32.9252V35.3627C29.4838 35.5352 29.6297 35.6811 29.8022 35.6811H31.7877C31.9602 35.6811 32.1061 35.5352 32.1061 35.3627V32.9252C32.1061 32.7528 31.9602 32.6068 31.7877 32.6068H29.8022Z" fill="#3b82f6"/>
<path d="M37.319 36.5868H35.3432C34.663 36.5868 34.1094 36.0376 34.1094 35.3627V32.9252C34.1094 32.2504 34.663 31.7012 35.3432 31.7012H37.319C37.9943 31.7012 38.5435 32.2504 38.5435 32.9252V35.3627C38.5435 36.0376 37.9943 36.5868 37.319 36.5868ZM35.3432 32.6068C35.1623 32.6068 35.015 32.7492 35.015 32.9252V35.3627C35.015 35.5387 35.1623 35.6811 35.3432 35.6811H37.319C37.4919 35.6811 37.6378 35.5352 37.6378 35.3627V32.9252C37.6378 32.7528 37.4919 32.6068 37.319 32.6068H35.3432Z" fill="#3b82f6"/>
<path d="M35.6751 41.809H31.4997C31.2494 41.809 31.0469 41.6064 31.0469 41.3562C31.0469 41.1059 31.2494 40.9033 31.4997 40.9033H35.6751C35.9254 40.9033 36.1279 41.1059 36.1279 41.3562C36.1279 41.6064 35.9254 41.809 35.6751 41.809Z" fill="#3b82f6"/>
<path d="M17.763 23.1575H8.4782C7.99884 23.1575 7.57475 22.8878 7.37133 22.4544C7.16791 22.0202 7.23203 21.5213 7.53849 21.1534L10.6265 17.4786C10.8755 17.1841 11.2301 17.0249 11.6215 17.0435C12.0031 17.0611 12.3472 17.2522 12.5656 17.5662L13.9046 19.4659C13.9803 19.5747 14.0842 19.5968 14.1395 19.6012C14.1943 19.6039 14.2995 19.5977 14.3875 19.5031L15.1765 18.677C15.4276 18.4117 15.7779 18.264 16.1498 18.3002C16.5159 18.325 16.8489 18.5116 17.0625 18.8106L18.762 21.2312C19.026 21.6045 19.06 22.09 18.8495 22.4969C18.6386 22.9046 18.222 23.1575 17.763 23.1575ZM11.5635 17.9473C11.4694 17.9473 11.3809 17.9889 11.319 18.0614L8.23321 21.7336C8.11823 21.8716 8.16555 22.0149 8.19164 22.0697C8.21729 22.1245 8.29645 22.2519 8.4782 22.2519H17.763C17.9377 22.2519 18.0186 22.1316 18.0451 22.0803C18.0717 22.029 18.1225 21.8955 18.0217 21.7531L16.3236 19.3341C16.2488 19.2298 16.1431 19.2077 16.0865 19.2032C16.0304 19.2024 15.922 19.2068 15.8323 19.3023L15.046 20.1248C14.7984 20.391 14.4455 20.5237 14.0753 20.5042C13.707 20.4777 13.3744 20.2893 13.163 19.986L11.8236 18.0853C11.7449 17.9721 11.6365 17.9509 11.5786 17.9482C11.5737 17.9473 11.5684 17.9473 11.5635 17.9473Z" fill="#3b82f6"/>
<path d="M14.2424 17.4956C14.8056 17.4956 15.2622 17.039 15.2622 16.4758C15.2622 15.9126 14.8056 15.4561 14.2424 15.4561C13.6792 15.4561 13.2227 15.9126 13.2227 16.4758C13.2227 17.039 13.6792 17.4956 14.2424 17.4956Z" fill="#3b82f6"/>
</svg>