<svg width="18" height="19" viewBox="0 0 18 19" fill="none" xmlns="http://www.w3.org/2000/svg">
<g id="arrow-reply">
<path id="arrow-reply_2" d="M8.81223 6.09558V4.02099C8.81298 3.48324 8.4905 3.00777 7.991 2.80902C7.49225 2.60952 6.92905 2.73262 6.5593 3.12487L2.11331 7.8272C1.54556 8.4272 1.54556 9.36862 2.11331 9.96862L6.5593 14.671C6.9298 15.0617 7.49375 15.1856 7.991 14.9861C8.4905 14.7866 8.81298 14.3111 8.81223 13.7748V11.7145C10.9985 11.7685 12.4489 12.1428 13.1269 12.8298C13.6287 13.3383 13.7225 14.005 13.7105 14.917C13.7052 15.3393 13.976 15.6971 14.3825 15.8073C14.465 15.8298 14.549 15.8403 14.63 15.8403C14.9555 15.8403 15.2571 15.6685 15.4258 15.3715C15.9981 14.368 16.313 13.1335 16.313 11.8945C16.3122 8.28703 13.655 6.24033 8.81223 6.09558ZM14.804 14.0508C14.7297 13.3315 14.5108 12.6296 13.9273 12.0394C12.9463 11.0456 11.1425 10.5828 8.24973 10.5828C7.93923 10.5828 7.68723 10.8348 7.68723 11.1453V13.7748C7.68723 13.8746 7.6258 13.9195 7.5748 13.9405C7.52455 13.9615 7.44718 13.9712 7.37668 13.897L2.9307 9.19445C2.77245 9.0272 2.77245 8.76549 2.9307 8.59899L7.37668 3.89721C7.44643 3.82371 7.52305 3.83358 7.5748 3.85308C7.62655 3.87333 7.68723 3.91903 7.68723 4.01953V6.64837C7.68723 6.95887 7.93923 7.21087 8.24973 7.21087C11.4147 7.21087 15.1872 8.02304 15.1872 11.8938C15.1872 12.6415 15.0537 13.3833 14.804 14.0508Z" fill="#3B82F6"/>
</g>
</svg>
