<svg width="24" height="24" viewBox="0 0 24 24" fill="none" xmlns="http://www.w3.org/2000/svg">
<g id="arrow-left">
<path id="arrow-left_2" d="M21.7518 11.9998C21.7518 12.4138 21.4158 12.7498 21.0018 12.7498H4.81286L10.5328 18.4698C10.8258 18.7628 10.8258 19.2378 10.5328 19.5308C10.3868 19.6768 10.1948 19.7508 10.0028 19.7508C9.8108 19.7508 9.61877 19.6778 9.47277 19.5308L2.47277 12.5308C2.40377 12.4618 2.34891 12.3789 2.31091 12.2869C2.23491 12.1039 2.23491 11.8969 2.31091 11.7139C2.34891 11.6219 2.40377 11.5387 2.47277 11.4697L9.47277 4.46975C9.76577 4.17675 10.2408 4.17675 10.5338 4.46975C10.8268 4.76275 10.8268 5.23779 10.5338 5.53079L4.81384 11.2508H21.0018C21.4158 11.2498 21.7518 11.5858 21.7518 11.9998Z" fill="#24262D"/>
</g>
</svg>
