<svg width="16" height="16" viewBox="0 0 16 16" fill="none" xmlns="http://www.w3.org/2000/svg">
<path d="M9.99935 13.8332C9.72335 13.8332 9.49935 13.6092 9.49935 13.3332C9.49935 13.0572 9.72335 12.8332 9.99935 12.8332C10.2787 12.8332 10.5707 12.6792 10.8694 12.3759L13.692 9.54656C14.0066 9.23456 14.1653 8.94255 14.166 8.67721C14.1667 8.40988 14.0074 8.11456 13.6927 7.79989L9.42602 3.52654C9.21936 3.31654 8.94204 3.19187 8.64071 3.17253C8.36471 3.15453 8.15532 2.91653 8.17399 2.6412C8.19132 2.3652 8.454 2.1599 8.70467 2.17457C9.25334 2.2099 9.76205 2.44057 10.1367 2.8239L14.4 7.09388C14.91 7.60321 15.1673 8.13723 15.166 8.6799C15.1653 9.22123 14.9067 9.7512 14.3987 10.2559L11.58 13.0805C11.0893 13.5785 10.5567 13.8332 9.99935 13.8332ZM11.3826 9.9019L8.56071 12.7266C7.75271 13.5359 6.91601 13.5359 6.10734 12.7266L1.84001 8.45521C1.51467 8.12987 1.33203 7.68789 1.33203 7.22722V3.8239C1.33203 3.18457 1.85002 2.66655 2.48869 2.66655H5.88867C6.34867 2.66655 6.78998 2.84922 7.11532 3.17522L11.3826 7.44654C12.2186 8.28387 12.1906 9.09257 11.3826 9.9019ZM4.36605 5.03321C4.36605 4.66521 4.06868 4.36654 3.70068 4.36654H3.69401C3.32734 4.36654 3.03198 4.66521 3.03198 5.03321C3.03198 5.40121 3.33337 5.69988 3.70003 5.69988C4.0687 5.69988 4.36605 5.40121 4.36605 5.03321Z" fill="#8372DD"/>
</svg>
