<svg width="40" height="40" viewBox="0 0 40 40" fill="none" xmlns="http://www.w3.org/2000/svg">
<path d="M25.9154 11.6667C25.9154 14.9344 23.2664 17.5833 19.9987 17.5833V19.0833C24.0948 19.0833 27.4154 15.7628 27.4154 11.6667H25.9154ZM19.9987 17.5833C16.731 17.5833 14.082 14.9344 14.082 11.6667H12.582C12.582 15.7628 15.9026 19.0833 19.9987 19.0833V17.5833ZM14.082 11.6667C14.082 8.39898 16.731 5.75 19.9987 5.75V4.25C15.9026 4.25 12.582 7.57055 12.582 11.6667H14.082ZM19.9987 5.75C23.2664 5.75 25.9154 8.39898 25.9154 11.6667H27.4154C27.4154 7.57055 24.0948 4.25 19.9987 4.25V5.75ZM30.9154 29.1667C30.9154 30.3404 29.9444 31.6049 27.9129 32.6206C25.9262 33.614 23.1292 34.25 19.9987 34.25V35.75C23.3115 35.75 26.3478 35.0802 28.5837 33.9623C30.7747 32.8668 32.4154 31.2146 32.4154 29.1667H30.9154ZM19.9987 34.25C16.8682 34.25 14.0712 33.614 12.0845 32.6206C10.053 31.6049 9.08203 30.3404 9.08203 29.1667H7.58203C7.58203 31.2146 9.22273 32.8668 11.4137 33.9623C13.6495 35.0802 16.6858 35.75 19.9987 35.75V34.25ZM9.08203 29.1667C9.08203 27.993 10.053 26.7285 12.0845 25.7127C14.0712 24.7194 16.8682 24.0833 19.9987 24.0833V22.5833C16.6858 22.5833 13.6495 23.2531 11.4137 24.3711C9.22273 25.4665 7.58203 27.1187 7.58203 29.1667H9.08203ZM19.9987 24.0833C23.1292 24.0833 25.9262 24.7194 27.9129 25.7127C29.9444 26.7285 30.9154 27.993 30.9154 29.1667H32.4154C32.4154 27.1187 30.7747 25.4665 28.5837 24.3711C26.3478 23.2531 23.3115 22.5833 19.9987 22.5833V24.0833Z" fill="#24262D"/>
</svg>
