<svg width="74" height="60" viewBox="0 0 74 60" fill="none" xmlns="http://www.w3.org/2000/svg">
<g filter="url(#filter0_d_4009_2650)">
<circle cx="44" cy="30" r="30" fill="#3B82F6"/>
<circle cx="44" cy="30" r="29.5" stroke="#3B82F6"/>
</g>
<g filter="url(#filter1_d_4009_2650)">
<path d="M37.8258 41.1279L38.3617 41.3958C40.5945 42.7355 43.0952 43.3607 45.5959 43.3607C53.4552 43.3607 59.8856 36.9303 59.8856 29.071C59.8856 25.3199 58.3673 21.6582 55.688 18.9789C53.0086 16.2995 49.4362 14.7812 45.5959 14.7812C37.7365 14.7812 31.3061 21.2116 31.3955 29.1603C31.3955 31.8396 32.1992 34.4296 33.5389 36.6624L33.8962 37.1982L32.4672 42.4676L37.8258 41.1279Z" fill="#25D366"/>
<path d="M57.2076 17.5493C54.1711 14.4235 49.9735 12.7266 45.6865 12.7266C36.5769 12.7266 29.2534 20.1394 29.3427 29.1597C29.3427 32.0177 30.1465 34.7863 31.4861 37.287L29.1641 45.7715L37.8272 43.5388C40.2386 44.8784 42.9179 45.5036 45.5972 45.5036C54.6176 45.5036 61.9411 38.0908 61.9411 29.0704C61.9411 24.6942 60.2442 20.5859 57.2076 17.5493ZM45.6865 42.735C43.2752 42.735 40.8638 42.1098 38.8096 40.8594L38.2738 40.5915L33.0937 41.9312L34.4334 36.8405L34.0762 36.3046C30.1465 29.9635 32.022 21.5683 38.4524 17.6387C44.8827 13.709 53.1886 15.5845 57.1183 22.0149C61.048 28.4452 59.1725 36.7511 52.7421 40.6808C50.6879 42.0205 48.1872 42.735 45.6865 42.735ZM53.5459 32.8215L52.5635 32.3749C52.5635 32.3749 51.1345 31.7497 50.2414 31.3032C50.1521 31.3032 50.0628 31.2139 49.9735 31.2139C49.7055 31.2139 49.5269 31.3032 49.3483 31.3925C49.3483 31.3925 49.259 31.4818 48.0086 32.9108C47.9193 33.0894 47.7407 33.1787 47.5621 33.1787H47.4728C47.3834 33.1787 47.2048 33.0894 47.1155 33.0001L46.669 32.8215C45.6865 32.3749 44.7934 31.8391 44.0789 31.1246C43.9003 30.9459 43.6324 30.7673 43.4538 30.5887C42.8286 29.9635 42.2034 29.249 41.7569 28.4452L41.6676 28.2666C41.5782 28.1773 41.5782 28.088 41.4889 27.9094C41.4889 27.7308 41.4889 27.5521 41.5782 27.4628C41.5782 27.4628 41.9355 27.0163 42.2034 26.7483C42.382 26.5697 42.4714 26.3018 42.65 26.1232C42.8286 25.8552 42.9179 25.498 42.8286 25.2301C42.7393 24.7835 41.6676 22.3721 41.3996 21.8363C41.221 21.5683 41.0424 21.479 40.7745 21.3897H39.792C39.6134 21.3897 39.4348 21.479 39.2562 21.479L39.1669 21.5683C38.9882 21.6576 38.8096 21.8363 38.631 21.9256C38.4524 22.1042 38.3631 22.2828 38.1844 22.4614C37.5593 23.2652 37.202 24.2476 37.202 25.2301C37.202 25.9445 37.3806 26.659 37.6486 27.2842L37.7379 27.5521C38.5417 29.249 39.6134 30.7673 41.0424 32.107L41.3996 32.4642C41.6676 32.7322 41.9355 32.9108 42.1141 33.1787C43.9896 34.7863 46.1331 35.9473 48.5445 36.5725C48.8124 36.6618 49.1697 36.6618 49.4376 36.7511H50.3307C50.7773 36.7511 51.3131 36.5725 51.6704 36.3939C51.9383 36.2153 52.1169 36.2153 52.2955 36.0367L52.4742 35.858C52.6528 35.6794 52.8314 35.5901 53.01 35.4115C53.1886 35.2329 53.3673 35.0542 53.4566 34.8756C53.6352 34.5184 53.7245 34.0718 53.8138 33.6253V33.0001C53.8138 33.0001 53.7245 32.9108 53.5459 32.8215Z" fill="white"/>
</g>
<defs>
<filter id="filter0_d_4009_2650" x="0" y="-12" width="88" height="88" filterUnits="userSpaceOnUse" color-interpolation-filters="sRGB">
<feFlood flood-opacity="0" result="BackgroundImageFix"/>
<feColorMatrix in="SourceAlpha" type="matrix" values="0 0 0 0 0 0 0 0 0 0 0 0 0 0 0 0 0 0 127 0" result="hardAlpha"/>
<feOffset dy="2"/>
<feGaussianBlur stdDeviation="7"/>
<feColorMatrix type="matrix" values="0 0 0 0 0.0705882 0 0 0 0 0.54902 0 0 0 0 0.376784 0 0 0 0.2 0"/>
<feBlend mode="normal" in2="BackgroundImageFix" result="effect1_dropShadow_4009_2650"/>
<feBlend mode="normal" in="SourceGraphic" in2="effect1_dropShadow_4009_2650" result="shape"/>
</filter>
<filter id="filter1_d_4009_2650" x="26.1641" y="11.7266" width="38.7773" height="39.0449" filterUnits="userSpaceOnUse" color-interpolation-filters="sRGB">
<feFlood flood-opacity="0" result="BackgroundImageFix"/>
<feColorMatrix in="SourceAlpha" type="matrix" values="0 0 0 0 0 0 0 0 0 0 0 0 0 0 0 0 0 0 127 0" result="hardAlpha"/>
<feOffset dy="2"/>
<feGaussianBlur stdDeviation="1.5"/>
<feColorMatrix type="matrix" values="0 0 0 0 0.0554688 0 0 0 0 0.295833 0 0 0 0 0.223724 0 0 0 0.54 0"/>
<feBlend mode="normal" in2="BackgroundImageFix" result="effect1_dropShadow_4009_2650"/>
<feBlend mode="normal" in="SourceGraphic" in2="effect1_dropShadow_4009_2650" result="shape"/>
</filter>
</defs>
</svg>
