<svg width="44" height="18" viewBox="0 0 44 18" fill="none" xmlns="http://www.w3.org/2000/svg">
<path fill-rule="evenodd" clip-rule="evenodd" d="M41.2279 8.78263C41.2279 5.87731 39.8209 3.58414 37.1303 3.58414C34.4298 3.58414 32.7948 5.87681 32.7948 8.75943C32.7948 12.1757 34.7241 13.9007 37.4932 13.9007C38.8439 13.9007 39.8653 13.5946 40.6369 13.1631V10.8931C39.8653 11.2792 38.9801 11.5171 37.8565 11.5171C36.7556 11.5171 35.7796 11.1311 35.6547 9.79222H41.2037C41.2037 9.64411 41.2264 9.05465 41.2264 8.78214L41.2279 8.78263ZM35.626 7.70492C35.626 6.42233 36.409 5.88915 37.1244 5.88915C37.8165 5.88915 38.5546 6.42233 38.5546 7.70492H35.626ZM28.4197 3.58513C27.3075 3.58513 26.5931 4.10696 26.1952 4.47031L26.0471 3.76681H23.5456V17L26.3828 16.3987L26.3942 13.1868C26.8029 13.482 27.4042 13.9016 28.4034 13.9016C30.435 13.9016 32.2848 12.2725 32.2848 8.66958C32.2734 5.37819 30.4009 3.58464 28.4143 3.58464L28.4197 3.58513ZM27.7385 11.4051C27.069 11.4051 26.6721 11.1666 26.3991 10.8719L26.3877 6.66078C26.683 6.33149 27.0912 6.10489 27.7385 6.10489C28.7712 6.10489 29.4861 7.26258 29.4861 8.74906C29.4861 10.2696 28.7826 11.4051 27.7385 11.4051ZM19.642 2.9157L22.4906 2.30353V0L19.642 0.601307V2.9157ZM19.642 3.77816H22.4906V13.7086H19.642V3.77816ZM16.5886 4.61742L16.4069 3.77816H13.9553V13.7096H16.7925V6.97871C17.4619 6.10489 18.5969 6.26386 18.9489 6.38876V3.77866C18.5856 3.6424 17.258 3.3926 16.5881 4.61792L16.5886 4.61742ZM10.9142 1.30974L8.14513 1.90068L8.13378 10.9914C8.13378 12.6709 9.39366 13.9081 11.0732 13.9081C12.0038 13.9081 12.6846 13.7377 13.0593 13.5329V11.2288C12.6959 11.3769 10.9028 11.8983 10.9028 10.2188V6.19573H13.0593V3.77816H10.9019L10.9142 1.30974ZM3.24236 6.65535C3.24236 6.21252 3.60571 6.04318 4.20702 6.04318C5.18853 6.06409 6.1518 6.31251 7.02101 6.7689V4.10745C6.07907 3.73225 5.14847 3.58563 4.20702 3.58563C1.90299 3.58563 0.371094 4.78873 0.371094 6.79753C0.371094 9.92996 4.68392 9.43035 4.68392 10.7816C4.68392 11.3034 4.22973 11.4737 3.59435 11.4737C2.65241 11.4737 1.4493 11.0876 0.495996 10.5653V13.2658C1.55149 13.72 2.61884 13.9076 3.59435 13.9076C5.95515 13.9076 7.57838 12.7385 7.57838 10.707C7.56703 7.32528 3.24236 7.92659 3.24236 6.65535Z" fill="#6772E5"/>
</svg>
