<?xml version="1.0" encoding="utf-8"?>
<!-- Generator: Adobe Illustrator 27.0.0, SVG Export Plug-In . SVG Version: 6.00 Build 0)  -->
<svg version="1.1" id="Layer_1" xmlns="http://www.w3.org/2000/svg" xmlns:xlink="http://www.w3.org/1999/xlink" x="0px" y="0px"
	 viewBox="0 0 1771.5 384" style="enable-background:new 0 0 1771.5 384;" xml:space="preserve">
<style type="text/css">
	.st0{fill:url(#SVGID_1_);}
	.st1{fill:url(#SVGID_00000064314833843092705780000000735626213153813926_);}
	.st2{fill:#1B2048;}
</style>
<g>
	<g>
		
			<linearGradient id="SVGID_1_" gradientUnits="userSpaceOnUse" x1="36.5388" y1="-638.181" x2="249.1472" y2="-638.181" gradientTransform="matrix(1 0 0 -1 0 -521.7504)">
			<stop  offset="0" style="stop-color:#29AAE1"/>
			<stop  offset="1" style="stop-color:#5000FF"/>
		</linearGradient>
		<path class="st0" d="M220.2,87.6c-9.6,0-18.5,4.9-23.7,12.9H89.3c-8.9-13.1-26.7-16.9-39.9-8s-16.9,26.7-8,39.9s26.7,16.9,39.9,8
			c3-2.1,5.9-4.9,8-8h107.2c8.9,13.1,26.7,16.7,39.9,8c13.1-8.7,16.7-26.7,8-39.9C238.8,92.6,229.9,87.6,220.2,87.6L220.2,87.6z
			 M65.4,126.8c-5.9-0.2-10.3-4.7-10.3-10.3c0.2-5.9,4.7-10.3,10.3-10.3c5.6,0.2,10.3,4.7,10.3,10.3
			C75.7,122.1,71.3,126.8,65.4,126.8L65.4,126.8z M220.2,126.8c-5.9,0-10.3-4.7-10.3-10.3c0-5.9,4.7-10.3,10.3-10.3
			s10.3,4.7,10.3,10.3l0,0C230.6,122.1,226.1,126.8,220.2,126.8L220.2,126.8z"/>
		
			<linearGradient id="SVGID_00000112617654213175440820000007260777019385188758_" gradientUnits="userSpaceOnUse" x1="137.5597" y1="-646.067" x2="419.6371" y2="-809.6161" gradientTransform="matrix(1 0 0 -1 0 -521.7504)">
			<stop  offset="0" style="stop-color:#29AAE1"/>
			<stop  offset="1" style="stop-color:#5000FF"/>
		</linearGradient>
		<path style="fill:url(#SVGID_00000112617654213175440820000007260777019385188758_);" d="M291.3,314.5c-1.9,0-3.8,0.2-5.6,0.5
			L180.8,210.1h39.4c51.6-0.7,92.9-43.2,92.2-95c-0.7-50.4-41.5-91.3-92.2-92.2h-54.9c-9.9-12.4-28.2-14.5-40.6-4.7
			s-14.5,28.2-4.7,40.6s28.2,14.5,40.6,4.7c3-2.1,5.4-5.2,7.3-8.4h52.3c34,0.5,61,28.6,60.3,62.6c-0.5,33.1-27.2,59.8-60.3,60.3
			h-53.5c-8.9-13.1-26.7-16.7-39.9-8s-16.7,26.7-8,39.9c5.4,8,14.3,12.9,23.9,12.9c1.6,0,3.3-0.2,4.9-0.5l115.2,115.2
			c-0.5,1.9-0.5,3.8-0.5,5.6c0,15.7,12.9,28.9,28.9,28.9c15.7,0,28.9-12.9,28.9-28.9C320.2,327.2,307.3,314.5,291.3,314.5z
			 M142.6,51.3c-5.9-0.2-10.3-4.7-10.3-10.3c0-5.9,4.7-10.3,10.3-10.3c5.6,0.2,10.1,4.7,10.3,10.3C153.4,46.6,148.7,51,142.6,51.3
			C143.1,51.3,142.8,51.3,142.6,51.3z M142.6,204.3c-5.9-0.2-10.3-4.7-10.3-10.3c0.2-5.9,4.7-10.3,10.3-10.3
			c5.6,0.2,10.3,4.7,10.3,10.3C153.1,199.6,148.7,204.3,142.6,204.3C142.8,204.3,142.8,204.3,142.6,204.3z M291.3,353.5
			c-5.9,0-10.3-4.7-10.3-10.3c0-5.6,4.7-10.3,10.3-10.3c5.6,0,10.3,4.7,10.3,10.3l0,0C301.7,348.8,297,353.5,291.3,353.5
			L291.3,353.5L291.3,353.5z"/>
	</g>
	<g>
		<path class="st2" d="M497.3,303.3l-47.1-78.5h-17.7v78.5h-40.3V101.7H469c23.4,0,41.3,5.7,53.5,17.1
			c12.3,11.4,18.4,26.5,18.4,45.1c0,15.2-4.2,28-12.7,38.3s-20.7,17.1-36.7,20.6l50.3,80.5H497.3z M432.4,197h33.1
			c23,0,34.6-10.2,34.6-30.6c0-9.7-2.8-17.3-8.4-22.7s-14.3-8.1-26.1-8.1h-33.1V197H432.4z"/>
		<path class="st2" d="M664.3,152.5c9.5,6.3,16.3,14.8,20.3,25.4v-32.8h40v158.2h-40v-33.1c-4,10.7-10.8,19.2-20.3,25.6
			s-20.9,9.6-34.3,9.6c-13.3,0-25.3-3.2-36-9.7s-19-15.8-25-28.1c-6-12.3-9-26.7-9-43.3s3-31,9-43.3s14.3-21.7,25-28.1
			c10.7-6.5,22.7-9.7,36-9.7C643.4,143.1,654.8,146.2,664.3,152.5z M612.3,190.5c-7.6,8.2-11.4,19.4-11.4,33.7s3.8,25.5,11.4,33.6
			c7.6,8.1,17.7,12.1,30.3,12.1c12.2,0,22.2-4.1,30.1-12.4c7.9-8.3,11.9-19.4,11.9-33.3c0-14.1-4-25.3-11.9-33.6
			c-7.9-8.3-17.9-12.4-30.1-12.4C630,178.2,620,182.3,612.3,190.5z"/>
		<path class="st2" d="M793.7,269.6h77.7v33.7H749.7v-32l72.8-92.8h-71.1v-33.4h117.1v31.7L793.7,269.6z"/>
		<path class="st2" d="M898.8,83.8c4.6-4.1,10.6-6.1,18-6.1s13.4,2,18,6.1s6.9,9.4,6.9,15.8c0,6.3-2.3,11.5-6.9,15.6
			c-4.6,4.1-10.6,6.1-18,6.1s-13.4-2-18-6.1s-6.9-9.3-6.9-15.6C891.9,93.2,894.2,87.9,898.8,83.8z M936.7,145.1v158.2h-40.3V145.1
			H936.7z"/>
		<path class="st2" d="M1111.2,160.8c10.9,12,16.3,28.8,16.3,50.5v91.9h-40v-87.4c0-12.6-3.2-22.3-9.7-29.3
			c-6.5-6.9-15.3-10.4-26.6-10.4c-11.4,0-20.6,3.7-27.4,11.1c-6.9,7.4-10.3,18.1-10.3,32v84h-40.3V145.1h40.3v31.7
			c4.2-10.7,11.1-19,20.7-25s20.7-9,33.3-9C1085.8,142.8,1100.4,148.8,1111.2,160.8z"/>
		<path class="st2" d="M1293.7,276.6c-5.1,8.7-12.8,15.6-22.8,20.8c-10.1,5.2-22.4,7.9-36.8,7.9c-14.3,0-27-2.4-38.3-7.3
			c-11.2-4.9-20.2-11.9-27-21s-10.6-19.8-11.6-32h42.8c1,8.2,4.2,15,9.9,20.4c5.6,5.4,13.1,8.1,22.4,8.1c8.4,0,14.8-2.2,19.3-6.7
			s6.7-10.2,6.7-17.3c0-6.3-1.8-11.5-5.4-15.6s-8.2-7.4-13.7-9.9s-13.1-5.3-22.8-8.6c-12.6-4.2-22.8-8.3-30.8-12.4
			c-8-4.1-14.8-10-20.4-17.8s-8.4-18-8.4-30.6c0-17.3,6.2-31,18.7-41s29-15,49.5-15c21.3,0,38.3,5.1,51,15.4s19.8,24,21.6,41.1H1254
			c-1.1-7.2-4.2-13.2-9.1-17.8c-5-4.7-11.7-7-20.3-7c-7.4,0-13.4,2-18,5.9s-6.9,9.6-6.9,17c0,5.9,1.8,10.8,5.3,14.7s8,7.1,13.4,9.6
			s12.8,5.2,22.1,8.3c12.9,4.6,23.5,8.9,31.6,12.8c8.1,4,15,10,20.7,18s8.6,18.5,8.6,31.4C1301.4,258.4,1298.8,267.9,1293.7,276.6z"
			/>
		<path class="st2" d="M1445.7,152.8c12.3,6.5,21.9,15.8,29,28.1c7,12.3,10.6,26.7,10.6,43.3s-3.5,30.9-10.6,43.1
			c-7,12.2-16.7,21.6-29,28.1c-12.3,6.6-26.1,9.9-41.5,9.9s-29.3-3.3-41.5-9.9c-12.3-6.6-21.9-15.9-29-28.1
			c-7-12.2-10.6-26.6-10.6-43.1s3.5-31,10.6-43.3c7-12.3,16.7-21.7,29-28.1c12.3-6.5,26.1-9.7,41.5-9.7S1433.5,146.3,1445.7,152.8z
			 M1375.6,189.8c-7.8,7.9-11.7,19.4-11.7,34.4c0,15,3.9,26.5,11.7,34.4c7.8,7.9,17.3,11.9,28.6,11.9c11.2,0,20.7-3.9,28.6-11.9
			c7.8-7.9,11.7-19.4,11.7-34.4s-3.9-26.5-11.7-34.4c-7.8-7.9-17.3-11.9-28.6-11.9C1392.9,177.9,1383.4,181.9,1375.6,189.8z"/>
		<path class="st2" d="M1567.2,122.8c-4.8,4.2-7.1,11.5-7.1,22v0.3h32v34h-32v124.2h-40.3V179.1h-20.3v-34h20.3v-3.7
			c0-18.8,5.4-33.4,16.1-43.5c10.8-10.2,26.7-15.3,47.8-15.3c3.6,0,6.4,0.1,8.3,0.3v34.8C1580.3,116.9,1572,118.6,1567.2,122.8z"/>
		<path class="st2" d="M1700.6,268.7v34.6h-21.1c-17.7,0-31.3-4.3-40.7-12.9c-9.4-8.6-14.1-22.8-14.1-42.8v-68.5h-22v-34h22V106
			h40.3v39.1h35.4v34H1665v69.1c0,7.6,1.5,12.9,4.6,16c3,3,8.2,4.6,15.4,4.6h15.6V268.7z"/>
	</g>
</g>
</svg>
