<svg width="48px" height="48px" viewBox="0 0 48 48" fill="none" xmlns="http://www.w3.org/2000/svg" transform="rotate(0) scale(1, 1)">
<path d="M43.8633 14.6734C42.9275 14.4588 42.2428 13.6417 42.197 12.6876C42.1513 11.7289 42.7585 10.8524 43.667 10.551C43.9044 10.4734 44.0322 10.2177 43.9592 9.98037C43.6899 9.13127 43.3063 8.31865 42.8179 7.56087C42.6809 7.35087 42.4024 7.29152 42.1924 7.4239C41.3798 7.93062 40.3207 7.8393 39.6132 7.19562C38.9055 6.55193 38.7138 5.50193 39.1429 4.64824C39.2525 4.42456 39.1658 4.15062 38.942 4.03652C38.1477 3.62562 37.2986 3.3198 36.4312 3.13259C36.1847 3.07784 35.9427 3.23299 35.8879 3.47496C35.6733 4.41087 34.8562 5.09102 33.9021 5.13668C33.5871 5.15496 33.2858 5.09562 33.0028 4.98152V3.13727C33.0028 1.80424 31.9208 0.717773 30.5832 0.717773H6.20075C4.86312 0.717773 3.78125 1.80424 3.78125 3.13727V44.8628C3.78125 46.1958 4.86312 47.2823 6.20075 47.2823H30.5833C31.9208 47.2823 33.0028 46.1958 33.0028 44.8628V21.9C33.3771 21.3658 33.9797 21.0144 34.6554 20.9824C35.6004 20.9367 36.486 21.5394 36.7873 22.4478C36.865 22.6852 37.1206 22.8131 37.358 22.74C38.2071 22.4707 39.0197 22.0872 39.7729 21.5987C39.9829 21.4663 40.0468 21.1879 39.9145 20.9733C39.4078 20.1653 39.4991 19.1016 40.1428 18.3941C40.7864 17.691 41.8318 17.4947 42.6901 17.9238C42.9138 18.0334 43.1832 17.9466 43.2972 17.7275C43.7127 16.9286 44.0186 16.0841 44.2057 15.2121C44.2604 14.9701 44.1052 14.7282 43.8633 14.6734ZM6.12312 28.7889C6.12312 29.0399 5.91772 29.2453 5.66666 29.2453C5.41559 29.2453 5.21019 29.0399 5.21019 28.7889V21.229C5.21019 20.9779 5.41559 20.7725 5.66666 20.7725C5.91772 20.7725 6.12312 20.9779 6.12312 21.229V28.7889ZM6.12312 17.0154C6.12312 17.2664 5.91772 17.4718 5.66666 17.4718C5.41559 17.4718 5.21019 17.2664 5.21019 17.0154V14.7009C5.21019 14.4498 5.41559 14.2444 5.66666 14.2444C5.91772 14.2444 6.12312 14.4498 6.12312 14.7009V17.0154ZM6.12312 11.811C6.12312 12.0621 5.91772 12.2675 5.66666 12.2675C5.41559 12.2675 5.21019 12.0621 5.21019 11.811V9.49652C5.21019 9.24546 5.41559 9.04006 5.66666 9.04006C5.91772 9.04006 6.12312 9.24546 6.12312 9.49652V11.811ZM32.0898 44.8628C32.0898 45.6937 31.4142 46.3692 30.5833 46.3692H9.15444C8.32362 46.3692 7.64797 45.6936 7.64797 44.8628V3.13727C7.64797 2.30637 8.32362 1.6308 9.15444 1.6308H30.5833C31.4142 1.6308 32.0899 2.30646 32.0899 3.13727V4.28768C31.9529 4.10505 31.8433 3.89505 31.7657 3.67137C31.6881 3.43399 31.4369 3.30612 31.1951 3.37915C30.3506 3.64849 29.5333 4.03193 28.7802 4.52046C28.7756 4.52046 28.7756 4.52505 28.7711 4.52955H10.9531C9.94428 4.52955 9.12706 5.34677 9.12706 6.35562V41.6442C9.12706 42.6531 9.94428 43.4703 10.9531 43.4703H28.7892C29.7935 43.4703 30.6152 42.6531 30.6152 41.6442V22.53C31.0946 22.7171 31.5876 22.8678 32.0898 22.982V44.8628ZM24.6942 11.4505C25.6255 11.6605 26.3103 12.4776 26.356 13.4363C26.4016 14.3904 25.799 15.2669 24.8906 15.5682C24.6532 15.6504 24.5207 15.9015 24.5983 16.1434C24.8677 16.988 25.2512 17.8005 25.7351 18.5584C25.872 18.7684 26.1506 18.8277 26.3606 18.6954C27.1732 18.1886 28.2323 18.2845 28.9444 18.9281C29.6474 19.5718 29.8438 20.6172 29.4147 21.4709C29.3006 21.6946 29.3918 21.9686 29.611 22.0826C29.6429 22.0963 29.6704 22.11 29.7023 22.1237V41.6443C29.7023 42.1465 29.2914 42.5574 28.7893 42.5574H10.9531C10.4509 42.5574 10.0401 42.1465 10.0401 41.6443V6.35571C10.0401 5.85359 10.4509 5.44268 10.9531 5.44268H28.7938C29.1179 6.20505 28.9764 7.0998 28.4103 7.72521C27.7666 8.43284 26.7212 8.62455 25.8675 8.19546C25.6438 8.08587 25.3699 8.17268 25.2558 8.39637C24.8404 9.19071 24.5391 10.0398 24.3474 10.9072C24.297 11.1536 24.4523 11.391 24.6942 11.4505ZM42.6718 16.9331C41.5442 16.5679 40.2797 16.8875 39.4671 17.7822C38.6545 18.677 38.4583 19.9644 38.9239 21.0508C38.4628 21.3202 37.9789 21.5485 37.4767 21.7356C36.938 20.681 35.8058 20.0145 34.6097 20.0694C33.4 20.1241 32.35 20.8957 31.9117 22.0004C31.3959 21.8635 30.8937 21.6808 30.4052 21.4526C30.7704 20.3296 30.4509 19.0651 29.5561 18.2525C28.6614 17.4399 27.374 17.2391 26.2874 17.7092C26.0181 17.2436 25.7853 16.7596 25.6027 16.2575C26.6572 15.7188 27.3238 14.6004 27.269 13.3906C27.2097 12.1854 26.4381 11.1309 25.3379 10.6972C25.4748 10.1813 25.6574 9.67455 25.8811 9.18612C27.0087 9.55137 28.2733 9.23177 29.0859 8.33702C29.8985 7.44677 30.0993 6.1549 29.6291 5.06843C30.0947 4.79909 30.5787 4.5708 31.0808 4.38368C31.6195 5.43827 32.7425 6.10474 33.9477 6.0499C35.1529 5.99515 36.2029 5.22359 36.6412 4.12343C37.157 4.25581 37.6638 4.43843 38.1477 4.66671C37.7871 5.78974 38.1066 7.05424 39.0013 7.87146C39.8915 8.67949 41.179 8.8804 42.27 8.41015C42.5394 8.8758 42.7677 9.35974 42.9503 9.86187C41.9004 10.4006 41.2292 11.519 41.2886 12.7287C41.3159 13.3314 41.5213 13.8974 41.8592 14.3631C42.197 14.8332 42.6627 15.2031 43.215 15.4222C43.0781 15.9425 42.8955 16.4447 42.6718 16.9331Z" fill="#3b82f6"/>
<path d="M18.5619 3.56333H21.1766C21.429 3.56333 21.6331 3.35895 21.6331 3.10686C21.6331 2.85477 21.4289 2.65039 21.1766 2.65039H18.5619C18.3096 2.65039 18.1055 2.85477 18.1055 3.10686C18.1055 3.35895 18.3097 3.56333 18.5619 3.56333Z" fill="#3b82f6"/>
<path d="M14.0399 13.6715C14.2182 13.8498 14.5072 13.8498 14.6855 13.6715C14.8638 13.4932 14.8638 13.2043 14.6855 13.0259L13.024 11.3644L14.7546 9.63379C14.9329 9.45548 14.9329 9.16654 14.7546 8.98823C14.5763 8.80991 14.2873 8.80991 14.109 8.98823L12.0556 11.0416C11.8773 11.2199 11.8773 11.5089 12.0556 11.6872L14.0399 13.6715Z" fill="#3b82f6"/>
<path d="M20.3492 11.3644L18.6877 13.0259C18.5094 13.2043 18.5094 13.4932 18.6877 13.6715C18.866 13.8498 19.1549 13.8498 19.3332 13.6715L21.3175 11.6872C21.4031 11.6016 21.4513 11.4854 21.4513 11.3644C21.4513 11.2434 21.4031 11.1272 21.3175 11.0416L19.2637 8.98823C19.0854 8.80991 18.7964 8.80991 18.6181 8.98823C18.4398 9.16654 18.4398 9.45566 18.6181 9.63379L20.3492 11.3644Z" fill="#3b82f6"/>
<path d="M15.9615 15.3495C16.2042 15.3952 16.4462 15.2327 16.492 14.9817L17.784 7.84103C17.8286 7.59297 17.6641 7.35531 17.4157 7.3105C17.1683 7.26409 16.9302 7.43069 16.8852 7.67828L15.5932 14.8189C15.5487 15.067 15.7132 15.3047 15.9615 15.3495Z" fill="#3b82f6"/>
<path d="M21.12 17.6816H12.3823C12.1266 17.6816 11.9258 17.8825 11.9258 18.1381V20.6033C11.9258 20.8543 12.1267 21.0598 12.3823 21.0598H21.12C21.3711 21.0598 21.5765 20.8544 21.5765 20.6033V18.1381C21.5765 17.8825 21.3711 17.6816 21.12 17.6816ZM20.6635 20.1468H12.8387V18.5947H20.6635V20.1468Z" fill="#3b82f6"/>
<path d="M23.8591 37.3164H12.3823C12.1266 37.3164 11.9258 37.5173 11.9258 37.7729V40.238C11.9258 40.4891 12.1267 40.6946 12.3823 40.6946H23.8591C24.1102 40.6946 24.3157 40.4892 24.3157 40.238V37.7729C24.3156 37.5173 24.1102 37.3164 23.8591 37.3164ZM23.4026 39.7817H12.8388V38.2295H23.4027V39.7817H23.4026Z" fill="#3b82f6"/>
<path d="M17.1437 23.0464V25.5116C17.1437 25.7626 16.9383 25.9681 16.6873 25.9681H12.3823C12.1266 25.9681 11.9258 25.7627 11.9258 25.5116V23.0464C11.9258 22.7953 12.1267 22.5898 12.3823 22.5898H16.6873C16.9383 22.5898 17.1437 22.7952 17.1437 23.0464Z" fill="#3b82f6"/>
<path d="M27.8042 22.5898H18.683C18.4274 22.5898 18.2266 22.7952 18.2266 23.0464V25.5116C18.2266 25.7626 18.4274 25.9681 18.683 25.9681H27.8042C28.0552 25.9681 28.2607 25.7627 28.2607 25.5116V23.0464C28.2606 22.7952 28.0552 22.5898 27.8042 22.5898ZM27.3476 25.0551H19.1395V23.503H27.3476V25.0551Z" fill="#3b82f6"/>
<path d="M17.1437 32.8609V35.326C17.1437 35.5817 16.9383 35.7826 16.6873 35.7826H12.3823C12.1266 35.7826 11.9258 35.5817 11.9258 35.326V32.8609C11.9258 32.6098 12.1267 32.4043 12.3823 32.4043H16.6873C16.9383 32.4044 17.1437 32.6098 17.1437 32.8609Z" fill="#3b82f6"/>
<path d="M27.8042 32.4043H18.683C18.4274 32.4043 18.2266 32.6097 18.2266 32.8609V35.326C18.2266 35.5817 18.4274 35.7826 18.683 35.7826H27.8042C28.0552 35.7826 28.2607 35.5817 28.2607 35.326V32.8609C28.2606 32.6097 28.0552 32.4043 27.8042 32.4043ZM27.3476 34.8695H19.1395V33.3173H27.3476V34.8695Z" fill="#3b82f6"/>
<path d="M17.1483 27.4971H12.3823C12.1266 27.4971 11.9258 27.7025 11.9258 27.9536V30.4188C11.9258 30.6699 12.1267 30.8754 12.3823 30.8754H17.1483C17.3994 30.8754 17.6048 30.6699 17.6048 30.4188V27.9535C17.6048 27.7025 17.3994 27.4971 17.1483 27.4971ZM16.6917 29.9622H12.8387V28.4101H16.6917V29.9622Z" fill="#3b82f6"/>
<path d="M24.3159 27.9536V30.4188C24.3159 30.6699 24.1104 30.8754 23.8593 30.8754H19.0933C18.8376 30.8754 18.6367 30.6699 18.6367 30.4188V27.9536C18.6367 27.7026 18.8376 27.4971 19.0933 27.4971H23.8593C24.1105 27.4972 24.3159 27.7026 24.3159 27.9536Z" fill="#3b82f6"/>
<path d="M34.0672 8.60155C31.6021 8.72024 29.703 10.8065 29.8217 13.2717C29.9358 15.6912 31.9354 17.5219 34.2727 17.5219C36.8246 17.5219 38.8561 15.39 38.7375 12.8471C38.6188 10.3911 36.5371 8.48746 34.0672 8.60155ZM32.0906 15.8511C31.2323 15.1754 30.7804 14.2213 30.7347 13.2261C30.68 12.103 31.1501 11.0074 32.0906 10.2678V15.8511ZM34.4462 16.6042C33.9441 16.627 33.4601 16.5449 33.0036 16.3715V9.74746C33.3551 9.61508 33.7249 9.53286 34.1084 9.51468C36.0303 9.41877 37.7286 10.9025 37.8245 12.8929C37.9157 14.8467 36.4001 16.5129 34.4462 16.6042Z" fill="#3b82f6"/>
</svg>