<svg width="48px" height="48px" viewBox="0 0 48 48" fill="none" xmlns="http://www.w3.org/2000/svg" transform="rotate(0) scale(1, 1)">
<path fill-rule="evenodd" clip-rule="evenodd" d="M34.7991 35.6613C34.7991 36.1263 34.4194 36.505 33.9525 36.505H31.1653C30.6975 36.505 30.3188 36.1263 30.3188 35.6613V35.4607C30.3188 34.9957 30.6984 34.6169 31.1653 34.6169H33.9525C34.4203 34.6169 34.7991 34.9957 34.7991 35.4607V35.6613ZM17.5678 21.9129L18.5644 21.0719C18.9262 20.7663 19.44 20.7597 19.8103 21.055C20.3175 21.4591 20.7797 21.9185 21.1884 22.421C21.4903 22.7913 21.4856 23.3069 21.1791 23.6697L20.3522 24.671C19.8994 25.2194 20.2406 26.0388 20.9456 26.0988L22.2469 26.2085C22.7203 26.2488 23.0859 26.6069 23.1384 27.0785C23.2097 27.7169 23.2162 28.3825 23.1478 29.021C23.0972 29.4925 22.7325 29.8516 22.2609 29.8957L20.9644 30.0166C20.2678 30.0813 19.9228 30.9119 20.3756 31.4472L21.2175 32.4438C21.5231 32.8047 21.5316 33.3175 21.2372 33.6888C20.8331 34.1969 20.3709 34.661 19.8656 35.0697C19.4972 35.3669 18.9844 35.3641 18.6206 35.0622L17.6194 34.2297C17.0784 33.7797 16.2497 34.1266 16.1897 34.8279L16.08 36.1225C16.0491 36.596 15.6853 36.9672 15.21 37.0207C14.5678 37.0919 13.9134 37.0947 13.2712 37.0272C12.8025 36.9785 12.4453 36.6194 12.3947 36.1516L12.2747 34.8429C12.21 34.1341 11.3784 33.8069 10.8431 34.2579L9.84656 35.0979C9.48469 35.4035 8.97188 35.41 8.60156 35.1147C8.09344 34.7107 7.63219 34.2504 7.2225 33.7479C6.92156 33.3775 6.92531 32.861 7.23187 32.5L8.05875 31.5007C8.51062 30.9541 8.17219 30.1329 7.46531 30.0738L6.16406 29.9632C5.69156 29.9229 5.325 29.5657 5.2725 29.0941C5.20125 28.4557 5.19469 27.7891 5.26312 27.1507C5.31375 26.68 5.67937 26.321 6.15 26.2769L7.44656 26.156C8.14969 26.0904 8.49281 25.2663 8.03531 24.7254L7.19344 23.7288C6.88781 23.3679 6.87938 22.855 7.17375 22.4847C7.57781 21.9757 8.04 21.5135 8.54437 21.1047C8.91375 20.8047 9.43031 20.8075 9.79219 21.1132L10.7953 21.9438C11.3381 22.3929 12.1622 22.0469 12.2213 21.3457L12.3319 20.0454C12.3722 19.5729 12.7294 19.2072 13.2009 19.1538C13.8422 19.0816 14.4994 19.0779 15.1406 19.1454C15.6122 19.195 15.9741 19.5588 16.0181 20.0322L16.1372 21.3307C16.2009 22.03 17.0316 22.3694 17.5687 21.9166L17.5678 21.9129ZM14.2078 24.0569C11.9869 24.0569 10.1812 25.8625 10.1812 28.0835C10.1812 30.3044 11.9869 32.11 14.2078 32.11C16.4287 32.11 18.2306 30.3025 18.2306 28.0835C18.2306 25.8644 16.4278 24.0569 14.2078 24.0569ZM42.7762 34.9985H35.8659C35.6588 34.136 34.8778 33.4919 33.9516 33.4919H31.1644C30.2381 33.4919 29.4619 34.136 29.25 34.9985H26.4403C26.1272 34.9985 25.8759 35.2507 25.8759 35.561C25.8759 35.8713 26.1272 36.1235 26.4403 36.1235H29.25C29.4619 36.986 30.2381 37.63 31.1644 37.63H33.9516C34.8778 37.63 35.6578 36.986 35.8659 36.1235H42.7762C43.0894 36.1235 43.3406 35.8713 43.3406 35.561C43.3406 35.2507 43.0894 34.9985 42.7762 34.9985ZM40.5497 28.1838C40.5497 28.6488 40.17 29.0275 39.7031 29.0275H36.9113C36.4481 29.0275 36.0684 28.6488 36.0684 28.1838V27.9841C36.0684 27.5191 36.4481 27.1404 36.9113 27.1404H39.7031C40.1709 27.1404 40.5497 27.5191 40.5497 27.9841V28.1838ZM42.7762 27.5219H41.6166C41.4047 26.6585 40.6284 26.0154 39.7022 26.0154H36.9103C35.9841 26.0154 35.2078 26.6585 35.0006 27.5219H26.4403C26.1272 27.5219 25.8759 27.7732 25.8759 28.0844C25.8759 28.3957 26.1272 28.6469 26.4403 28.6469H35.0006C35.2078 29.5094 35.9841 30.1535 36.9103 30.1535H39.7022C40.6284 30.1535 41.4047 29.5094 41.6166 28.6469H42.7762C43.0894 28.6469 43.3406 28.3947 43.3406 28.0844C43.3406 27.7741 43.0894 27.5219 42.7762 27.5219ZM36.8494 20.7063C36.8494 21.1722 36.4697 21.55 36.0028 21.55H33.2109C32.7478 21.55 32.3681 21.1722 32.3681 20.7063V20.5066C32.3681 20.0416 32.7478 19.6629 33.2109 19.6629H36.0028C36.4706 19.6629 36.8494 20.0416 36.8494 20.5066V20.7063ZM42.7762 20.0444H37.9163C37.7044 19.181 36.9281 18.5379 36.0019 18.5379H33.21C32.2838 18.5379 31.5075 19.181 31.3003 20.0444H26.4403C26.1272 20.0444 25.8759 20.2957 25.8759 20.6069C25.8759 20.9182 26.1272 21.1694 26.4403 21.1694H31.3003C31.5075 22.0319 32.2838 22.675 33.21 22.675H36.0019C36.9281 22.675 37.7044 22.0319 37.9163 21.1694H42.7762C43.0894 21.1694 43.3406 20.9172 43.3406 20.6069C43.3406 20.2966 43.0894 20.0444 42.7762 20.0444ZM31.2263 11.7747H42.0356C43.0191 11.7747 43.8263 10.9713 43.8263 9.9841C43.8263 8.99691 43.0191 8.19254 42.0356 8.19254H31.2263C30.2381 8.19254 29.4356 8.99598 29.4356 9.9841C29.4356 10.9722 30.2381 11.7747 31.2263 11.7747ZM16.7747 11.7747C17.7628 11.7747 18.5653 10.9713 18.5653 9.9841C18.5653 8.99691 17.7628 8.19254 16.7747 8.19254C15.7866 8.19254 14.9841 8.99598 14.9841 9.9841C14.9841 10.9722 15.7866 11.7747 16.7747 11.7747ZM11.3719 11.7747C12.3553 11.7747 13.1625 10.9713 13.1625 9.9841C13.1625 8.99691 12.3553 8.19254 11.3719 8.19254C10.3884 8.19254 9.58125 8.99598 9.58125 9.9841C9.58125 10.9722 10.3837 11.7747 11.3719 11.7747ZM5.96531 11.7747C6.95344 11.7747 7.75594 10.9713 7.75594 9.9841C7.75594 8.99691 6.95344 8.19254 5.96531 8.19254C4.97719 8.19254 4.17469 8.99598 4.17469 9.9841C4.17469 10.9722 4.97719 11.7747 5.96531 11.7747ZM43.6894 41.5385C44.9288 41.5385 45.9384 40.5297 45.9384 39.2885V14.6285H2.0625V39.2875C2.0625 40.5288 3.07219 41.5375 4.31156 41.5375H43.6894V41.5385ZM4.31156 6.46191H43.6894C44.9288 6.46191 45.9384 7.47066 45.9384 8.71191V13.5035H2.0625V8.71191C2.0625 7.47066 3.07219 6.46191 4.31156 6.46191ZM43.6894 5.33691H4.31156C2.45062 5.33691 0.9375 6.85098 0.9375 8.71191V39.2875C0.9375 41.1485 2.45062 42.6625 4.31156 42.6625H43.6894C45.5456 42.6625 47.0634 41.1485 47.0634 39.2875V8.71191C47.0634 6.85098 45.5466 5.33691 43.6894 5.33691Z" fill="#3b82f6"/>
</svg>