<svg width="48px" height="48px" viewBox="0 0 48 48" fill="none" xmlns="http://www.w3.org/2000/svg" transform="rotate(0) scale(1, 1)">
<g clip-path="url(#clip0_4002_1985)">
<path d="M38.2579 10.4921C38.4498 10.4921 38.6418 10.4189 38.7882 10.2725L41.5068 7.554C42.0916 7.93978 42.7911 8.16506 43.5425 8.16506C45.5869 8.16506 47.2501 6.50194 47.2501 4.45753C47.2501 2.41313 45.5868 0.75 43.5425 0.75C41.4982 0.75 39.8349 2.41322 39.8349 4.45762C39.8349 5.20913 40.0603 5.90859 40.4461 6.49341L37.7276 9.21178C37.4347 9.50466 37.4347 9.9795 37.7276 10.2724C37.874 10.4188 38.0659 10.4921 38.2579 10.4921ZM43.5425 2.25C44.7597 2.25 45.75 3.24028 45.75 4.45753C45.75 5.67469 44.7597 6.66506 43.5424 6.66506C42.3251 6.66506 41.3348 5.67478 41.3348 4.45753C41.3349 3.24028 42.3252 2.25 43.5425 2.25ZM9.21178 37.7275L6.49331 40.446C5.9085 40.0602 5.20903 39.8349 4.45762 39.8349C2.41322 39.8349 0.75 41.4981 0.75 43.5425C0.75 45.5869 2.41322 47.25 4.45753 47.25C6.50184 47.25 8.16506 45.5868 8.16506 43.5424C8.16506 42.7909 7.93969 42.0914 7.55391 41.5066L10.2723 38.7882C10.5652 38.4953 10.5653 38.0205 10.2723 37.7275C9.97959 37.4348 9.50466 37.4347 9.21178 37.7275ZM4.45753 45.75C3.24028 45.75 2.25 44.7597 2.25 43.5425C2.25 42.3253 3.24028 41.3349 4.45753 41.3349C5.67478 41.3349 6.66506 42.3252 6.66506 43.5425C6.66516 44.7597 5.67478 45.75 4.45753 45.75ZM11.8328 24C11.8328 23.5858 11.497 23.25 11.0828 23.25H6.36825C6.03788 22.0361 4.92647 21.1406 3.60938 21.1406C2.03269 21.1406 0.75 22.4233 0.75 24C0.75 25.5767 2.03269 26.8594 3.60938 26.8594C4.92656 26.8594 6.03788 25.9639 6.36825 24.7499H11.0828C11.497 24.75 11.8328 24.4141 11.8328 24ZM3.60938 25.3594C2.85975 25.3594 2.25 24.7496 2.25 24C2.25 23.2505 2.85984 22.6406 3.60938 22.6406C4.35881 22.6406 4.96847 23.2502 4.96875 23.9995V24C4.96875 24 4.96875 24.0003 4.96875 24.0005C4.96847 24.7498 4.35881 25.3594 3.60938 25.3594ZM35.4 29.8881H34.679V19.6098C35.8865 19.0567 36.7148 17.9365 36.7148 16.6466C36.7148 16.4922 36.6671 16.3415 36.5783 16.215L33.3182 11.581V10.1947C33.3182 9.33328 32.6173 8.63231 31.7558 8.63231H16.144C15.2826 8.63231 14.5817 9.33328 14.5817 10.1947V11.7232L11.4217 16.2149C11.3328 16.3414 11.2851 16.492 11.2851 16.6465C11.2851 17.9364 12.1134 19.0567 13.3209 19.6097V29.888H12.5999C12.0511 29.888 11.6046 30.3345 11.6046 30.8833V32.6079C11.6046 33.1567 12.0511 33.6033 12.5999 33.6033H19.9972V34.1912C19.9972 34.8225 20.3574 35.3703 20.8825 35.6427V35.9618C20.8825 36.602 21.2532 37.1558 21.7904 37.4242V37.7323C21.7904 38.634 22.524 39.3675 23.4256 39.3675H24.5744C25.4761 39.3675 26.2096 38.634 26.2096 37.7323V37.4242C26.7468 37.1558 27.1175 36.602 27.1175 35.9618V35.6427C27.6426 35.3703 28.0027 34.8225 28.0027 34.1912V33.6033H35.4C35.9488 33.6033 36.3953 33.1567 36.3953 32.6079V30.8833C36.3953 30.3346 35.9488 29.8881 35.4 29.8881ZM32.9736 18.4775C32.0648 18.4775 31.2812 18.0331 30.9298 17.3966H35.0158C34.6643 18.0328 33.882 18.4775 32.9736 18.4775ZM18.6929 12.483L17.487 15.8966H13.4797L15.8812 12.483H18.6929ZM32.1187 12.483L34.5202 15.8966H30.5128L29.307 12.483H32.1187ZM27.7162 12.483L28.922 15.8966H24.7498V12.483H27.7162ZM23.2499 15.8966H19.0778L20.2838 12.483H23.2499V15.8966ZM23.0525 17.3966C22.7011 18.0331 21.9175 18.4775 21.0088 18.4775C20.1001 18.4775 19.3164 18.0331 18.9651 17.3966H23.0525ZM29.0349 17.3966C28.6836 18.0331 27.9 18.4775 26.9912 18.4775C26.0824 18.4775 25.2988 18.0331 24.9474 17.3966H29.0349ZM16.144 10.1324H31.7558C31.7885 10.1324 31.8182 10.1621 31.8182 10.1948V10.983H16.0817V10.1948C16.0817 10.1621 16.1113 10.1324 16.144 10.1324ZM12.984 17.3966H17.07C16.7186 18.0331 15.9351 18.4775 15.0262 18.4775C14.1178 18.4775 13.3357 18.0328 12.984 17.3966ZM14.8209 19.9723C14.8889 19.9756 14.9573 19.9776 15.0262 19.9776C16.2477 19.9776 17.3343 19.4538 18.0174 18.6452C18.7007 19.4538 19.7873 19.9776 21.0087 19.9776C22.2302 19.9776 23.3167 19.4538 23.9999 18.6452C24.6832 19.4538 25.7697 19.9776 26.9912 19.9776C28.2127 19.9776 29.2992 19.4538 29.9824 18.6452C30.6656 19.4538 31.7521 19.9776 32.9736 19.9776C33.0425 19.9776 33.1109 19.9756 33.1789 19.9723V29.8882H28.8759C28.9835 29.6863 29.0942 29.4969 29.2042 29.3091C29.6925 28.4743 30.1976 27.6112 30.1976 26.0017C30.1976 22.5844 27.4174 19.8042 24 19.8042C20.5826 19.8042 17.8025 22.5844 17.8025 26.0017C17.8025 27.6112 18.3075 28.4743 18.7959 29.309C18.9059 29.4968 19.0165 29.6863 19.1242 29.8882H14.8209V19.9723ZM25.4823 36.097H22.5177C22.4444 36.097 22.3824 36.0352 22.3824 35.9618V35.8266H25.6174V35.9618C25.6175 36.0352 25.5556 36.097 25.4823 36.097ZM26.3675 34.3265H21.6324C21.5603 34.3265 21.4972 34.2633 21.4972 34.1913V34.056H26.5028V34.1913C26.5027 34.2646 26.4408 34.3265 26.3675 34.3265ZM22.3092 26.5577H21.7933C21.5137 26.5577 21.2774 26.3213 21.2774 26.0418C21.2774 25.7621 21.5137 25.5259 21.7933 25.5259C22.073 25.5259 22.3092 25.7621 22.3092 26.0418V26.5577ZM24.1907 32.5559H23.8092V28.0577H24.1907V32.5559ZM26.2066 28.0577C27.3182 28.0577 28.2225 27.1534 28.2225 26.0418C28.2225 24.9302 27.3182 24.0259 26.2066 24.0259C25.095 24.0259 24.1907 24.9302 24.1907 26.0418V26.5577H23.8092V26.0418C23.8092 24.9303 22.9049 24.0259 21.7933 24.0259C20.6817 24.0259 19.7774 24.9302 19.7774 26.0418C19.7774 27.1534 20.6817 28.0577 21.7933 28.0577H22.3092V32.5559H21.4375C21.212 30.468 20.5955 29.4144 20.0904 28.5514C19.6329 27.7694 19.3024 27.2046 19.3024 26.0017C19.3024 23.4114 21.4097 21.3041 23.9999 21.3041C26.5901 21.3041 28.6975 23.4115 28.6975 26.0017C28.6975 27.2046 28.367 27.7695 27.9095 28.5514C27.4044 29.4144 26.7879 30.468 26.5624 32.5559H25.6907V28.0577H26.2066ZM25.6907 26.5577V26.0418C25.6907 25.7621 25.9269 25.5259 26.2066 25.5259C26.4862 25.5259 26.7225 25.7621 26.7225 26.0418C26.7225 26.3213 26.4862 26.5577 26.2066 26.5577H25.6907ZM13.1046 31.3881H19.7126C19.7693 31.6063 19.8201 31.8432 19.8634 32.1034H13.1046V31.3881ZM24.5744 37.8675H23.4256C23.3535 37.8675 23.2904 37.8043 23.2904 37.7323V37.597H24.7097V37.7323C24.7096 37.8044 24.6465 37.8675 24.5744 37.8675ZM34.8953 32.1034H28.1366C28.1799 31.8433 28.2307 31.6063 28.2874 31.3881H34.8953V32.1034ZM43.5425 39.8349C42.7911 39.8349 42.0915 40.0603 41.5068 40.446L38.7882 37.7275C38.4953 37.4347 38.0205 37.4347 37.7276 37.7276C37.4347 38.0205 37.4347 38.4953 37.7276 38.7882L40.4461 41.5066C40.0603 42.0914 39.8349 42.7909 39.8349 43.5424C39.8349 45.5868 41.4982 47.25 43.5425 47.25C45.5868 47.25 47.25 45.5868 47.25 43.5425C47.25 41.4982 45.5868 39.8349 43.5425 39.8349ZM43.5425 45.75C42.3252 45.75 41.3349 44.7597 41.3349 43.5424C41.3349 42.3252 42.3252 41.3348 43.5425 41.3348C44.7597 41.3348 45.7501 42.3251 45.7501 43.5424C45.75 44.7597 44.7597 45.75 43.5425 45.75ZM4.45753 8.16506C5.20894 8.16506 5.9085 7.93969 6.49322 7.554L9.21169 10.2725C9.35813 10.4189 9.55003 10.4921 9.74203 10.4921C9.93403 10.4921 10.1259 10.4189 10.2724 10.2725C10.5653 9.9795 10.5652 9.50466 10.2724 9.21178L7.554 6.49331C7.93978 5.9085 8.16516 5.20903 8.16516 4.45753C8.16516 2.41322 6.50194 0.75 4.45753 0.75C2.41313 0.75 0.75 2.41322 0.75 4.45753C0.75 6.50184 2.41322 8.16506 4.45753 8.16506ZM4.45753 2.25C5.67478 2.25 6.66506 3.24028 6.66506 4.45762C6.66506 5.67478 5.67478 6.66516 4.45753 6.66516C3.24028 6.66516 2.25 5.67478 2.25 4.45753C2.25 3.24028 3.24028 2.25 4.45753 2.25ZM23.2499 5.41003V6.90713C23.2499 7.32131 23.5857 7.65713 23.9999 7.65713C24.4141 7.65713 24.7499 7.32131 24.7499 6.90713V5.41003C25.7017 5.09466 26.3905 4.19681 26.3905 3.14053C26.3906 1.82241 25.3181 0.75 24 0.75C22.6819 0.75 21.6094 1.82241 21.6094 3.14062C21.6094 4.19681 22.2982 5.09466 23.2499 5.41003ZM24 2.25C24.4911 2.25 24.8906 2.64956 24.8906 3.14062C24.8906 3.63169 24.4911 4.03125 24 4.03125C23.5089 4.03125 23.1094 3.63169 23.1094 3.14062C23.1094 2.64956 23.5088 2.25 24 2.25ZM44.3906 26.8594C45.9673 26.8594 47.25 25.5766 47.25 23.9999C47.25 22.4233 45.9673 21.1405 44.3906 21.1405C43.0734 21.1405 41.9621 22.036 41.6317 23.2499H36.9171C36.5029 23.2499 36.1671 23.5857 36.1671 23.9999C36.1671 24.4141 36.5029 24.7499 36.9171 24.7499H41.6317C41.9621 25.9639 43.0734 26.8594 44.3906 26.8594ZM44.3906 22.6406C45.1403 22.6406 45.75 23.2505 45.75 24C45.75 24.7496 45.1403 25.3595 44.3906 25.3595C43.641 25.3595 43.0312 24.7496 43.0312 24C43.0312 23.2504 43.641 22.6406 44.3906 22.6406ZM24.7499 42.5899V41.0929C24.7499 40.6787 24.4141 40.3429 23.9999 40.3429C23.5857 40.3429 23.2499 40.6787 23.2499 41.0929V42.59C22.2982 42.9053 21.6093 43.8032 21.6093 44.8594C21.6093 46.1776 22.6817 47.25 23.9999 47.25C25.3181 47.25 26.3905 46.1776 26.3905 44.8594C26.3906 43.8031 25.7017 42.9053 24.7499 42.5899ZM24 45.75C23.5089 45.75 23.1094 45.3504 23.1094 44.8594C23.1094 44.3683 23.5089 43.9688 24 43.9688C24.4911 43.9688 24.8906 44.3683 24.8906 44.8594C24.8906 45.3504 24.4911 45.75 24 45.75Z" fill="#3b82f6"/>
</g>
<defs>
<clipPath id="clip0_4002_1985">
<rect width="48" height="48" fill="#ffffff"/>
</clipPath>
</defs>
</svg>