<svg width="48px" height="48px" viewBox="0 0 48 48" fill="none" xmlns="http://www.w3.org/2000/svg" transform="rotate(0) scale(1, 1)">
<path d="M33.6529 21.3976L33.6079 21.3451C33.5696 21.2894 33.5269 21.2367 33.4804 21.1876L28.0204 15.7501L29.6554 14.1151C29.8758 14.1537 30.0991 14.1737 30.3229 14.1751C30.9089 14.1738 31.487 14.0395 32.0135 13.7822C32.54 13.5249 33.0012 13.1515 33.3623 12.69C33.7234 12.2285 33.975 11.691 34.0981 11.118C34.2212 10.5451 34.2126 9.95171 34.0729 9.3826V9.3076C34.0642 9.27483 34.0489 9.2442 34.0279 9.2176V9.1726L33.9679 9.1126H33.9079C33.836 9.06756 33.7527 9.04413 33.6679 9.0451C33.6061 9.04625 33.545 9.05896 33.4879 9.0826C33.4129 9.0826 33.3529 9.1576 33.3529 9.1726L33.2779 9.2326L31.0954 11.2501L29.8504 10.7776L29.3779 9.5326L31.5004 7.3651L31.5679 7.2901C31.5752 7.26308 31.5752 7.23461 31.5679 7.2076V7.1251C31.5757 7.06284 31.5757 6.99985 31.5679 6.9376C31.5801 6.87537 31.5776 6.81115 31.5604 6.7501L31.5004 6.6376L31.4254 6.5776L31.3204 6.5251H31.2454C30.9388 6.44788 30.6241 6.4076 30.3079 6.4051C29.7423 6.40631 29.1837 6.53126 28.6715 6.77119C28.1592 7.01113 27.7057 7.36023 27.3426 7.79401C26.9796 8.2278 26.7159 8.73576 26.57 9.28226C26.424 9.82877 26.3994 10.4006 26.4979 10.9576L23.9554 13.5001L19.6504 9.1801L19.2529 7.9201C19.214 7.7995 19.1345 7.69612 19.0279 7.6276L16.7779 6.3001C16.693 6.25344 16.5972 6.23015 16.5004 6.2326C16.4334 6.23235 16.3671 6.24549 16.3053 6.27125C16.2434 6.29701 16.1874 6.33486 16.1404 6.3826L14.8504 7.6726C14.7708 7.74823 14.7182 7.84783 14.7006 7.95618C14.683 8.06453 14.7014 8.17566 14.7529 8.2726L15.9529 10.5226C15.9876 10.589 16.0365 10.647 16.0961 10.6923C16.1558 10.7377 16.2246 10.7694 16.2979 10.7851L17.5204 11.0476L21.9229 15.4576L19.5829 17.7976C19.2864 17.7207 18.9817 17.6804 18.6754 17.6776C17.8476 17.6744 17.0388 17.9254 16.3582 18.3967C15.6777 18.8679 15.1582 19.5368 14.87 20.3128C14.5819 21.0888 14.5389 21.9346 14.7469 22.7359C14.9549 23.5371 15.4039 24.2552 16.0332 24.793C16.6624 25.3309 17.4417 25.6626 18.2655 25.7433C19.0894 25.824 19.9182 25.6499 20.6398 25.2444C21.3615 24.8389 21.9414 24.2216 22.3009 23.476C22.6605 22.7303 22.7825 21.8923 22.6504 21.0751L24.0679 19.6501L29.5204 25.0876C29.5846 25.1585 29.6549 25.2238 29.7304 25.2826C29.7569 25.3115 29.7872 25.3368 29.8204 25.3576C30.3464 25.7467 30.9932 25.9368 31.6461 25.8943C32.2989 25.8518 32.9156 25.5794 33.3867 25.1254C33.8578 24.6714 34.1528 24.0652 34.2194 23.4143C34.286 22.7635 34.1198 22.1101 33.7504 21.5701C33.7301 21.5065 33.6969 21.4478 33.6529 21.3976ZM18.1504 10.2376C18.0823 10.1648 17.9931 10.1149 17.8954 10.0951L16.7629 9.8551L15.8554 8.1301L16.6054 7.3801L18.3454 8.4076L18.7054 9.5701C18.7315 9.64663 18.7752 9.71598 18.8329 9.7726L23.2504 14.1901L22.6804 14.7526L18.1504 10.2376ZM23.7079 18.6001L23.6329 18.6526L21.7504 20.5576L21.7129 20.6101C21.6911 20.6346 21.6734 20.6625 21.6604 20.6926C21.6447 20.7212 21.6322 20.7513 21.6229 20.7826C21.6187 20.815 21.6187 20.8477 21.6229 20.8801C21.6192 20.915 21.6192 20.9502 21.6229 20.9851V21.0451C21.7299 21.4877 21.7348 21.9488 21.6371 22.3936C21.5395 22.8383 21.3419 23.255 21.0593 23.612C20.7767 23.969 20.4165 24.2571 20.0061 24.4543C19.5957 24.6514 19.1457 24.7526 18.6904 24.7501C17.8948 24.7501 17.1317 24.434 16.5691 23.8714C16.0065 23.3088 15.6904 22.5457 15.6904 21.7501C15.6904 20.9544 16.0065 20.1914 16.5691 19.6288C17.1317 19.0662 17.8948 18.7501 18.6904 18.7501C19.0007 18.7528 19.309 18.8008 19.6054 18.8926H19.7554C19.8173 18.8926 19.8786 18.8799 19.9354 18.8551H19.9804C20.0217 18.8363 20.0597 18.811 20.0929 18.7801L26.8429 12.0301C27.0219 12.4033 27.26 12.7452 27.5479 13.0426C27.847 13.3284 28.1886 13.5662 28.5604 13.7476L23.7079 18.6001ZM30.0904 24.2251L24.8404 18.9751L27.3004 16.5001L32.5504 21.7501L30.0904 24.2251Z" fill="#3b82f6"/>
<path d="M19.4324 19.6723C19.3887 19.6247 19.3325 19.5903 19.2702 19.573C19.2078 19.5558 19.1419 19.5564 19.0799 19.5748L17.2799 20.0623C17.2174 20.0775 17.16 20.1091 17.1139 20.154C17.0677 20.1988 17.0344 20.2552 17.0174 20.3173L16.5374 22.1248C16.5198 22.1863 16.5188 22.2513 16.5346 22.3133C16.5504 22.3752 16.5825 22.4319 16.6274 22.4773L17.9549 23.7973C17.9863 23.834 18.0255 23.8631 18.0697 23.8826C18.1138 23.902 18.1617 23.9113 18.2099 23.9098H18.3074L20.1074 23.4223C20.17 23.4072 20.2273 23.3755 20.2735 23.3307C20.3197 23.2858 20.353 23.2294 20.3699 23.1673L20.8499 21.3598C20.8675 21.2978 20.8677 21.2321 20.8505 21.17C20.8333 21.1078 20.7994 21.0516 20.7524 21.0073L19.4324 19.6723Z" fill="#3b82f6"/>
<path d="M27.0901 19.5003L30.0001 22.4103C30.0996 22.5097 30.2345 22.5656 30.3751 22.5656C30.5158 22.5656 30.6506 22.5097 30.7501 22.4103C30.8496 22.3108 30.9054 22.1759 30.9054 22.0353C30.9054 21.8946 30.8496 21.7597 30.7501 21.6603L27.8101 18.7503C27.7623 18.6985 27.7044 18.6571 27.6398 18.6288C27.5753 18.6005 27.5056 18.5859 27.4351 18.5859C27.3646 18.5859 27.2949 18.6005 27.2304 18.6288C27.1658 18.6571 27.1079 18.6985 27.0601 18.7503C27.0101 18.8001 26.9711 18.8597 26.9453 18.9254C26.9196 18.9911 26.9077 19.0614 26.9106 19.1319C26.9134 19.2024 26.9308 19.2715 26.9617 19.3349C26.9926 19.3983 27.0363 19.4546 27.0901 19.5003Z" fill="#3b82f6"/>
<path d="M44.4375 1.37207H3.555C2.61216 1.37207 1.70793 1.74661 1.04124 2.41331C0.374544 3.08 0 3.98423 0 4.92707L0 33.4271C0 33.8939 0.0919528 34.3562 0.270608 34.7875C0.449264 35.2188 0.711123 35.6107 1.04124 35.9408C1.37135 36.2709 1.76325 36.5328 2.19456 36.7115C2.62587 36.8901 3.08815 36.9821 3.555 36.9821H17.31V42.4196L14.505 43.7546C14.415 43.7942 14.3386 43.8594 14.2852 43.9421C14.2319 44.0247 14.204 44.1212 14.205 44.2196V46.1546C14.204 46.2218 14.2165 46.2886 14.2418 46.3509C14.267 46.4133 14.3046 46.4699 14.3521 46.5174C14.3997 46.565 14.4563 46.6025 14.5186 46.6278C14.581 46.6531 14.6477 46.6656 14.715 46.6646H33.2775C33.3448 46.6656 33.4115 46.6531 33.4739 46.6278C33.5362 46.6025 33.5928 46.565 33.6404 46.5174C33.6879 46.4699 33.7255 46.4133 33.7507 46.3509C33.776 46.2886 33.7885 46.2218 33.7875 46.1546V44.1821C33.7891 44.0845 33.7624 43.9886 33.7104 43.9061C33.6585 43.8235 33.5836 43.7578 33.495 43.7171L30.69 42.3821V36.9446H44.4375C45.381 36.9446 46.286 36.5703 46.9539 35.9038C47.6218 35.2373 47.998 34.3331 48 33.3896V4.92707C47.998 3.98354 47.6218 3.07933 46.9539 2.41285C46.286 1.74637 45.381 1.37207 44.4375 1.37207ZM29.655 42.3446H18.3375V36.9446H29.655V42.3446ZM22.53 33.3446C22.53 32.9633 22.643 32.5907 22.8548 32.2737C23.0666 31.9567 23.3677 31.7097 23.7199 31.5638C24.0721 31.4179 24.4596 31.3797 24.8335 31.4541C25.2074 31.5285 25.5509 31.7121 25.8204 31.9816C26.09 32.2512 26.2736 32.5946 26.348 32.9685C26.4223 33.3424 26.3842 33.73 26.2383 34.0822C26.0924 34.4344 25.8453 34.7354 25.5284 34.9472C25.2114 35.159 24.8387 35.2721 24.4575 35.2721C24.2037 35.276 23.9517 35.2299 23.7158 35.1362C23.48 35.0425 23.2649 34.9031 23.0831 34.7262C22.9012 34.5492 22.7561 34.338 22.656 34.1048C22.5559 33.8715 22.5029 33.6208 22.5 33.3671L22.53 33.3446ZM46.9725 29.9096H1.0275V4.92707C1.0275 4.25674 1.29379 3.61386 1.76779 3.13986C2.24179 2.66586 2.88467 2.39957 3.555 2.39957H44.4375C45.1085 2.39957 45.7522 2.66562 46.2274 3.1394C46.7026 3.61318 46.9705 4.25605 46.9725 4.92707V29.9096Z" fill="#3b82f6"/>
<path d="M25.6428 33.3673C25.6428 33.1311 25.5727 32.9003 25.4413 32.704C25.3099 32.5077 25.1233 32.3549 24.9049 32.2649C24.6866 32.1748 24.4464 32.1516 24.2149 32.1983C23.9834 32.2449 23.7709 32.3592 23.6044 32.5267C23.438 32.6943 23.325 32.9075 23.2798 33.1393C23.2347 33.3711 23.2593 33.6111 23.3508 33.8289C23.4422 34.0466 23.5962 34.2323 23.7933 34.3625C23.9904 34.4926 24.2216 34.5613 24.4578 34.5598C24.6141 34.5598 24.7688 34.5289 24.913 34.4689C25.0573 34.4088 25.1883 34.3209 25.2984 34.2101C25.4085 34.0992 25.4957 33.9677 25.5548 33.8231C25.6139 33.6784 25.6438 33.5235 25.6428 33.3673Z" fill="#3b82f6"/>
</svg>