<svg width="200" height="193" viewBox="0 0 200 193" fill="none" xmlns="http://www.w3.org/2000/svg">
<g clip-path="url(#clip0_1521_21237)">
<g clip-path="url(#clip1_1521_21237)">
<path d="M114.889 120.308C114.424 112.324 116.335 105.003 120.995 98.439C123.733 94.5814 127.045 91.2462 130.639 88.2114C136.367 83.3757 142.274 78.7505 147.961 73.8697C152.687 69.8141 156.808 65.2176 159.132 59.2931C160.339 56.2142 160.828 53.0025 160.93 49.7179C161.558 48.4102 160.817 47.1913 160.685 45.9325C159.676 36.3194 152.131 30.2569 142.795 29.0918C133.131 27.8858 124.419 30.5646 116.816 36.469C111.22 40.814 108.016 46.8562 106.034 53.5644C105.681 54.7617 105.32 55.9629 105.062 57.1821C103.743 63.4082 99.1957 66.3368 93.4452 66.7513C88.5357 67.1053 83.8138 66.0534 79.9289 62.652C78.7873 61.6525 77.7859 60.5773 77.6296 58.969C76.9258 55.9326 77.6749 52.9509 78.1124 49.9925C78.4532 47.6883 79.1189 45.4136 79.8767 43.1886C79.8588 42.2814 80.3071 41.5377 80.7258 40.7836C81.6187 40.4904 82.141 40.7448 82.1609 41.7447C81.9758 42.8574 81.3239 43.8181 81.1052 44.9199C80.6644 45.4785 80.7978 46.2351 80.3986 46.9599C80.7376 46.4934 80.6737 46.0587 80.7835 45.6712C81.6086 43.1763 82.9028 40.8843 83.884 38.4576C86.0003 34.7722 88.6739 31.5359 91.7046 28.557C97.3499 23.0085 103.903 18.8829 111.238 15.9607C115.85 14.1232 120.635 12.8781 125.53 12.0764C133.909 10.7041 142.335 9.97786 150.805 10.9731C160.161 12.0726 168.987 14.7446 176.734 20.3278C178.027 21.6174 179.63 22.5404 180.945 23.8085C181.115 23.9753 180.782 24.0183 180.976 23.8795C181.009 23.8556 180.988 23.8009 180.9 23.7305C179.247 22.4131 177.857 20.7714 175.95 19.7647C169.754 15.4177 163.075 12.1678 155.602 10.6324C148.967 9.26932 142.277 9.1644 135.555 9.5444C134.841 9.58479 134.13 9.60871 133.419 9.52998C132.3 9.31373 131.194 9.33813 130.11 9.73036C129.466 9.91961 128.82 10.0909 128.137 9.97254C127.563 9.78313 126.988 9.59196 127.19 8.78616C128.505 8.54165 129.821 8.29714 131.136 8.05262C132.862 7.91022 134.578 7.68708 136.291 7.43886C141.986 6.64247 147.696 6.69021 153.373 7.45756C161.535 8.56088 169.339 10.8243 176.305 15.3875C187.931 23.0041 193.747 33.8767 194.276 47.6395C194.482 52.9886 194.442 58.3304 192.704 63.4949C192.613 63.7659 192.441 64.0098 192.306 64.2663C190.538 65.8623 189.255 67.8722 187.688 69.6414C185.616 71.9818 183.832 74.5847 181.337 76.5367C180.828 76.9348 180.368 77.4142 179.701 77.5705C178.696 77.5634 177.698 77.8282 176.686 77.5771C174.932 77.1424 174.533 76.2359 175.532 74.7563C175.93 74.1672 176.365 73.6044 176.673 72.9596C178.325 70.6991 180.422 68.8221 182.146 66.6152C186.027 61.6459 189.322 56.4027 190.599 50.1077C191.047 47.9036 190.76 45.7268 190.545 43.5465C190.486 42.9498 190.465 42.3733 190.466 41.7839C190.6 43.8246 190.532 45.8545 190.42 47.8977C190.082 54.0563 187.306 59.1871 183.776 63.9841C180.267 68.7512 175.923 72.7095 171.47 76.6091C166.805 80.694 161.897 84.4524 157.07 88.3235C154.833 90.1177 152.824 92.1746 151.108 94.4571C148.835 97.4809 147.168 100.731 146.985 104.701C146.719 110.465 145.888 116.17 143.77 121.608C143.762 121.63 143.818 121.677 143.844 121.712C143.865 121.593 143.919 121.489 144.009 121.389C144.955 120.677 145.322 119.559 145.997 118.666C146.372 118.171 146.901 117.798 147.532 117.958C148.122 118.108 147.996 118.69 147.979 119.156C146.047 125.703 141.245 129.12 134.911 130.414C127.947 131.836 121.977 129.536 117.033 124.539C115.884 123.377 115.147 121.948 114.889 120.308Z" fill="#3B82F6"/>
<path d="M77.9456 59.2725C79.6576 62.8538 82.8741 64.5552 86.4149 65.5772C90.7 66.8141 95.015 66.8551 99.113 64.6525C101.966 63.1189 103.729 60.7865 104.447 57.6401C105.658 52.3284 107.333 47.1735 110.506 42.6788C116.969 33.5226 126.094 29.1194 137.111 28.4161C143.693 27.9959 149.817 29.403 154.957 33.8246C159.412 37.6562 161.27 42.6376 161.297 48.392C161.299 48.8483 161.349 49.3607 160.926 49.7182C160.89 48.2109 160.8 46.7761 159.296 45.8267C146.64 37.8353 124.918 36.7582 113.773 55.1388C111.945 58.1544 110.602 61.4157 110.096 64.9392C108.886 73.3628 101.752 77.4013 95.6191 77.5675C89.7703 77.726 84.4733 76.4344 80.6687 71.5123C78.8863 69.2064 78.3542 66.4565 77.8665 63.7033C77.5767 62.0676 77.4469 60.4037 77.2451 58.7525C77.7134 58.6116 77.8004 58.981 77.9456 59.2725Z" fill="#1E55AF"/>
<path d="M110.762 169.997C110.698 167.149 110.542 164.306 111.376 161.51C113.46 154.519 120.388 149.703 127.693 150.16C132.041 150.432 136.012 151.565 139.238 154.672C142.945 158.243 144.03 162.741 143.953 167.669C143.936 168.794 143.947 169.92 143.945 171.045C141.377 180.302 125.536 187.073 115.312 178.232C113.149 176.361 111.55 174.108 111.158 171.176C111.102 170.758 110.82 170.415 110.762 169.997Z" fill="#3B82F6"/>
<path d="M114.888 120.307C119.123 129.391 130.175 131.93 137.127 129.423C142.208 127.59 145.949 124.386 147.683 119.137C147.889 118.948 148.031 119.152 148.195 119.221C147.767 123.131 147.795 127.06 147.758 130.983C147.706 136.588 145.374 140.003 140.117 141.975C132.763 144.732 122.789 142.307 117.575 136.45C115.432 134.044 114.283 131.269 114.537 127.965C114.732 125.419 114.776 122.86 114.888 120.307Z" fill="#1E55AF"/>
<path d="M148.193 119.221C148.023 119.193 147.852 119.166 147.682 119.138C147.613 118.837 147.919 118.336 147.421 118.275C146.86 118.205 146.455 118.588 146.173 119.08C145.635 120.021 145.389 121.19 144.198 121.631C143.767 121.08 144.201 120.598 144.364 120.13C145.739 116.178 146.616 112.135 146.871 107.949C146.99 105.994 147.267 104.046 147.472 102.096C147.839 98.6108 150.527 96.5474 152.372 93.9977C154.151 91.5392 156.467 89.5437 158.816 87.5934C164.13 83.1815 169.678 79.0475 174.715 74.3036C175.327 73.7274 175.921 72.9204 176.989 73.1535C176.878 74.0317 176.173 74.5431 175.718 75.2097C175.062 76.1701 175.217 76.6743 176.427 77.1081C177.582 77.5223 178.746 76.6832 179.811 77.3788C179.31 79.1654 177.571 79.8486 176.448 81.0787C175.615 81.9905 174.51 82.6439 173.674 83.5804C174.915 82.2384 176.371 81.1341 177.79 80.007C182.482 76.2795 186.415 71.86 189.994 67.0962C190.328 66.6522 190.596 66 191.382 66.3312C189.772 71.3139 186.836 75.4701 183.127 79.0759C177.474 84.5712 170.972 89.0435 164.815 93.932C158.068 99.2895 152.026 105.213 149.176 113.651C148.564 115.461 148.196 117.308 148.193 119.221Z" fill="#2570EB"/>
<path d="M110.761 169.997C110.961 170.354 111.246 170.689 111.349 171.072C113.495 179.09 121.904 182.931 129.366 181.634C135.549 180.56 140.523 177.575 143.339 171.683C143.459 171.432 143.739 171.257 143.944 171.046C143.915 173.182 143.896 175.319 143.854 177.456C143.812 179.614 143.026 181.496 141.716 183.197C134.984 191.935 119.668 192.22 113.147 183.727C111.767 181.929 110.947 179.948 110.921 177.654C110.891 175.101 110.816 172.549 110.761 169.997Z" fill="#1E55AF"/>
<path d="M127.191 8.78674C127.345 9.32714 127.77 9.52903 128.266 9.64361C127.879 10.5734 126.973 10.3603 126.266 10.4898C117.081 12.1735 108.458 15.268 100.594 20.3841C93.7186 24.8565 88.3156 30.6667 84.2567 37.7533C83.7099 39.0294 83.1223 40.2864 82.5491 41.5496C82.4102 41.8558 82.29 42.2338 81.816 41.9551C82.0175 41.0431 81.4121 40.8768 80.7267 40.7841C84.3398 31.9402 90.6972 25.4178 98.36 19.9737C106.628 14.0996 115.918 10.7556 125.786 8.80475C126.254 8.71224 126.72 8.59533 127.191 8.78674Z" fill="#1D64D8"/>
<path d="M191.383 66.3306C190.405 66.6351 190.232 67.6236 189.707 68.3083C184.989 74.4658 179.321 79.6427 173.139 84.2897C173.076 84.3374 172.943 84.2931 172.641 84.2891C174.873 81.6868 177.543 79.7332 179.813 77.3784C184.409 73.4871 187.917 68.6366 191.68 64.0097C191.82 63.8377 191.829 63.3515 192.224 63.5936C192.344 63.667 192.283 64.0341 192.305 64.2664C192.121 65.009 191.881 65.727 191.383 66.3306Z" fill="#1E55AF"/>
<path d="M77.9467 59.2729C77.7132 59.0995 77.4798 58.9262 77.2462 58.7528C76.9594 53.3702 77.8445 48.1841 79.8741 43.1896C79.7969 45.3857 78.7942 47.3707 78.4531 49.5287C77.9396 52.7778 77.1732 55.9724 77.9467 59.2729Z" fill="#1D64D8"/>
<path d="M136.289 7.43823C134.608 7.95385 132.906 8.29763 131.134 8.05209C132.822 7.59698 134.531 7.31698 136.289 7.43823Z" fill="#1D64D8"/>
<path d="M84.0579 37.5797C86.2104 33.2167 89.1623 29.448 92.6858 26.1137C102.409 16.9122 114.203 12.0884 127.241 9.90411C127.586 9.84619 127.922 9.7315 128.263 9.64354C128.837 9.56884 129.41 9.4939 129.984 9.41897C131.074 9.07098 132.212 9.15487 133.329 9.04332C139.099 8.88559 144.865 8.64544 150.625 9.33271C160.18 10.4728 168.842 13.7943 176.484 19.6689C177.33 20.4747 177.342 20.5331 176.709 20.8086C165.997 13.3775 153.922 10.8232 141.118 11.0921C131.724 11.2894 122.461 12.4678 113.545 15.6375C102.102 19.7054 92.6628 26.4404 85.7168 36.4721C85.2225 37.186 84.4075 37.7078 84.3028 38.6728C83.4887 38.4714 83.8538 38.0076 84.0579 37.5797Z" fill="#FBFBF3"/>
<path d="M176.991 73.1529C175.235 74.1067 174.055 75.7284 172.546 76.9686C167.578 81.0522 162.582 85.1031 157.639 89.2179C155.171 91.273 153.374 93.9939 151.149 96.2325C147.932 99.4684 147.706 103.349 147.416 107.328C147.057 112.268 146.155 117.06 144.2 121.63C143.768 122.022 143.87 122.78 142.918 123.199C143.509 121.225 144.047 119.482 144.551 117.73C145.755 113.543 146.336 109.24 146.487 104.915C146.696 98.9221 150.003 94.6502 153.904 90.6243C158.108 86.2853 163.402 83.2626 167.819 79.1882C172.225 75.1249 177.083 71.5422 180.909 66.8606C184.539 62.4183 187.861 57.8024 189.293 52.1369C189.994 49.3651 190.186 46.5105 190.136 43.6592C190.121 42.7853 190.134 41.9535 190.431 41.1139C191.012 44.2859 191.67 47.4073 190.983 50.6887C189.797 56.355 186.84 61.1332 183.524 65.6899C181.587 68.3515 179.184 70.6765 176.991 73.1529Z" fill="#1E55AF"/>
<path d="M116.389 33.8066C125.928 27.3438 136.386 25.2108 147.686 27.0402C136.623 26.3262 126.117 28.2332 116.389 33.8066Z" fill="#1D64D8"/>
<path d="M165.835 77.2632C162.406 80.0694 158.947 82.8393 155.557 85.6917C152.144 88.5632 149.201 91.8512 147.018 96.0151C147.374 91.4186 155.94 83.5859 165.835 77.2632Z" fill="#1D64D8"/>
<path d="M84.0594 37.5796C84.091 37.955 83.8959 38.381 84.3041 38.6726C83.2219 41.058 82.1397 43.4434 81.0574 45.8288C80.4516 45.7991 80.5015 45.5262 80.8071 45.1582C80.9228 44.0219 81.1757 42.9286 81.8149 41.9556C82.7718 40.603 82.9531 38.8555 84.0594 37.5796Z" fill="#F8E7AE"/>
<path d="M176.71 20.8078C177.297 20.2985 176.409 20.0776 176.485 19.6681C178.714 20.846 180.272 22.7442 181.846 24.6411C180.098 23.4005 178.214 22.3575 176.71 20.8078Z" fill="#F9E497"/>
<path d="M80.8063 45.157C80.8899 45.3809 80.9735 45.6048 81.0568 45.8281C81.0518 46.7318 80.685 47.4582 79.8393 48.3274C79.9757 46.9828 80.2206 46.0206 80.8063 45.157Z" fill="#1D64D8"/>
<path d="M133.332 9.04358C132.234 9.32496 131.126 9.50691 129.987 9.41918C131.035 8.7017 132.181 8.85171 133.332 9.04358Z" fill="#1D64D8"/>
<path d="M127.104 174.413C124.046 176.038 119.021 174.742 117.045 173.198C113.134 170.143 112.568 164.198 114.307 160.598C114.699 159.786 115.18 158.651 116.064 158.993C116.82 159.286 116.334 160.524 116.087 161.248C115.197 163.856 115.568 166.351 116.383 168.894C117.588 172.654 121.538 174.037 124.872 174.108C125.57 174.124 126.268 173.907 127.104 174.413Z" fill="#1E55AF"/>
<path d="M141.456 169.445C140.609 167.004 139.888 164.781 139.062 162.597C138.497 161.1 137.865 159.631 137.037 158.239C135.117 155.012 132.288 153.728 128.619 154.053C127.855 154.121 127.089 154.167 126.281 154.227C128.99 152.635 133.799 153.141 136.732 155.298C140.459 158.039 142.69 164.484 141.456 169.445Z" fill="#FBF9E2"/>
</g>
</g>
<g clip-path="url(#clip2_1521_21237)">
<g clip-path="url(#clip3_1521_21237)">
<path d="M24.6098 150.47C24.3515 146.039 25.4119 141.976 27.9966 138.333C29.5155 136.192 31.3523 134.341 33.3461 132.657C36.523 129.973 39.7997 127.406 42.9545 124.698C45.5758 122.447 47.8617 119.896 49.1505 116.608C49.8202 114.899 50.0916 113.117 50.148 111.294C50.4964 110.568 50.0853 109.892 50.012 109.193C49.4524 103.858 45.2672 100.494 40.0885 99.8471C34.728 99.1778 29.896 100.664 25.6784 103.941C22.5747 106.353 20.797 109.706 19.6981 113.429C19.5019 114.093 19.3019 114.76 19.1586 115.436C18.4272 118.892 15.9048 120.517 12.715 120.747C9.99177 120.944 7.37262 120.36 5.21769 118.472C4.58449 117.917 4.02903 117.321 3.9423 116.428C3.55192 114.743 3.96741 113.088 4.2101 111.446C4.39914 110.168 4.76843 108.905 5.18874 107.67C5.17881 107.167 5.4275 106.754 5.65975 106.336C6.15503 106.173 6.44472 106.314 6.45574 106.869C6.35311 107.487 5.99147 108.02 5.87018 108.631C5.62569 108.941 5.69965 109.361 5.47822 109.763C5.66629 109.505 5.63082 109.263 5.69174 109.048C6.14941 107.664 6.86728 106.392 7.41153 105.045C8.58541 103 10.0684 101.203 11.7495 99.5503C14.8809 96.471 18.5158 94.1814 22.5844 92.5597C25.1428 91.5399 27.7969 90.8489 30.5122 90.404C35.1598 89.6424 39.8339 89.2394 44.5317 89.7917C49.7212 90.4019 54.6171 91.8848 58.914 94.9833C59.6318 95.699 60.5207 96.2112 61.25 96.915C61.3446 97.0076 61.1596 97.0315 61.2672 96.9544C61.2858 96.9411 61.2739 96.9108 61.225 96.8717C60.3085 96.1406 59.537 95.2295 58.4795 94.6708C55.0424 92.2583 51.3378 90.4547 47.1925 89.6026C43.5125 88.8461 39.8016 88.7879 36.0728 88.9988C35.6765 89.0212 35.2822 89.0345 34.8878 88.9908C34.2671 88.8708 33.6539 88.8843 33.0527 89.102C32.6955 89.207 32.3369 89.3021 31.9584 89.2364C31.6398 89.1313 31.3207 89.0252 31.433 88.578C32.1625 88.4423 32.892 88.3066 33.6215 88.1709C34.5788 88.0919 35.5308 87.968 36.4811 87.8303C39.6399 87.3883 42.8073 87.4148 45.9561 87.8407C50.4834 88.453 54.8126 89.7091 58.6763 92.2416C65.1252 96.4686 68.3513 102.503 68.6448 110.141C68.7589 113.109 68.7365 116.074 67.7727 118.94C67.7221 119.09 67.6265 119.226 67.5519 119.368C66.5713 120.254 65.8594 121.369 64.9905 122.351C63.8411 123.65 62.8517 125.095 61.4673 126.178C61.185 126.399 60.9299 126.665 60.5602 126.752C60.0026 126.748 59.4492 126.895 58.8875 126.755C57.9148 126.514 57.6933 126.011 58.2478 125.19C58.4686 124.863 58.7094 124.55 58.8803 124.193C59.797 122.938 60.9602 121.896 61.9163 120.672C64.0691 117.914 65.8965 115.004 66.6052 111.51C66.8533 110.287 66.6944 109.079 66.5748 107.869C66.5421 107.538 66.5308 107.218 66.5314 106.891C66.6056 108.023 66.568 109.15 66.5057 110.284C66.3181 113.702 64.7785 116.549 62.8202 119.211C60.8741 121.857 58.4646 124.054 55.9943 126.218C53.4068 128.485 50.6845 130.571 48.007 132.719C46.766 133.715 45.6515 134.856 44.6998 136.123C43.4391 137.801 42.5142 139.605 42.4128 141.808C42.2656 145.007 41.8042 148.173 40.6298 151.191C40.625 151.203 40.6563 151.229 40.6708 151.249C40.6824 151.183 40.712 151.125 40.7621 151.069C41.287 150.674 41.4902 150.054 41.8649 149.559C42.0726 149.284 42.3665 149.077 42.7165 149.166C43.0438 149.249 42.9739 149.572 42.964 149.831C41.8924 153.464 39.2291 155.36 35.7153 156.078C31.8526 156.867 28.5412 155.591 25.799 152.818C25.1616 152.173 24.7529 151.38 24.6098 150.47Z" fill="#3B82F6"/>
<path d="M4.11765 116.597C5.06725 118.584 6.85145 119.528 8.81549 120.096C11.1924 120.782 13.5859 120.805 15.859 119.582C17.4416 118.731 18.4195 117.437 18.8175 115.691C19.4892 112.743 20.4187 109.882 22.1786 107.388C25.7636 102.306 30.8248 99.8624 36.9359 99.4721C40.5867 99.2389 43.9836 100.02 46.835 102.474C49.3059 104.6 50.3365 107.365 50.3518 110.558C50.353 110.811 50.3806 111.096 50.146 111.294C50.1259 110.458 50.076 109.661 49.2419 109.135C42.2214 104.7 30.1727 104.102 23.9908 114.302C22.9765 115.976 22.2317 117.786 21.9509 119.741C21.2797 124.416 17.3226 126.658 13.9209 126.75C10.6767 126.838 7.73847 126.121 5.62811 123.389C4.63944 122.11 4.3443 120.584 4.07377 119.056C3.91304 118.148 3.84102 117.224 3.7291 116.308C3.98883 116.23 4.03712 116.435 4.11765 116.597Z" fill="#1E55AF"/>
<path d="M22.3207 178.046C22.285 176.466 22.1985 174.888 22.661 173.336C23.8172 169.456 27.6602 166.784 31.712 167.037C34.124 167.188 36.3262 167.817 38.1158 169.541C40.1721 171.523 40.7741 174.019 40.7313 176.754C40.7216 177.378 40.7278 178.003 40.7267 178.627C39.3022 183.765 30.5157 187.523 24.8446 182.616C23.6444 181.578 22.7579 180.328 22.5402 178.7C22.5092 178.468 22.3526 178.278 22.3207 178.046Z" fill="#3B82F6"/>
<path d="M24.6077 150.469C26.9572 155.511 33.0874 156.92 36.9435 155.529C39.7621 154.511 41.8368 152.733 42.7988 149.82C42.9132 149.715 42.9918 149.828 43.0826 149.866C42.8454 152.037 42.8607 154.217 42.8404 156.395C42.8114 159.505 41.5179 161.4 38.6019 162.494C34.5227 164.025 28.9907 162.679 26.0981 159.428C24.9097 158.093 24.2721 156.553 24.4129 154.72C24.5215 153.306 24.5459 151.886 24.6077 150.469Z" fill="#1E55AF"/>
<path d="M43.0841 149.866C42.9895 149.85 42.8949 149.835 42.8003 149.819C42.762 149.652 42.9321 149.374 42.6557 149.34C42.3443 149.302 42.1196 149.515 41.9637 149.787C41.6648 150.309 41.5284 150.959 40.8679 151.203C40.6286 150.897 40.8693 150.63 40.9597 150.37C41.7225 148.177 42.2091 145.933 42.3506 143.61C42.4167 142.525 42.5702 141.444 42.6841 140.362C42.8876 138.428 44.3787 137.282 45.4021 135.867C46.3888 134.503 47.6735 133.396 48.9764 132.313C51.9239 129.865 55.0015 127.57 57.7953 124.938C58.1346 124.618 58.4644 124.17 59.0566 124.299C58.9952 124.787 58.604 125.071 58.3514 125.441C57.9875 125.974 58.0735 126.253 58.7447 126.494C59.3856 126.724 60.0311 126.258 60.6221 126.644C60.3443 127.636 59.3793 128.015 58.7563 128.698C58.2946 129.204 57.6818 129.566 57.218 130.086C57.9062 129.341 58.7141 128.728 59.5009 128.103C62.1036 126.034 64.2853 123.582 66.2705 120.938C66.4555 120.691 66.6045 120.329 67.0403 120.513C66.147 123.278 64.5185 125.585 62.4611 127.586C59.3256 130.636 55.719 133.118 52.304 135.831C48.5613 138.804 45.2099 142.092 43.629 146.775C43.2899 147.779 43.0854 148.804 43.0841 149.866Z" fill="#2570EB"/>
<path d="M22.3201 178.046C22.4311 178.244 22.5893 178.43 22.6462 178.642C23.8365 183.092 28.5009 185.224 32.6398 184.504C36.0696 183.908 38.8286 182.252 40.3906 178.982C40.4571 178.842 40.6123 178.745 40.7262 178.628C40.7101 179.813 40.6996 181 40.6764 182.185C40.6529 183.383 40.2174 184.428 39.4907 185.371C35.7564 190.221 27.2608 190.379 23.6435 185.666C22.878 184.668 22.4233 183.568 22.4087 182.295C22.3925 180.879 22.3507 179.462 22.3201 178.046Z" fill="#1E55AF"/>
<path d="M31.4325 88.5772C31.5179 88.8771 31.754 88.9891 32.0289 89.0527C31.8142 89.5687 31.3117 89.4505 30.9196 89.5224C25.8244 90.4568 21.0418 92.1742 16.6794 95.0134C12.8658 97.4955 9.86888 100.72 7.61748 104.653C7.31416 105.361 6.98824 106.059 6.67026 106.76C6.59321 106.93 6.52653 107.139 6.26365 106.985C6.37541 106.479 6.03961 106.386 5.6594 106.335C7.66357 101.427 11.1899 97.807 15.4404 94.7857C20.0266 91.5257 25.1796 89.6699 30.6533 88.5872C30.9131 88.5359 31.1713 88.471 31.4325 88.5772Z" fill="#1D64D8"/>
<path d="M67.0397 120.514C66.4973 120.683 66.4009 121.232 66.1099 121.612C63.4928 125.029 60.349 127.902 56.9199 130.481C56.8847 130.507 56.811 130.483 56.6436 130.48C57.8817 129.036 59.3626 127.952 60.6216 126.645C63.1714 124.486 65.117 121.794 67.2041 119.226C67.2817 119.13 67.2868 118.861 67.5059 118.995C67.5725 119.036 67.5385 119.239 67.5507 119.368C67.4489 119.781 67.3158 120.179 67.0397 120.514Z" fill="#1E55AF"/>
<path d="M4.11833 116.597C3.98882 116.501 3.85932 116.405 3.72978 116.308C3.57068 113.321 4.06161 110.443 5.18745 107.671C5.14462 108.89 4.58844 109.992 4.39924 111.189C4.11438 112.992 3.68926 114.765 4.11833 116.597Z" fill="#1D64D8"/>
<path d="M36.479 87.8311C35.5466 88.1172 34.6028 88.308 33.6196 88.1717C34.556 87.9192 35.5042 87.7638 36.479 87.8311Z" fill="#1D64D8"/>
<path d="M7.50758 104.557C8.70153 102.136 10.339 100.045 12.2934 98.1941C17.6869 93.0875 24.2284 90.4104 31.4605 89.1982C31.6522 89.1661 31.8385 89.1024 32.0276 89.0536C32.3459 89.0122 32.664 88.9706 32.9821 88.929C33.5867 88.7359 34.2183 88.7824 34.8376 88.7205C38.0379 88.633 41.2368 88.4997 44.4317 88.8811C49.7315 89.5138 54.5362 91.3572 58.7754 94.6174C59.2446 95.0647 59.2509 95.097 58.8998 95.2499C52.9585 91.1259 46.2601 89.7083 39.1579 89.8575C33.9472 89.967 28.8091 90.621 23.8636 92.3801C17.5166 94.6377 12.2806 98.3754 8.42777 103.943C8.15359 104.339 7.70151 104.629 7.6434 105.164C7.19187 105.052 7.39438 104.795 7.50758 104.557Z" fill="#FBFBF3"/>
<path d="M59.055 124.3C58.0806 124.829 57.4262 125.729 56.5892 126.417C53.8332 128.684 51.0621 130.932 48.3207 133.215C46.9515 134.356 45.9546 135.866 44.7204 137.108C42.9363 138.904 42.8107 141.058 42.6501 143.266C42.4509 146.007 41.9504 148.667 40.8662 151.203C40.6264 151.421 40.6831 151.841 40.1552 152.074C40.4827 150.978 40.7813 150.011 41.0608 149.039C41.7288 146.715 42.0506 144.327 42.1343 141.927C42.2503 138.601 44.0848 136.23 46.2486 133.996C48.5807 131.588 51.5171 129.91 53.9673 127.649C56.4109 125.394 59.1059 123.406 61.228 120.808C63.2417 118.342 65.0842 115.781 65.8787 112.636C66.2674 111.098 66.3739 109.514 66.3462 107.932C66.3377 107.447 66.3448 106.985 66.5097 106.519C66.8323 108.279 67.1971 110.012 66.8162 111.833C66.1583 114.977 64.518 117.629 62.6785 120.158C61.604 121.635 60.2714 122.925 59.055 124.3Z" fill="#1E55AF"/>
<path d="M25.4427 102.464C30.7337 98.877 36.5349 97.6932 42.8029 98.7085C36.6663 98.3123 30.8385 99.3705 25.4427 102.464Z" fill="#1D64D8"/>
<path d="M52.8686 126.582C50.9667 128.139 49.0477 129.677 47.1674 131.259C45.2746 132.853 43.6418 134.678 42.4312 136.989C42.6287 134.438 47.3797 130.091 52.8686 126.582Z" fill="#1D64D8"/>
<path d="M7.50549 104.558C7.52303 104.766 7.41484 105.003 7.64125 105.165C7.04096 106.488 6.44066 107.812 5.84037 109.136C5.50433 109.12 5.53198 108.968 5.70151 108.764C5.76566 108.133 5.90597 107.527 6.26051 106.987C6.7913 106.236 6.89185 105.266 7.50549 104.558Z" fill="#F8E7AE"/>
<path d="M58.8984 95.2498C59.224 94.9671 58.7315 94.8445 58.774 94.6172C60.0103 95.2709 60.8746 96.3244 61.7472 97.3771C60.778 96.6887 59.733 96.1098 58.8984 95.2498Z" fill="#F9E497"/>
<path d="M5.70433 108.764C5.75069 108.888 5.79704 109.012 5.8433 109.136C5.8405 109.638 5.63701 110.041 5.16796 110.523C5.24358 109.777 5.37942 109.243 5.70433 108.764Z" fill="#1D64D8"/>
<path d="M34.839 88.7202C34.2303 88.8763 33.6154 88.9773 32.9836 88.9286C33.5649 88.5304 34.2006 88.6137 34.839 88.7202Z" fill="#1D64D8"/>
<path d="M31.3858 180.497C29.6893 181.399 26.9024 180.68 25.8061 179.823C23.637 178.127 23.3226 174.828 24.2872 172.83C24.5049 172.38 24.7716 171.75 25.2623 171.94C25.6814 172.102 25.412 172.789 25.2749 173.191C24.7813 174.638 24.9868 176.023 25.4389 177.434C26.1073 179.521 28.2983 180.288 30.1475 180.328C30.535 180.337 30.922 180.217 31.3858 180.497Z" fill="#1E55AF"/>
<path d="M39.3475 177.74C38.8778 176.386 38.4779 175.152 38.0198 173.94C37.7059 173.109 37.3556 172.294 36.8961 171.521C35.8314 169.73 34.2619 169.017 32.2272 169.198C31.8031 169.236 31.3781 169.261 30.9301 169.294C32.433 168.411 35.1003 168.692 36.7272 169.889C38.7943 171.41 40.0318 174.987 39.3475 177.74Z" fill="#FBF9E2"/>
</g>
</g>
<defs>
<clipPath id="clip0_1521_21237">
<rect width="128" height="191" fill="white" transform="translate(70.5234 0.537109)"/>
</clipPath>
<clipPath id="clip1_1521_21237">
<rect width="128" height="191" fill="white" transform="translate(70.5234 0.537109)"/>
</clipPath>
<clipPath id="clip2_1521_21237">
<rect width="71" height="106" fill="white" transform="translate(0 84)"/>
</clipPath>
<clipPath id="clip3_1521_21237">
<rect width="71" height="106" fill="white" transform="translate(0 84)"/>
</clipPath>
</defs>
</svg>
